<?xml version="1.0" encoding="utf-8"?>
<!-- Generator: Adobe Illustrator 17.0.1, SVG Export Plug-In . SVG Version: 6.00 Build 0)  -->
<!DOCTYPE svg PUBLIC "-//W3C//DTD SVG 1.1//EN" "http://www.w3.org/Graphics/SVG/1.1/DTD/svg11.dtd">
<svg version="1.1" id="Capa_1" xmlns="http://www.w3.org/2000/svg" xmlns:xlink="http://www.w3.org/1999/xlink" x="0px" y="0px"
	 width="155px" height="55px" viewBox="0 0 155 55" enable-background="new 0 0 155 55" xml:space="preserve">
<g>
	<path fill="#232322" d="M45.582,29.338c-0.044,0.24,0.038,0.409,0.245,0.507c0.065,0.022,0.174,0.044,0.327,0.066l-0.229,1.536
		h-3.251l0.327-1.552c0.218,0,0.392-0.044,0.523-0.131c0.044-0.022,0.093-0.071,0.147-0.148l0.752-4.019
		c0.048-0.26-0.026-0.438-0.213-0.523c-0.053-0.024-0.158-0.038-0.311-0.049l0.229-1.536h3.202l-0.327,1.552
		c-0.272-0.022-0.474,0.033-0.604,0.163c-0.022,0.022-0.049,0.06-0.082,0.114L45.582,29.338"/>
	<path fill="#232322" d="M21.188,23.374L20.6,26.822h-1.373l0.114-0.703c0.022-0.131,0.033-0.228,0.033-0.294
		c0-0.229-0.063-0.409-0.188-0.539c-0.125-0.131-0.28-0.212-0.466-0.245c-0.468,0-0.757,0.215-0.817,0.653l-0.425,3.121
		c-0.007,0.055-0.017,0.136-0.017,0.245c0,0.218,0.041,0.398,0.123,0.54c0.082,0.141,0.199,0.212,0.351,0.212
		c0.327,0,0.57-0.148,0.735-0.441c0.031-0.055,0.163-0.409,0.392-1.062l1.274,0.016c-0.098,0.828-0.355,1.529-0.768,2.108
		c-0.481,0.674-1.084,1.013-1.814,1.013c-0.544,0-0.986-0.125-1.324-0.376c-0.425-0.316-0.637-0.806-0.637-1.47
		c0-0.414,0.038-0.929,0.114-1.544c0.076-0.615,0.158-1.266,0.245-1.952c0-0.784,0.223-1.443,0.67-1.977
		c0.392-0.468,0.909-0.702,1.552-0.702c0.294,0,0.536,0.019,0.727,0.057c0.19,0.038,0.395,0.117,0.612,0.237l0.262-0.327
		L21.188,23.374"/>
	<path fill="#232322" d="M41.154,23.701c-0.185-0.098-0.463-0.174-0.833-0.229h-3.594l-0.246,1.552c0.12,0,0.221,0.046,0.302,0.139
		c0.082,0.092,0.123,0.242,0.123,0.449c0,0.044-0.005,0.143-0.033,0.294l-0.67,3.709c-0.054,0.076-0.104,0.126-0.147,0.148
		c-0.131,0.087-0.305,0.131-0.523,0.131l-0.327,1.552h3.137l0.228-1.536c-0.131-0.022-0.223-0.044-0.277-0.066
		c-0.164-0.098-0.229-0.268-0.18-0.507l0.327-1.585c0.076,0,0.191,0,0.343,0c0.196,0,0.346,0.033,0.449,0.098
		c0.104,0.065,0.155,0.202,0.155,0.408c0,0.022,0,0.06,0,0.114c0,0.033-0.009,0.076-0.017,0.131l-0.343,2.369
		c-0.027,0.186,0.003,0.327,0.106,0.425c0.104,0.098,0.264,0.149,0.482,0.147l1.618-0.016l0.196-1.552
		c-0.174-0.076-0.278-0.141-0.311-0.196c-0.033-0.054-0.039-0.142-0.017-0.261c0.042-0.219,0.087-0.441,0.131-0.67
		c0.043-0.229,0.065-0.425,0.065-0.588c0-0.218-0.054-0.37-0.164-0.457c-0.054-0.032-0.103-0.071-0.147-0.114
		c-0.044-0.033-0.065-0.065-0.065-0.098c0-0.087,0.128-0.231,0.384-0.433c0.256-0.201,0.433-0.449,0.531-0.744
		c0.098-0.294,0.147-0.675,0.147-1.143C41.987,24.485,41.71,23.995,41.154,23.701z M39.814,25.613c0,0.033-0.006,0.071-0.016,0.114
		l-0.082,0.572c-0.039,0.273-0.256,0.408-0.637,0.408c-0.207,0-0.381-0.011-0.523-0.033l0.261-1.568
		c0.098,0,0.245-0.011,0.441-0.017c0.174-0.005,0.31,0.03,0.408,0.09c0.098,0.06,0.147,0.177,0.147,0.351
		C39.814,25.542,39.814,25.569,39.814,25.613"/>
	<path fill="#232322" d="M33.638,23.701c-0.185-0.098-0.463-0.174-0.833-0.229H29.21l-0.245,1.552c0.12,0,0.22,0.046,0.302,0.139
		c0.082,0.092,0.123,0.242,0.123,0.449c0,0.044-0.006,0.143-0.033,0.294l-0.67,3.709c-0.054,0.076-0.103,0.126-0.147,0.148
		c-0.131,0.087-0.305,0.131-0.523,0.131l-0.327,1.552h3.137l0.229-1.536c-0.131-0.022-0.223-0.044-0.278-0.066
		c-0.163-0.098-0.229-0.268-0.18-0.507l0.327-1.585c0.076,0,0.19,0,0.343,0c0.196,0,0.346,0.033,0.45,0.098
		c0.104,0.065,0.155,0.202,0.155,0.408c0,0.022,0,0.06,0,0.114c0,0.033-0.009,0.076-0.017,0.131l-0.343,2.369
		c-0.027,0.186,0.003,0.327,0.106,0.425c0.104,0.098,0.264,0.149,0.482,0.147l1.618-0.016l0.196-1.552
		c-0.174-0.076-0.278-0.141-0.311-0.196c-0.033-0.054-0.039-0.142-0.016-0.261c0.042-0.219,0.087-0.441,0.131-0.67
		c0.044-0.229,0.065-0.425,0.065-0.588c0-0.218-0.054-0.37-0.163-0.457c-0.055-0.032-0.104-0.071-0.147-0.114
		c-0.044-0.033-0.066-0.065-0.066-0.098c0-0.087,0.128-0.231,0.384-0.433c0.256-0.201,0.433-0.449,0.531-0.744
		c0.098-0.294,0.147-0.675,0.147-1.143C34.472,24.485,34.194,23.995,33.638,23.701z M32.299,25.613c0,0.033-0.005,0.071-0.016,0.114
		L32.2,26.299c-0.039,0.273-0.256,0.408-0.637,0.408c-0.207,0-0.381-0.011-0.523-0.033l0.261-1.568c0.098,0,0.244-0.011,0.441-0.017
		c0.174-0.005,0.31,0.03,0.408,0.09c0.098,0.06,0.147,0.177,0.147,0.351C32.299,25.542,32.299,25.569,32.299,25.613"/>
	<path fill="#232322" d="M26.874,24.053c-0.392-0.376-0.872-0.587-1.438-0.645c-0.066-0.007-0.169-0.016-0.31-0.016
		c-0.676,0-1.239,0.201-1.691,0.604c-0.452,0.403-0.764,0.938-0.874,1.617l-0.604,3.725c-0.025,0.152-0.033,0.262-0.033,0.327
		c0,0.545,0.201,0.973,0.604,1.283c0.403,0.311,0.904,0.466,1.503,0.466c0.784,0,1.413-0.174,1.887-0.523
		c0.474-0.349,0.792-0.813,0.891-1.405l0.637-3.823c0.009-0.055,0.016-0.131,0.016-0.229C27.462,24.888,27.266,24.428,26.874,24.053
		z M25.6,26.152l-0.49,2.745c-0.046,0.26-0.12,0.474-0.261,0.637c-0.142,0.163-0.315,0.21-0.523,0.147
		c-0.293-0.089-0.441-0.283-0.441-0.588c0-0.163,0.015-0.293,0.033-0.392l0.506-2.892c0.098-0.316,0.199-0.526,0.302-0.629
		c0.104-0.103,0.259-0.155,0.466-0.155c0.316,0.054,0.474,0.251,0.474,0.588C25.665,25.798,25.631,25.975,25.6,26.152"/>
	<path fill="#232322" d="M52.526,28.423h1.225l-0.637,3.023h-5.441L48,29.894c0.218,0,0.392-0.044,0.523-0.131
		c0.044-0.022,0.093-0.071,0.147-0.148l0.752-4.019c0.049-0.26-0.026-0.438-0.212-0.523c-0.053-0.024-0.158-0.038-0.311-0.049
		l0.229-1.536h5.457l-0.425,2.647h-1.128c0.011-0.065,0.017-0.158,0.017-0.278c0-0.305-0.049-0.545-0.147-0.719
		c-0.13-0.229-0.327-0.343-0.588-0.343c-0.228,0-0.434,0.061-0.621,0.179c-0.261,0.165-0.411,0.368-0.449,0.613
		c-0.038,0.245-0.082,0.496-0.131,0.751c-0.049,0.256-0.068,0.417-0.057,0.482c0.022,0.044,0.114,0.082,0.278,0.114
		c0.109,0.011,0.195-0.039,0.261-0.147c0.108-0.175,0.196-0.501,0.262-0.98h0.637l-0.49,3.104H51.3l0.098-0.572
		c0.009-0.055,0.016-0.125,0.016-0.212c0-0.131-0.027-0.231-0.082-0.302c-0.054-0.07-0.152-0.106-0.294-0.106
		c-0.065,0-0.12,0.011-0.164,0.033c-0.043,0.011-0.097,0.235-0.163,0.67c-0.021,0.141-0.041,0.36-0.082,0.653
		c-0.035,0.252,0.011,0.468,0.164,0.654c0.153,0.185,0.338,0.278,0.555,0.278c0.36,0,0.626-0.136,0.801-0.408
		C52.27,29.414,52.395,29.022,52.526,28.423"/>
	<path fill="#232322" d="M67.068,28.423h1.226l-0.637,3.023h-5.441l0.327-1.552c0.218,0,0.392-0.044,0.523-0.131
		c0.043-0.022,0.093-0.071,0.147-0.148l0.752-4.019c0.049-0.26-0.026-0.438-0.212-0.523c-0.054-0.024-0.158-0.038-0.311-0.049
		l0.229-1.536h5.457l-0.425,2.647h-1.127c0.011-0.065,0.016-0.158,0.016-0.278c0-0.305-0.048-0.545-0.147-0.719
		c-0.13-0.229-0.327-0.343-0.588-0.343c-0.229,0-0.435,0.061-0.621,0.179c-0.26,0.165-0.411,0.368-0.449,0.613
		c-0.038,0.245-0.082,0.496-0.131,0.751c-0.049,0.256-0.068,0.417-0.057,0.482c0.022,0.044,0.114,0.082,0.278,0.114
		c0.109,0.011,0.195-0.039,0.261-0.147c0.108-0.175,0.196-0.501,0.261-0.98h0.638l-0.49,3.104h-0.703l0.098-0.572
		c0.009-0.055,0.016-0.125,0.016-0.212c0-0.131-0.027-0.231-0.081-0.302c-0.055-0.07-0.153-0.106-0.294-0.106
		c-0.065,0-0.12,0.011-0.163,0.033c-0.044,0.011-0.098,0.235-0.163,0.67c-0.021,0.141-0.041,0.36-0.082,0.653
		c-0.035,0.252,0.011,0.468,0.163,0.654c0.153,0.185,0.338,0.278,0.555,0.278c0.359,0,0.626-0.136,0.801-0.408
		C66.811,29.414,66.937,29.022,67.068,28.423"/>
	<path fill="#232322" d="M60.614,23.701c-0.185-0.098-0.463-0.174-0.833-0.229h-3.595l-0.245,1.552c0.12,0,0.22,0.046,0.302,0.139
		c0.082,0.092,0.123,0.242,0.123,0.449c0,0.044-0.006,0.143-0.033,0.294l-0.67,3.709c-0.054,0.076-0.104,0.126-0.147,0.148
		c-0.131,0.087-0.305,0.131-0.523,0.131l-0.327,1.552h3.137l0.229-1.536c-0.131-0.022-0.223-0.044-0.278-0.066
		c-0.164-0.098-0.229-0.268-0.18-0.507l0.327-1.585c0.076,0,0.191,0,0.343,0c0.196,0,0.346,0.033,0.449,0.098
		c0.104,0.065,0.155,0.202,0.155,0.408c0,0.022,0,0.06,0,0.114c0,0.033-0.009,0.076-0.017,0.131l-0.343,2.369
		c-0.027,0.186,0.003,0.327,0.106,0.425c0.104,0.098,0.264,0.149,0.482,0.147l1.618-0.016l0.196-1.552
		c-0.174-0.076-0.278-0.141-0.311-0.196c-0.033-0.054-0.039-0.142-0.016-0.261c0.042-0.219,0.087-0.441,0.131-0.67
		c0.044-0.229,0.065-0.425,0.065-0.588c0-0.218-0.054-0.37-0.163-0.457c-0.054-0.032-0.103-0.071-0.147-0.114
		c-0.044-0.033-0.066-0.065-0.066-0.098c0-0.087,0.128-0.231,0.384-0.433c0.256-0.201,0.433-0.449,0.531-0.744
		c0.098-0.294,0.147-0.675,0.147-1.143C61.447,24.485,61.169,23.995,60.614,23.701z M59.274,25.613c0,0.033-0.006,0.071-0.016,0.114
		l-0.082,0.572c-0.039,0.273-0.256,0.408-0.637,0.408c-0.207,0-0.381-0.011-0.523-0.033l0.261-1.568
		c0.098,0,0.245-0.011,0.441-0.017c0.174-0.005,0.31,0.03,0.408,0.09c0.098,0.06,0.147,0.177,0.147,0.351
		C59.274,25.542,59.274,25.569,59.274,25.613"/>
	<path fill="#232322" d="M98.798,28.603l-0.637,3.023h-5.196l0.327-1.552c0.229,0,0.409-0.044,0.539-0.131
		c0.044-0.022,0.092-0.071,0.147-0.147l0.834-4.02c0.053-0.26-0.026-0.438-0.212-0.523c-0.053-0.024-0.158-0.038-0.311-0.049
		l0.229-1.536h3.202l-0.327,1.552c-0.272-0.022-0.474,0.033-0.604,0.163c-0.022,0.022-0.049,0.06-0.082,0.114l-0.784,3.758
		c-0.027,0.13-0.033,0.223-0.033,0.278c0,0.436,0.169,0.654,0.507,0.654c0.359,0,0.626-0.136,0.8-0.408
		c0.12-0.186,0.245-0.577,0.376-1.177H98.798"/>
	<path fill="#232322" d="M92.393,28.603l-0.637,3.023H86.56l0.327-1.552c0.229,0,0.409-0.044,0.539-0.131
		c0.044-0.022,0.093-0.071,0.148-0.147l0.833-4.02c0.054-0.26-0.026-0.438-0.212-0.523c-0.053-0.024-0.158-0.038-0.31-0.049
		l0.229-1.536h3.202l-0.327,1.552c-0.272-0.022-0.474,0.033-0.604,0.163c-0.022,0.022-0.049,0.06-0.082,0.114l-0.785,3.758
		c-0.027,0.13-0.032,0.223-0.032,0.278c0,0.436,0.169,0.654,0.507,0.654c0.359,0,0.626-0.136,0.8-0.408
		c0.12-0.186,0.245-0.577,0.376-1.177H92.393"/>
	<path fill="#232322" d="M86.38,23.669l-0.409,2.647h-1.127c0-0.523-0.06-0.876-0.18-1.062c-0.12-0.185-0.299-0.278-0.539-0.278
		c-0.229,0-0.435,0.061-0.621,0.18c-0.26,0.165-0.411,0.368-0.449,0.613c-0.038,0.245-0.082,0.496-0.131,0.752
		c-0.049,0.256-0.07,0.417-0.057,0.482c0.009,0.044,0.103,0.087,0.278,0.114c0.097,0.016,0.18-0.038,0.245-0.147
		c0.109-0.185,0.201-0.512,0.277-0.98h0.637l-0.49,3.104h-0.703l0.098-0.572c0.008-0.044,0.016-0.109,0.016-0.196
		c0-0.185-0.046-0.302-0.139-0.351c-0.093-0.049-0.172-0.074-0.237-0.074c-0.065,0-0.12,0.011-0.163,0.033
		c-0.044,0.011-0.098,0.235-0.164,0.67c-0.022,0.141-0.051,0.36-0.098,0.654c-0.04,0.251,0.011,0.468,0.164,0.653
		c0.152,0.185,0.338,0.278,0.555,0.278c0.436,0,0.739-0.208,0.915-0.621c0.075-0.175,0.169-0.496,0.278-0.964h1.225l-0.653,3.023
		h-5.441l0.327-1.552c0.229,0,0.409-0.044,0.54-0.131c0.043-0.022,0.092-0.071,0.147-0.147l0.735-4.02
		c0.047-0.26-0.026-0.438-0.212-0.523c-0.053-0.024-0.152-0.038-0.294-0.049l0.229-1.536H86.38"/>
	<path fill="#232322" d="M78.619,24.24c-0.328-0.381-0.877-0.572-1.65-0.572h-3.186l-0.229,1.536
		c0.142,0.011,0.241,0.025,0.294,0.049c0.186,0.085,0.26,0.262,0.212,0.523l-0.735,4.02c-0.055,0.076-0.104,0.125-0.147,0.147
		c-0.131,0.087-0.311,0.131-0.539,0.131l-0.327,1.552h3.186c0.664,0,1.249-0.161,1.748-0.49c0.611-0.401,0.981-1.02,1.144-1.846
		l0.555-2.81c0.011-0.109,0.027-0.24,0.049-0.392c0.022-0.153,0.032-0.311,0.032-0.474C79.027,25.014,78.891,24.557,78.619,24.24z
		 M77.083,26.413l-0.523,2.451c-0.08,0.375-0.207,0.64-0.327,0.809c-0.12,0.169-0.294,0.226-0.523,0.172
		c-0.294-0.098-0.441-0.321-0.441-0.67c0-0.12,0.018-0.256,0.049-0.409l0.523-2.647c0.127-0.645,0.414-0.927,0.817-0.849
		c0.327,0.063,0.49,0.272,0.49,0.621C77.149,26.054,77.123,26.227,77.083,26.413"/>
	<path fill="#232322" d="M106.297,30.04c-0.163-0.011-0.311-0.191-0.376-0.555l-1.029-5.849l-1.65,0.016l-2.941,6.143
		c-0.044,0.065-0.087,0.109-0.131,0.131c-0.142,0.098-0.321,0.147-0.539,0.147l-0.327,1.552h3.088l0.229-1.536
		c-0.131-0.011-0.229-0.028-0.294-0.049c-0.206-0.066-0.31-0.18-0.31-0.343c0-0.033,0.011-0.093,0.033-0.18l0.228-0.621h1.504
		l0.163,0.703c-0.033,0.109-0.063,0.192-0.098,0.245c-0.117,0.176-0.289,0.262-0.507,0.262l-0.245,1.487h3.333l0.229-1.536
		C106.581,30.057,106.46,30.051,106.297,30.04z M102.735,27.851l0.654-1.634l0.229,1.667L102.735,27.851"/>
	<path fill="#232322" d="M124.286,23.571l-0.408,2.647h-1.128c0.012-0.109,0.017-0.191,0.017-0.245c0-0.305-0.048-0.551-0.147-0.735
		c-0.13-0.24-0.327-0.359-0.589-0.359c-0.316,0-0.567,0.093-0.752,0.278c-0.185,0.185-0.292,0.373-0.318,0.564
		c-0.027,0.191-0.069,0.419-0.123,0.686c-0.054,0.267-0.075,0.433-0.066,0.499c0.012,0.076,0.11,0.114,0.294,0.114
		c0.12,0,0.22-0.104,0.303-0.311c0.082-0.207,0.15-0.479,0.204-0.817h0.637l-0.49,3.105h-0.703l0.098-0.572
		c0.008-0.045,0.016-0.109,0.016-0.196c0-0.185-0.046-0.303-0.139-0.352c-0.093-0.049-0.172-0.073-0.237-0.073
		c-0.066,0-0.12,0.011-0.163,0.032c-0.044,0.022-0.098,0.245-0.163,0.67c-0.022,0.141-0.051,0.36-0.098,0.653
		c-0.04,0.251,0.011,0.469,0.163,0.653c0.153,0.185,0.338,0.278,0.556,0.278c0.435,0,0.739-0.208,0.915-0.621
		c0.074-0.175,0.169-0.495,0.278-0.964h1.226l-0.654,3.023h-5.441l0.327-1.552c0.229,0,0.409-0.044,0.539-0.131
		c0.044-0.022,0.093-0.071,0.147-0.147l0.736-4.019c0.046-0.25-0.027-0.422-0.213-0.507c-0.053-0.024-0.152-0.044-0.294-0.065
		l0.229-1.536H124.286"/>
	<path fill="#232322" d="M130.446,23.799c-0.185-0.098-0.463-0.174-0.833-0.229h-3.611l-0.245,1.536c0.12,0,0.22,0.046,0.302,0.139
		c0.081,0.093,0.123,0.243,0.123,0.45c0,0.054-0.006,0.159-0.033,0.311l-0.654,3.692c-0.054,0.076-0.103,0.125-0.147,0.147
		c-0.131,0.087-0.311,0.131-0.539,0.131l-0.327,1.552h3.137l0.229-1.536c-0.131-0.022-0.223-0.043-0.278-0.065
		c-0.163-0.087-0.231-0.258-0.18-0.506l0.327-1.585c0.076,0,0.191,0,0.344,0c0.195,0,0.346,0.035,0.449,0.107
		c0.103,0.071,0.155,0.209,0.155,0.416c0,0.022,0,0.06,0,0.115c0,0.032-0.009,0.075-0.017,0.131l-0.343,2.369
		c-0.025,0.174,0.022,0.315,0.131,0.424c0.109,0.109,0.261,0.153,0.457,0.131h1.618l0.196-1.552
		c-0.119-0.055-0.207-0.109-0.261-0.164c-0.054-0.054-0.071-0.158-0.049-0.31c0.032-0.218,0.071-0.446,0.114-0.686
		c0.044-0.24,0.066-0.419,0.066-0.539c0-0.229-0.055-0.392-0.163-0.49c-0.055-0.033-0.104-0.066-0.147-0.098
		c-0.044-0.032-0.066-0.07-0.066-0.114c0-0.076,0.128-0.215,0.384-0.417c0.256-0.201,0.436-0.457,0.539-0.768
		c0.104-0.311,0.155-0.684,0.155-1.119C131.279,24.583,131.001,24.094,130.446,23.799z M129.074,25.825l-0.065,0.555
		c-0.034,0.284-0.262,0.424-0.654,0.424c-0.076,0-0.163-0.002-0.261-0.008c-0.098-0.005-0.18-0.013-0.245-0.025l0.245-1.585
		c0.087,0,0.223-0.011,0.408-0.016c0.196-0.006,0.343,0.03,0.441,0.09c0.098,0.06,0.147,0.177,0.147,0.351
		C129.09,25.7,129.08,25.77,129.074,25.825"/>
	<path fill="#232322" d="M138.844,29.943c-0.163-0.011-0.311-0.192-0.375-0.555l-1.03-5.85l-1.65,0.016l-2.941,6.143
		c-0.043,0.066-0.087,0.109-0.131,0.131c-0.142,0.098-0.321,0.147-0.539,0.147l-0.327,1.552h3.088l0.228-1.536
		c-0.131-0.011-0.228-0.027-0.294-0.049c-0.206-0.066-0.31-0.18-0.31-0.343c0-0.033,0.011-0.093,0.032-0.18l0.229-0.621h1.503
		l0.164,0.702c-0.033,0.109-0.063,0.192-0.098,0.245c-0.118,0.176-0.289,0.261-0.507,0.261l-0.245,1.486h3.333l0.229-1.536
		C139.127,29.959,139.007,29.954,138.844,29.943z M135.282,27.769l0.654-1.65l0.228,1.667L135.282,27.769"/>
	<path fill="#232322" d="M112.375,28.309h-1.274l-0.54,3.17h1.324l0.228-0.687c0.273,0.273,0.567,0.466,0.883,0.58
		c0.316,0.114,0.686,0.172,1.111,0.172c0.73,0,1.285-0.166,1.667-0.499c0.381-0.332,0.643-0.82,0.784-1.462
		c0.033-0.152,0.049-0.3,0.049-0.441c0-0.468-0.146-0.911-0.441-1.323c-0.249-0.349-0.544-0.612-0.882-0.784
		c-0.239-0.122-0.436-0.216-0.589-0.294c-0.273-0.14-0.528-0.28-0.767-0.416c-0.24-0.136-0.398-0.248-0.474-0.335
		c-0.076-0.087-0.114-0.185-0.114-0.294c0-0.065,0.02-0.129,0.049-0.196c0.134-0.314,0.403-0.474,0.817-0.474
		c0.185,0,0.335,0.033,0.458,0.082c0.542,0.213,0.817,0.621,0.817,1.242h1.242l0.294-2.859l-1.209-0.016l-0.098,0.523
		c-0.359-0.229-0.664-0.389-0.915-0.482c-0.25-0.093-0.566-0.139-0.948-0.139c-0.632,0-1.163,0.144-1.593,0.433
		c-0.43,0.289-0.69,0.733-0.792,1.332c-0.028,0.164-0.049,0.321-0.049,0.474c0,0.588,0.257,1.104,0.768,1.552
		c0.197,0.173,0.428,0.332,0.702,0.458c0.39,0.179,0.794,0.338,1.193,0.523c0.212,0.098,0.368,0.232,0.482,0.368
		c0.114,0.136,0.172,0.302,0.172,0.498c0,0.175-0.057,0.371-0.172,0.589c-0.114,0.218-0.319,0.327-0.613,0.327
		c-0.382,0-0.742-0.152-1.078-0.458C112.494,29.132,112.332,28.744,112.375,28.309"/>
</g>
</svg>
