<?xml version="1.0" encoding="utf-8"?>
<!-- Generator: Adobe Illustrator 17.0.1, SVG Export Plug-In . SVG Version: 6.00 Build 0)  -->
<!DOCTYPE svg PUBLIC "-//W3C//DTD SVG 1.1//EN" "http://www.w3.org/Graphics/SVG/1.1/DTD/svg11.dtd">
<svg version="1.1" id="Capa_1" xmlns="http://www.w3.org/2000/svg" xmlns:xlink="http://www.w3.org/1999/xlink" x="0px" y="0px"
	 width="155px" height="55px" viewBox="0 0 155 55" enable-background="new 0 0 155 55" xml:space="preserve">
<path id="elpaistext" fill="#211E1E" d="M131.256,25.007h2.231v-7.902h-1.798l-1.023,1.568c-1.549-1.097-3.533-2.195-5.889-2.195
	c-3.75,0-7.686,1.881-7.686,6.303c0,8.968,13.823,4.923,13.823,10.285c0,1.505-1.302,2.791-4.029,2.791
	c-4.401,0-6.942-2.258-7.376-6.46h-2.293v8.498h2.107l0.682-1.85c1.798,1.474,4.122,2.477,6.446,2.477
	c4.339,0,8.182-1.631,8.182-6.616c0-8.749-13.822-5.237-13.822-9.94c0-2.069,1.178-2.822,4.06-2.822
	C128.559,19.144,130.512,21.589,131.256,25.007 M105.904,37.895h9.236v-2.32h-1.797c-1.054,0-1.519-0.533-1.519-1.536V20.931
	c0-1.192,0.961-1.505,1.952-1.505h1.363v-2.32h-10.971v2.32h1.736c1.209,0,1.581,0.627,1.581,1.411v13.609
	c0,0.796-0.485,1.109-1.692,1.123c-1.573-0.011-2.599-0.25-3.143-1.688l-6.198-16.776h-4.339l-5.92,16.776
	c-0.527,1.474-1.612,1.693-3.254,1.693v2.32h9.67v-2.32h-2.417c-0.589,0-0.992-0.126-0.992-0.564c0-0.282,0.062-0.471,0.124-0.659
	l1.022-3.136h7.035l1.022,3.136c0.062,0.188,0.124,0.47,0.124,0.753c0,0.314-0.248,0.47-0.961,0.47h-2.448v2.32H105.904z
	 M96.483,28.896h-5.237l2.479-7.557h0.062L96.483,28.896z M86.844,22.812c0-3.543-2.665-5.707-7.314-5.707H67.381v2.32h1.984
	c0.713,0,1.333,0.251,1.333,1.066v14.016c0,0.816-0.62,1.066-1.333,1.066h-1.984v2.32h11.126v-2.32h-1.983
	c-0.713,0-1.488-0.251-1.488-1.066v-6.02h4.866C84.055,28.488,86.844,26.669,86.844,22.812 M82.319,22.843
	c0,2.415-1.55,3.324-4.463,3.324h-2.82v-6.742h2.82C81.079,19.426,82.319,20.429,82.319,22.843 M41.844,37.895h19.37v-8.937h-2.293
	c-0.279,4.86-1.054,6.647-4.246,6.647h-5.052V20.837c0-1.097,0.465-1.411,1.829-1.411h1.735v-2.32H41.844v2.32h1.798
	c1.24,0,1.643,0.408,1.643,1.348v13.421c0,1.066-0.589,1.38-1.457,1.38h-1.983V37.895z M20.366,37.895h20.455v-8.78h-2.294
	c-0.279,4.672-1.395,6.46-4.246,6.46h-6.198v-7.306h1.643c1.86,0,2.696,0.972,2.696,3.512v0.752h2.293V22.06h-2.293v0.408
	c0,2.54-0.837,3.481-2.696,3.481h-1.643v-6.522h5.454c4.153,0,4.525,1.693,4.99,5.958h2.294v-8.278H20.366v2.32h1.395
	c1.611,0,1.984,0.408,1.984,1.756v12.198c0,1.881-0.589,2.195-1.643,2.195h-1.735V37.895"/>
</svg>
