<?xml version="1.0" encoding="utf-8"?>
<!-- Generator: Adobe Illustrator 17.0.1, SVG Export Plug-In . SVG Version: 6.00 Build 0)  -->
<!DOCTYPE svg PUBLIC "-//W3C//DTD SVG 1.1//EN" "http://www.w3.org/Graphics/SVG/1.1/DTD/svg11.dtd">
<svg version="1.1" id="Capa_1" xmlns="http://www.w3.org/2000/svg" xmlns:xlink="http://www.w3.org/1999/xlink" x="0px" y="0px"
	 width="155px" height="55px" viewBox="0 0 155 55" enable-background="new 0 0 155 55" xml:space="preserve">
<g>
	<g id="layer1_2_" transform="translate(-28.611736,-461.94556)">
		<path id="path80" d="M41.234,496.38c0-0.532,0.336-0.246,0.92-0.565c0,0,0.326-0.203,0.326-0.881v-13.301
			c-0.02-1.206,0.126-1.784-0.532-2.13c-0.432-0.193-0.714-0.522-0.711-0.987c0.004-0.412,0.236-0.758,0.572-0.924l3.476-1.435
			c0,0,0.223-0.12,0.698-0.12c0.445,0,0.807,0.349,0.807,0.788v18.109c0,0.678,0.306,0.881,0.306,0.881
			c0.445,0.282,0.724,0.183,0.724,0.565l0.01,0.904c0,0.532-0.435,0.585-0.721,0.585c-0.92,0-1.841-0.017-2.761-0.017
			c-0.924,0-1.469,0.017-2.389,0.017c-0.286,0-0.724-0.054-0.724-0.585L41.234,496.38 M70.867,485.405
			c0,0.788-0.103,1.419,0.369,1.419c0.525,0,1.087-0.156,1.525-0.761c0.545-0.694,0.824-1.917,0.824-3.087
			c0-2.02-0.754-3.994-1.98-3.994c-0.525,0-0.738,0.136-0.738,0.532V485.405L70.867,485.405z M71.462,495.878
			c0.522,0.273,0.947,0.11,0.947,0.492v0.914c0,0.522-0.439,0.585-0.724,0.585c-0.92,0-3.273-0.017-4.197-0.017
			c-0.92,0-1.754,0.017-2.675,0.017c-0.282,0-0.721-0.063-0.721-0.585v-0.914c0-0.522,0.332-0.236,0.92-0.555
			c0,0,0.611-0.375,0.611-1.053v-13.603c-0.02-1.216,0.123-1.784-0.532-2.14c-0.276-0.156-0.429-0.219-0.429-0.219
			c-0.322-0.12-0.425-0.276-0.425-0.631v-0.738c0.004-0.402,0.106-0.621,0.429-0.621h7.101c2.658,0.027,3.861,0.611,4.931,1.359
			c1.332,0.934,2.359,2.688,2.359,3.994c0,2.22-1.183,4.522-2.884,5.174c-0.256,0.153-0.302,0.282-0.302,0.502
			c0,0.11,0.037,0.219,0.093,0.299c0.259,0.449,0.768,1.445,0.99,2.01l1.645,4.05c0.548,1.206,0.668,1.618,1.489,1.901
			c0.465,0.236,0.402,0.548,0.402,0.548v0.758c0,0.429-0.475,0.459-0.475,0.459h-4.333c-0.595,0-0.851,0.1-1.226-0.658
			c0,0-1.98-3.628-3.03-7.742c-0.1-0.402-0.342-0.356-0.342-0.356c-0.272,0-0.299,0.276-0.299,0.276v5.38
			C70.784,495.639,71.462,495.878,71.462,495.878 M94.768,493.008c0,1.535-0.08,3.316,1.027,3.316c0.572,0,1.023-0.92,1.263-1.828
			c0.239-0.93,0.332-1.934,0.332-2.941c0-1.917-0.545-4.705-1.758-4.705c-0.253,0-0.572,0.173-0.731,0.555
			c-0.133,0.302-0.133,0.807-0.133,1.153V493.008L94.768,493.008z M94.781,499.926c0,0.668,0.316,0.877,0.316,0.877
			c0.445,0.282,1.1,0.209,1.1,0.595l0.006,0.877c0,0.522-0.439,0.585-0.721,0.585c-0.924,0-2.226-0.02-3.147-0.02
			c-0.92,0-1.469,0.02-2.389,0.02c-0.286,0-0.721-0.063-0.721-0.585l-0.006-0.877c0-0.522,0.336-0.266,0.924-0.575
			c0,0,0.329-0.229,0.329-0.897v-10.782c-0.02-1.216,0.123-1.781-0.532-2.14c-0.432-0.179-0.714-0.399-0.711-0.867
			c0.004-0.409,0.233-0.758,0.568-0.92l3.479-1.465c0,0,0.223-0.116,0.694-0.116c0.445,0,0.724,0.256,0.784,0.648
			c0,0.156,0.13,0.282,0.286,0.282c0.09,0,0.173-0.043,0.226-0.11c0.472-0.548,1.359-0.877,2.04-0.857
			c3.117,0.083,4.589,3.672,4.589,6.752c0,5.911-3.469,7.905-6.443,7.649c-0.203-0.02-0.312-0.01-0.535-0.03
			c0,0-0.11-0.027-0.136,0.066v1.864 M113.492,496.36c0-0.382-0.276-0.263-0.721-0.545c0,0-0.316-0.093-0.316-0.881v-10.679
			c0-0.256-0.209-0.475-0.468-0.469c-1.661,0.083-4.207,0.515-4.207,0.515c-0.286,0.043-0.475,0.226-0.475,0.492v0.804
			c0,0.156,0.076,0.292,0.196,0.375c0,0,0.209,0.156,0.342,0.246c0.655,0.356,0.512,1.708,0.528,2.924v5.127
			c0,0.1-0.04,0.199-0.106,0.262c-0.243,0.286-0.568,0.515-0.568,0.515c-0.146,0.106-0.329,0.173-0.525,0.173
			c-0.485,0-0.881-0.385-0.881-0.861v-10.105c0-0.256-0.209-0.475-0.472-0.469c-1.658,0.083-4.203,0.515-4.203,0.515
			c-0.286,0.043-0.475,0.226-0.475,0.492v0.804c0,0.156,0.076,0.292,0.196,0.375c0,0,0.206,0.156,0.339,0.246
			c0.655,0.356,0.512,1.708,0.532,2.924v6.141c0,1.628,1.342,2.944,3,2.944c0.415,0,0.721-0.083,1.083-0.229
			c0.635-0.246,1.562-1.087,1.562-1.087c0.04-0.037,0.086-0.056,0.15-0.056c0.123,0,0.223,0.1,0.223,0.219v0.877
			c0,0.166,0.133,0.292,0.296,0.292c0.92,0,3.18-0.329,4.25-0.485c0.282-0.046,0.721-0.146,0.721-0.585L113.492,496.36
			 M136.193,496.37c0-0.522,0.336-0.246,0.924-0.555c0,0,0.326-0.213,0.326-0.881v-13.301c-0.02-1.216,0.123-1.784-0.532-2.14
			c-0.432-0.183-0.714-0.522-0.711-0.987c0.004-0.402,0.236-0.758,0.568-0.924l3.479-1.432c0,0,0.219-0.12,0.694-0.12
			c0.445,0,0.807,0.356,0.807,0.794l0.004,18.109c0,0.668,0.306,0.881,0.306,0.881c0.445,0.282,0.721,0.173,0.721,0.555l0.013,0.914
			c0,0.522-0.439,0.585-0.724,0.585c-0.92,0-1.841-0.017-2.761-0.017c-0.92,0-1.469,0.017-2.389,0.017
			c-0.286,0-0.721-0.063-0.721-0.585L136.193,496.37 M53.864,489.153c-1.303,0.585-1.711,0.774-2.452,1.143
			c-1.136,0.565-2.166,1.176-2.735,1.828c-0.714,0.811-1.013,1.572-0.94,2.924c0.12,2.173,1.764,2.961,3.08,2.961
			c2.17,0,2.831-1.18,3.077-1.352c0,0,0.113-0.166,0.186,0c0.475,1.067,1.442,1.323,2.296,1.323c0.92,0,2.356-0.492,2.874-1.442
			c0.05-0.093,0.08-0.302,0.08-0.302v-1.332c0-0.156-0.047-0.385-0.282-0.349c-0.263,0.037-0.508,0.302-0.751,0.302
			c-0.047,0-0.193-0.027-0.209-0.14v-7.848c0-1.013-0.133-1.572-0.854-2.283c-0.987-0.977-2.921-1.236-3.821-1.236
			c-1.425,0-3.569,0.449-4.642,1.711c-0.572,0.674-0.884,2.565-0.405,3.698c0.113,0.266,0.435,0.103,0.435,0.103l3.12-0.997
			c0.256-0.156,0.156-0.392,0.156-0.392c-0.056-0.339-0.09-1.033-0.09-1.033c0-0.595,0.272-1.233,1.063-1.233
			c0.548,0,0.787,0.329,0.814,0.804V489.153 M53.864,491.472v2.761c0,0-0.013,0.419-0.442,0.565c0,0-0.675,0.166-1.073-0.1
			c0,0-0.445-0.266-0.445-1.18c0,0-0.027-0.821,0.475-1.316c0,0,0.312-0.372,1.083-0.894
			C53.462,491.31,53.864,491.07,53.864,491.472 M89.501,494.26c-0.056,0.621-1.097,2.01-1.425,2.283
			c-1.073,1.017-2.323,1.545-3.638,1.545c-3.09,0-5.612-3.17-5.612-7.529c0-4.057,2.828-7.127,5.831-7.127
			c1.14,0,2.475,0.422,3.396,1.399c0.744,0.768,1.449,2.678,1.475,4.001c0.017,0.99-0.226,0.97-0.572,0.97h-4.472
			c-0.947,0-1.166-0.093-1.166,0.768c0,2.366,0.95,4.24,2.791,4.14c1.259-0.073,1.681-1.409,2.206-1.409c0,0,0.173,0.01,0.286,0.093
			l0.787,0.648C89.388,494.041,89.518,494.124,89.501,494.26z M85.079,486.292c-0.063-0.565-0.498-0.967-0.894-0.967
			c-0.478,0-0.734,0.419-0.847,0.967c-0.189,0.904-0.199,1.552-0.199,1.552c0,0.229,0.193,0.422,0.425,0.422h1.173
			c0.236,0,0.415-0.193,0.425-0.422C85.201,486.96,85.079,486.292,85.079,486.292 M113.887,496.536
			c-0.08-0.063-0.126-0.12-0.126-0.203l-0.006-14.7c-0.02-1.216,0.126-1.784-0.528-2.14c-0.435-0.183-0.718-0.522-0.711-0.987
			c0-0.402,0.233-0.748,0.568-0.914l3.476-1.442c0,0,0.223-0.12,0.695-0.12c0.449,0,0.811,0.356,0.811,0.794v7.373
			c0,0.156,0.13,0.282,0.286,0.282c0.09,0,0.173-0.043,0.226-0.106c0.532-0.704,1.362-1.053,2.04-1.033
			c3.117,0.09,4.589,3.08,4.589,7.008c0,4.851-3.263,7.649-6.443,7.649C117.24,497.998,115.037,497.523,113.887,496.536
			L113.887,496.536z M118.077,492.845c0,1.535-0.08,3.316,1.023,3.316c0.575,0,1.027-0.934,1.266-1.837
			c0.239-0.93,0.332-1.937,0.332-2.941c0-1.911-0.545-4.698-1.758-4.698c-0.253,0-0.572,0.176-0.731,0.548
			c-0.133,0.302-0.133,0.804-0.133,1.163V492.845 M129.866,492.845c0,1.535-0.08,3.316,1.023,3.316c0.575,0,1.027-0.934,1.266-1.837
			c0.239-0.93,0.332-1.937,0.332-2.941c0-1.911-0.545-4.698-1.758-4.698c-0.253,0-0.572,0.176-0.731,0.548
			c-0.133,0.302-0.133,0.804-0.133,1.163V492.845z M125.676,496.536c-0.08-0.056-0.126-0.12-0.126-0.203l-0.006-14.7
			c-0.02-1.216,0.123-1.784-0.532-2.14c-0.432-0.183-0.714-0.522-0.711-0.987c0.004-0.402,0.236-0.748,0.572-0.914l3.476-1.442
			c0,0,0.223-0.12,0.694-0.12c0.449,0,0.811,0.356,0.811,0.794v7.373c0,0.156,0.13,0.282,0.286,0.282
			c0.086,0,0.173-0.043,0.226-0.106c0.532-0.704,1.359-1.053,2.04-1.033c3.113,0.09,4.589,3.08,4.589,7.008
			c0,4.851-3.263,7.649-6.443,7.649C129.029,497.998,126.823,497.523,125.676,496.536 M146.474,481.029
			c1.386,0,2.509-1.107,2.509-2.459c0-1.359-1.123-2.456-2.509-2.456c-1.386,0-2.505,1.096-2.505,2.456
			C143.968,479.922,145.088,481.029,146.474,481.029 M144.038,495.815c-0.585,0.309-0.92,0.033-0.92,0.555 M144.364,494.935
			c0,0.668-0.326,0.881-0.326,0.881c-0.585,0.309-0.92,0.033-0.92,0.555v0.914c0,0.522,0.435,0.585,0.721,0.585
			c0.92,0,1.469-0.017,2.389-0.017s1.841,0.017,2.761,0.017c0.286,0,0.721-0.063,0.721-0.585v-0.914
			c0-0.382-0.276-0.282-0.721-0.555c0,0-0.316-0.213-0.316-0.881l-0.004-10.596c0-0.439-0.362-0.797-0.807-0.797
			c-0.472,0-0.694,0.12-0.694,0.12l-3.479,1.435c-0.332,0.163-0.565,0.518-0.568,0.921c-0.004,0.468,0.279,0.807,0.711,0.987
			c0.655,0.359,0.512,0.924,0.532,2.14L144.364,494.935 M165.523,489.143c-1.303,0.595-1.711,0.784-2.452,1.153
			c-1.136,0.555-2.166,1.176-2.735,1.828c-0.714,0.811-1.013,1.562-0.94,2.924c0.12,2.173,1.764,2.951,3.08,2.951
			c2.17,0,2.831-1.18,3.077-1.342c0,0,0.113-0.176,0.186,0c0.475,1.067,1.442,1.313,2.296,1.313c0.92,0,2.356-0.482,2.874-1.432
			c0.05-0.093,0.08-0.312,0.08-0.312v-1.332c0-0.156-0.047-0.375-0.286-0.349c-0.259,0.037-0.505,0.302-0.748,0.302
			c-0.046,0-0.193-0.027-0.209-0.13v-7.848c0-1.013-0.133-1.578-0.854-2.283c-0.99-0.977-2.921-1.243-3.821-1.243
			c-1.425,0-3.569,0.445-4.642,1.718c-0.568,0.668-0.884,2.559-0.405,3.692c0.113,0.262,0.435,0.1,0.435,0.1l3.12-0.997
			c0.256-0.153,0.156-0.392,0.156-0.392c-0.056-0.339-0.09-1.023-0.09-1.023c0-0.605,0.276-1.233,1.063-1.233
			c0.548,0,0.784,0.329,0.814,0.804L165.523,489.143 M165.523,491.473v2.761c0,0-0.013,0.419-0.445,0.558
			c0,0-0.668,0.173-1.07-0.093c0,0-0.445-0.272-0.445-1.18c0,0-0.027-0.831,0.472-1.316c0,0,0.316-0.382,1.087-0.904
			C165.121,491.3,165.523,491.06,165.523,491.473 M157.615,493.739c0,0,0.093-0.246,0.329-0.136l1.073,0.788c0,0,0.15,0.183,0,0.545
			c0,0-0.379,1.063-1.299,1.911c-0.97,0.907-2.09,1.236-3.253,1.236c-3.097,0-5.586-2.824-5.31-7.377
			c0.286-4.688,2.924-7.107,6.121-7.274c0.854-0.043,1.761,0.156,2.658,0.871c0,0,1.266,1.04,1.266,2.658
			c0,1.113-0.871,2.02-1.94,2.02c-1.073,0-2.06-0.98-2.13-2.522c0,0-0.017-0.625-0.302-1.007c0,0-0.106-0.173-0.302-0.173
			c0,0-0.199-0.073-0.415,0.256c0,0-0.708,0.94-0.708,3.097c0,2.824,0.143,6.197,2.598,6.197
			C156,494.828,157.113,494.935,157.615,493.739"/>
	</g>
</g>
</svg>
