<?xml version="1.0" encoding="utf-8"?>
<!-- Generator: Adobe Illustrator 17.0.1, SVG Export Plug-In . SVG Version: 6.00 Build 0)  -->
<!DOCTYPE svg PUBLIC "-//W3C//DTD SVG 1.1//EN" "http://www.w3.org/Graphics/SVG/1.1/DTD/svg11.dtd">
<svg version="1.1" id="Capa_1" xmlns="http://www.w3.org/2000/svg" xmlns:xlink="http://www.w3.org/1999/xlink" x="0px" y="0px"
	 width="155px" height="55px" viewBox="0 0 155 55" enable-background="new 0 0 155 55" xml:space="preserve">
<g id="g1954">
	<rect id="_46583104" x="13.73" y="15.051" fill="#3275B4" width="127.539" height="24.897"/>
	<g id="_48240616" transform="matrix(3.543307e-5,0,0,3.543307e-5,3.330078e-6,-4.052735e-7)">
		<path id="_48862888" fill="#FFFFFF" d="M18.23,21.248h7.931v2.655h-0.975c-0.463,0-0.604,0.172-0.604,0.625v5.983
			c0,0.288,0.244,0.554,0.638,0.554h2.287c0.302,0,0.671-0.209,0.671-0.629v-2.143h3.167v5.426H18.23v-2.645h0.924
			c0.431,0,0.662-0.145,0.662-0.576v-5.971c0-0.383-0.079-0.625-0.603-0.625H18.23V21.248L18.23,21.248z"/>
		<path id="_97726904" fill="#FFFFFF" d="M32.727,21.248h13.045v4.007h-3.264v-0.667c0-0.408-0.207-0.685-0.84-0.685h-2.845v2.251
			h3.072v2.418h-3.072v2.493h2.976c0.394,0,0.709-0.236,0.709-0.683v-0.68h3.264v4.018H32.727v-2.645h0.705
			c0.376,0,0.627-0.154,0.627-0.526v-5.993c0-0.402-0.064-0.653-0.587-0.653h-0.745V21.248z"/>
		<path id="_48441456" fill="#FFFFFF" d="M52.267,21.248H65.62v4.007h-3.266v-0.68c0-0.362-0.226-0.671-0.726-0.671h-2.958v2.251
			h2.738v2.418h-2.738v1.803c0,0.498,0.217,0.701,0.87,0.701h1.038v2.645h-8.309v-2.645h1.098c0.318,0,0.539-0.212,0.539-0.526
			v-5.993c0-0.377-0.063-0.653-0.587-0.653h-1.051V21.248L52.267,21.248z"/>
		<path id="_98112512" fill="#FFFFFF" d="M73.181,24.529c0-0.47,0.144-0.625,0.604-0.625h0.982v-2.656H66.88v2.656h1.005
			c0.526,0,0.604,0.239,0.604,0.625v5.984c0,0.463-0.286,0.563-0.622,0.563H66.88v2.645h7.886v-2.645h-0.964
			c-0.383,0-0.621-0.148-0.621-0.577V24.529z"/>
		<path id="_110674144" fill="#FFFFFF" d="M86.675,21.248h2.793v4.386h-2.806c0,0-0.81-1.92-3.076-1.92
			c-1.704,0-3.024,1.216-3.024,3.47c0,3.81,2.124,4.131,3.05,4.131c1.886,0,2.322-1.325,2.322-1.86h-1.755v-2.298h6.045
			c0,0-0.018,0.935-0.027,1.603c-0.005,0.32-0.316,5.18-7.09,5.18c-4.881,0-7.444-2.763-7.444-6.703c0-2.62,2.067-6.177,7.031-6.177
			c2.781,0,3.981,1.125,3.981,1.125V21.248z"/>
		<path id="_100657312" fill="#FFFFFF" d="M96.441,27.728l1.239-3.667h0.04l1.186,3.667H96.441L96.441,27.728z M105,31.076
			c-0.541,0-0.705-0.476-1.03-1.246c-0.266-0.632-3.33-8.582-3.33-8.582h-4.858c0,0-3.293,8.836-3.45,9.213
			c-0.18,0.44-0.461,0.615-0.948,0.615h-0.702v2.645h5.937v-2.515h-0.821c-0.356,0-0.433-0.271-0.317-0.645
			c0.135-0.437,0.375-1.121,0.375-1.121h3.609c0,0,0.201,0.62,0.385,1.182c0.139,0.426-0.316,0.584-0.586,0.584h-0.703v2.515h7.152
			v-2.645H105z"/>
		<path id="_47447768" fill="#FFFFFF" d="M114.81,26.302h-1.72v-2.567h1.875c0.545,0,1.519,0.191,1.519,1.309
			C116.484,25.878,115.851,26.302,114.81,26.302z M121.773,31.076c-0.486,0-0.567-0.231-0.809-0.551
			c-0.243-0.321-1.755-2.646-1.755-2.646s2.213-0.616,2.213-2.941c0-2.325-1.97-3.154-2.806-3.368
			c-0.838-0.213-2.647-0.323-3.132-0.323h-2.429h-6.185v2.656h0.851c0.532,0,0.603,0.262,0.603,0.625v5.927
			c0,0.261-0.041,0.62-0.631,0.62h-0.824v2.645h7.588v-2.645h-0.775c-0.53,0-0.595-0.288-0.595-0.602V28.46h1.694l3.103,5.26h4.758
			v-2.645H121.773z"/>
		<path id="_95161752" fill="#FFFFFF" d="M129.74,31.314c-1.163,0-2.384-0.684-2.384-4.161c0-2.139,0.828-3.471,2.248-3.471
			c1.34,0,2.321,0.885,2.321,3.714C131.925,30.459,130.907,31.314,129.74,31.314z M129.654,21.06c-5.283,0-7.198,3.501-7.198,6.31
			c0,3.724,2.644,6.568,7.145,6.568c4.012,0,7.169-2.165,7.169-6.408C136.77,23.492,133.761,21.06,129.654,21.06L129.654,21.06z"/>
	</g>
</g>
</svg>
