<?xml version="1.0" encoding="utf-8"?>
<!-- Generator: Adobe Illustrator 17.0.1, SVG Export Plug-In . SVG Version: 6.00 Build 0)  -->
<!DOCTYPE svg PUBLIC "-//W3C//DTD SVG 1.1//EN" "http://www.w3.org/Graphics/SVG/1.1/DTD/svg11.dtd">
<svg version="1.1" id="Capa_1" xmlns="http://www.w3.org/2000/svg" xmlns:xlink="http://www.w3.org/1999/xlink" x="0px" y="0px"
	 width="155px" height="55px" viewBox="0 0 155 55" enable-background="new 0 0 155 55" xml:space="preserve">
<g>
	<path id="path6_1_" d="M21.114,18.502c-0.121,0.006-0.238,0.037-0.351,0.109c0.466,0.093,1.012,0.156,1.307,0.581
		c0.147,0.157,0.102,0.397-0.046,0.535c-0.279,0.332-0.758,0.437-1.167,0.33c-1.388-0.328-2.701-0.965-4.128-1.131
		c-0.764-0.101-1.511,0.267-2.038,0.798c-0.487,0.488-0.664,1.229-0.567,1.899c0.108,0.53,0.5,1.08,1.068,1.158
		c-0.336-0.365-0.4-0.999-0.052-1.379c0.197-0.245,0.547-0.278,0.839-0.233c1.106,0.206,2.183,0.538,3.286,0.762
		c0.617,0.168,1.227,0.369,1.859,0.483c0.011,0.754,0.011,1.508,0,2.262c-0.407,0.304-0.796,0.632-1.196,0.946
		c0.389,0.291,0.79,0.564,1.192,0.837c0.026,1.067-0.004,2.133,0.015,3.2c-0.658,0.508-1.539,0.591-2.34,0.497
		c-0.85-0.047-1.605-0.554-2.162-1.169c0.934-0.498,1.885-0.968,2.84-1.425c0.034-1.682,0.006-3.364,0.015-5.047
		c-1.193,0.5-2.375,1.028-3.564,1.536c0.344-0.879,1.043-1.592,1.878-2.015c-0.218,0.013-0.446-0.003-0.649,0.092
		c-1.562,0.617-2.849,1.942-3.333,3.559c-0.324,1.027-0.22,2.15,0.132,3.154c0.436,1.117,1.241,2.106,2.309,2.67
		c0.6,0.31,1.245,0.601,1.933,0.609c1.423,0.118,2.921-0.419,3.882-1.49c0.419-0.45,0.631-1.037,0.839-1.605
		c0.193-0.559,0.28-1.155,0.26-1.746c-0.461,0.914-1.074,1.772-1.91,2.378c0.005-1.063-0.002-2.125,0.002-3.188
		c0.364-0.277,0.729-0.554,1.081-0.846c-0.361-0.32-0.721-0.64-1.081-0.961c0.002-0.747-0.002-1.496,0-2.243
		c0.814-0.043,1.75-0.472,1.969-1.326c0.153-0.557,0.233-1.217-0.109-1.721c-0.314-0.358-0.721-0.668-1.2-0.755
		C21.66,18.593,21.38,18.489,21.114,18.502z M17.307,23.627c-0.003,1.62,0.01,3.24-0.006,4.86c-0.27,0.106-0.536,0.222-0.802,0.34
		c-0.491-0.71-0.795-1.545-0.936-2.393c-0.038-0.716,0.095-1.441,0.344-2.113C16.378,24.096,16.838,23.854,17.307,23.627z"/>
	<path id="path8_1_" d="M110.636,18.502c-0.131-0.004-0.259,0.022-0.38,0.109c0.275,0.063,0.566,0.091,0.823,0.22
		c0.229,0.11,0.381,0.338,0.46,0.573c0.043,0.254-0.144,0.489-0.367,0.585c-0.4,0.185-0.855,0.099-1.263-0.011
		c-0.978-0.3-1.93-0.687-2.928-0.921c-0.513-0.109-1.05-0.212-1.568-0.076c-0.562,0.158-1.132,0.427-1.463,0.928
		c-0.428,0.552-0.482,1.312-0.273,1.962c0.172,0.433,0.52,0.859,1.012,0.915c-0.16-0.206-0.437-0.415-0.357-0.709
		c0.044-0.292,0.165-0.588,0.399-0.777c0.234-0.177,0.554-0.174,0.825-0.096c0.995,0.185,1.966,0.464,2.949,0.697
		c0.666,0.141,1.306,0.39,1.977,0.514c0.011,0.751,0.003,1.502,0.006,2.254c-0.361,0.319-0.721,0.637-1.077,0.961
		c0.359,0.277,0.712,0.562,1.075,0.833c0.005,1.069-0.002,2.139,0.006,3.209c-0.631,0.473-1.462,0.589-2.227,0.483
		c-0.846-0.05-1.585-0.559-2.147-1.161c0.23-0.16,0.493-0.264,0.741-0.393c0.698-0.344,1.388-0.704,2.092-1.035
		c0.022-1.683,0.003-3.367,0.01-5.051c-1.186,0.505-2.363,1.034-3.553,1.528c0.272-0.646,0.707-1.236,1.291-1.631
		c0.175-0.16,0.352-0.327,0.592-0.382c-0.24,0.017-0.488,0.009-0.707,0.12c-1.677,0.678-3.107,2.159-3.423,3.977
		c-0.12,0.923-0.034,1.882,0.288,2.756c0.413,1.027,1.141,1.939,2.088,2.521c0.453,0.276,0.94,0.498,1.448,0.651
		c1.216,0.202,2.521,0.028,3.585-0.619c0.702-0.49,1.354-1.125,1.648-1.948c0.316-0.699,0.442-1.463,0.458-2.225
		c-0.147,0.192-0.233,0.42-0.357,0.625c-0.404,0.678-0.927,1.293-1.564,1.763c0.008-1.066-0.01-2.132,0.01-3.198
		c0.361-0.261,0.699-0.551,1.062-0.81c-0.335-0.347-0.714-0.646-1.07-0.97c-0.007-0.747,0.008-1.495-0.008-2.243
		c0.699-0.045,1.406-0.359,1.782-0.972c0.391-0.63,0.389-1.489,0.011-2.124c-0.297-0.393-0.764-0.646-1.247-0.718
		C111.08,18.597,110.854,18.508,110.636,18.502L110.636,18.502z M106.798,23.625c0.009,1.617,0,3.233,0.004,4.85
		c-0.276,0.115-0.548,0.237-0.823,0.353c-0.399-0.561-0.709-1.192-0.869-1.862c-0.176-0.879-0.13-1.831,0.279-2.642
		C105.862,24.098,106.329,23.861,106.798,23.625L106.798,23.625z"/>
	<path id="path10_1_" d="M49.973,19.04c0.455,0.798,0.17,1.879-0.515,2.453c-0.421,0.274-0.905,0.426-1.38,0.579
		c0.011,3.263,0.002,6.526,0.003,9.789c0.034,0.149-0.103,0.266-0.244,0.206c-0.277-0.013-0.351-0.306-0.468-0.503
		c-1.707-3.139-3.396-6.288-5.116-9.42c-0.033,2.304-0.001,4.61-0.016,6.914c0.813,0.154,1.605,0.546,2.136,1.192
		c0.247-0.191,0.406-0.527,0.723-0.604c-0.08,0.146-0.197,0.266-0.309,0.388c-0.615,0.681-1.229,1.365-1.843,2.047
		c-0.285-0.359-0.665-0.7-1.14-0.749c-0.313-0.012-0.674,0.004-0.902,0.251c-0.262,0.234-0.438,0.628-0.251,0.962
		c0.219,0.479,0.771,0.609,1.236,0.724c-0.581,0.115-1.231,0.047-1.699-0.342c-0.373-0.319-0.711-0.723-0.808-1.216
		c-0.131-0.68,0.073-1.436,0.581-1.918c0.555-0.549,1.37-0.754,2.133-0.711c0.021-1.004,0.011-2.008,0.005-3.012
		c-0.371-0.059-0.876-0.006-1.048,0.381c-0.1,0.314,0.135,0.578,0.368,0.75c-0.289-0.05-0.61-0.105-0.818-0.329
		c-0.246-0.303-0.437-0.662-0.508-1.048c-0.071-0.497,0.06-1.064,0.474-1.385c0.433-0.335,1.01-0.381,1.539-0.369
		c0-0.708,0-1.415,0-2.123c-0.192-0.288-0.376-0.618-0.705-0.767c-0.215-0.089-0.497-0.121-0.682,0.047
		c-0.257,0.218-0.319,0.564-0.42,0.867c-0.099-0.74-0.024-1.58,0.494-2.161c0.627-0.811,1.952-0.841,2.638-0.091
		c0.296,0.305,0.5,0.681,0.701,1.051c1.268,2.259,2.512,4.532,3.793,6.783c0.008-1.867,0.011-3.735-0.002-5.601
		c-0.22-0.086-0.465-0.083-0.689-0.161c-0.417-0.11-0.765-0.379-1.074-0.67c-0.193,0.226-0.387,0.452-0.566,0.688
		c-0.042-0.023-0.125-0.068-0.167-0.091c0.657-0.828,1.362-1.619,2.045-2.426c0.358,0.377,0.826,0.686,1.359,0.721
		C49.386,20.072,49.934,19.626,49.973,19.04L49.973,19.04z"/>
	<path id="path12_1_" d="M92.625,20.847c0.917-0.598,1.832-1.2,2.752-1.793c0.008,3.525-0.007,7.052,0.008,10.577
		c0.199,0.27,0.47,0.493,0.711,0.73c0.151-0.162,0.309-0.317,0.465-0.474c0.037,0.037,0.11,0.11,0.147,0.146
		c-0.734,0.636-1.446,1.297-2.184,1.927c-0.465-0.478-0.947-0.938-1.408-1.418c-0.207,0.184-0.397,0.386-0.591,0.582
		c-0.04-0.031-0.119-0.092-0.159-0.123c0.352-0.337,0.73-0.646,1.086-0.98c-0.003-2.672,0.002-5.344-0.003-8.015
		C93.439,21.508,93.184,20.909,92.625,20.847z"/>
	<path id="path14_1_" d="M24.162,20.951c0.789-0.588,1.563-1.198,2.353-1.784c0.004,1.942-0.001,3.885,0.002,5.828
		c0.669-0.552,1.342-1.096,2.004-1.656c0.531,0.551,1.027,1.136,1.574,1.67c0.231-0.166,0.468-0.323,0.71-0.471
		c-0.044,0.308-0.412,0.413-0.603,0.628c0.002,1.062,0,2.123,0.001,3.185c0.015,0.794-0.099,1.582-0.123,2.376
		c-0.036,0.86-0.37,1.74-1.041,2.304c-0.546,0.487-1.291,0.663-2.003,0.722c-0.012,0.017-0.038,0.051-0.051,0.069l0.019-0.063
		c-0.245,0-0.49-0.009-0.734-0.028c0.307-0.159,0.655-0.261,0.897-0.523c0.278-0.31,0.602-0.606,0.739-1.012
		c0.224-0.619,0.231-1.286,0.253-1.935c-0.006-1.456,0.007-2.912-0.007-4.367c-0.324-0.423-0.712-0.795-1.056-1.203
		c-0.188,0.201-0.413,0.37-0.575,0.593c-0.013,1.502-0.002,3.005-0.005,4.507c0.195,0.194,0.389,0.39,0.585,0.582
		c0.157-0.158,0.315-0.317,0.472-0.476c0.035,0.034,0.105,0.103,0.14,0.138c-0.764,0.598-1.521,1.204-2.285,1.801
		c-0.484-0.429-0.956-0.871-1.432-1.309c-0.16,0.119-0.319,0.24-0.48,0.358c-0.034-0.036-0.102-0.108-0.136-0.144
		c0.367-0.236,0.727-0.483,1.09-0.724c-0.001-2.671-0.001-5.342,0-8.013c-0.008-0.204,0.002-0.424-0.105-0.606
		c-0.071-0.139-0.232-0.183-0.351-0.267C23.987,21.044,24.114,21.006,24.162,20.951L24.162,20.951z"/>
	<path id="path16_2_" d="M76.787,19.533c-0.718,0.581-1.42,1.181-2.132,1.771c-0.008-0.556,0.01-1.111-0.01-1.668
		c-0.11-0.005-0.159,0.044-0.143,0.149c-0.004,3.932,0.001,7.863-0.002,11.795c-0.388-0.074-0.777-0.152-1.161-0.239
		c-0.006-3.316,0-6.631-0.002-9.948c-0.008-0.419-0.144-0.841-0.42-1.161c-0.344-0.407-0.881-0.596-1.4-0.632
		c-0.615-0.018-1.179,0.306-1.608,0.722c-0.395,0.375-0.607,0.955-0.495,1.494c0.048-0.334,0.157-0.71,0.464-0.896
		c0.337-0.144,0.786-0.028,0.988,0.288c0.173,0.255,0.19,0.574,0.197,0.873c0.002,0.896-0.001,1.793,0,2.69
		c-0.591,0.009-1.29,0.105-1.631,0.653c-0.344,0.429-0.45,1.038-0.214,1.543c0.155,0.5,0.675,0.757,1.158,0.837
		c-0.27-0.175-0.546-0.483-0.386-0.825c0.215-0.344,0.703-0.394,1.066-0.294c0.015,1.591,0.008,3.181,0.004,4.772
		c-0.542,0.189-1.07,0.518-1.36,1.03c-0.211,0.364-0.216,0.8-0.199,1.209c0.065,0.717,0.538,1.371,1.173,1.698
		c0.48,0.225,1.02,0.232,1.54,0.214c1.475-0.088,2.876-0.673,4.353-0.722c0.44-0.033,0.698,0.453,0.583,0.835
		c-0.088,0.345-0.377,0.578-0.649,0.779c0.519-0.11,1.035-0.305,1.44-0.657c0.457-0.387,0.667-1.012,0.638-1.599
		c-0.034-0.581-0.503-1.013-0.989-1.263c-0.641-0.376-1.415-0.292-2.12-0.216c-1.325,0.153-2.616,0.573-3.954,0.609
		c-0.454,0.031-0.878-0.291-0.968-0.735c-0.102-0.429,0.246-0.803,0.598-0.988c0.763-0.36,1.64-0.227,2.435-0.059
		c0.922,0.096,1.788,0.473,2.711,0.567c0.524,0.06,1.081-0.041,1.511-0.359c0.443-0.274,0.643-0.806,0.655-1.308
		c0.005-3.13-0.006-6.259,0.006-9.389c0.286-0.248,0.601-0.471,0.85-0.758c-0.348,0.086-0.567,0.413-0.852,0.613
		C77.895,20.49,77.344,20.009,76.787,19.533L76.787,19.533z M75.224,21.115c0.321,0.275,0.637,0.555,0.957,0.833
		c0.001,0.986-0.002,1.971,0,2.957c-0.152,0.15-0.318,0.308-0.541,0.336c-0.362,0.076-0.715-0.103-0.988-0.327
		c0.002-1.151,0.001-2.301,0-3.452C74.844,21.348,75.035,21.233,75.224,21.115L75.224,21.115z M74.653,25.187
		c0.469,0.238,1.073,0.311,1.528,0.002c-0.002,0.447-0.002,0.896,0,1.343c-0.185-0.18-0.423-0.324-0.688-0.323
		c-0.312-0.007-0.598,0.14-0.84,0.323C74.655,26.084,74.652,25.636,74.653,25.187L74.653,25.187z M75.49,26.351
		c0.303,0.008,0.535,0.233,0.691,0.472c-0.002,1.248,0.001,2.496,0,3.744c0.024,0.383-0.239,0.71-0.527,0.93
		c-0.278,0.221-0.656,0.228-0.993,0.21c-0.019-1.63-0.001-3.262-0.008-4.892C74.872,26.577,75.148,26.346,75.49,26.351z"/>
	<path id="path18_1_" d="M113.106,21.567c0.495-0.434,0.961-0.9,1.467-1.322c0.428,0.452,0.879,0.881,1.313,1.326
		c-0.522,0.488-1.047,0.973-1.576,1.453C113.911,22.536,113.5,22.059,113.106,21.567L113.106,21.567z"/>
	<path id="path22_1_" d="M55.961,22.032c0.309-0.212,0.701-0.199,1.058-0.245c-0.27,0.213-0.569,0.461-0.606,0.828
		c-0.06,0.329,0.147,0.624,0.39,0.821c0.441,0.353,1.007,0.55,1.366,1.002c0.173,0.219,0.277,0.495,0.27,0.776
		c-0.002,1.482,0.002,2.964-0.002,4.445c0.394,0.319,0.79,0.633,1.184,0.952c0.115-0.074,0.229-0.148,0.345-0.222
		c-0.005-1.618,0.008-3.236-0.007-4.853c-0.202-0.239-0.483-0.41-0.714-0.623c0.568-0.523,1.125-1.061,1.705-1.571
		c0.504,0.495,1.035,0.964,1.552,1.445c-0.196,0.209-0.399,0.41-0.606,0.607c-0.004,1.422,0,2.844-0.002,4.266
		c0.517,0.4,1.033,0.802,1.555,1.196c0.073-0.043,0.147-0.085,0.223-0.127c-0.008-1.737,0.001-3.473-0.005-5.209
		c-0.239-0.204-0.487-0.399-0.723-0.607c0.558-0.527,1.122-1.045,1.683-1.569c0.559,0.437,1.118,0.874,1.673,1.315
		c0.193-0.212,0.39-0.423,0.61-0.609c0.028,0.04,0.086,0.122,0.115,0.163c-0.475,0.423-0.947,0.852-1.408,1.291
		c-0.04,1.385-0.001,2.774-0.019,4.159c-1.21,0.795-2.473,1.52-3.7,2.293c-0.647-0.464-1.276-0.953-1.915-1.427
		c-0.573,0.461-1.147,0.922-1.724,1.378c-0.083,0.092-0.167-0.042-0.235-0.08c-0.539-0.433-1.076-0.87-1.622-1.294
		c-0.229,0.2-0.47,0.387-0.7,0.588c-0.037-0.035-0.108-0.105-0.145-0.139c0.28-0.194,0.555-0.398,0.835-0.592
		c0.002-1.342,0.002-2.684,0-4.027c-0.001-0.359-0.127-0.723-0.372-0.989c-0.27-0.293-0.633-0.498-0.847-0.841
		c-0.238-0.399-0.259-0.893-0.168-1.339C55.136,22.69,55.536,22.307,55.961,22.032L55.961,22.032z"/>
	<path id="path24_1_" d="M140.998,22.991c0.055,0.141,0.073,0.298,0.004,0.437c-0.169,0.386-0.629,0.534-1.02,0.527
		c-0.41-0.037-0.729-0.331-1.005-0.609c-0.463,0.31-0.928,0.618-1.391,0.928c-0.533,0.359-1.122,0.624-1.713,0.871
		c-0.002,0.759,0.001,1.517-0.002,2.277c0.432,0.36,0.876,0.704,1.299,1.074c-0.325,0.344-0.645,0.693-0.951,1.053
		c-0.315,0.379-0.612,0.817-0.63,1.326c-0.018,0.578,0.229,1.205,0.741,1.511c0.226,0.133,0.501,0.251,0.764,0.149
		c-0.327-0.117-0.729-0.354-0.701-0.753c0.091-0.377,0.539-0.63,0.911-0.521c0.386,0.11,0.704,0.386,0.951,0.695
		c0.992-0.714,2.036-1.353,3.121-1.916c-0.008-0.964,0.013-1.929-0.01-2.892c-0.479-0.336-0.936-0.703-1.41-1.045
		c0.501-0.635,1.006-1.307,1.215-2.101C141.25,23.666,141.276,23.243,140.998,22.991L140.998,22.991z M137.804,24.435
		c0.322,0.462,0.748,0.912,1.331,1.007c0.581,0.137,1.145-0.178,1.526-0.598c-0.522,0.965-1.331,1.74-2.168,2.434
		c-0.226-0.24-0.47-0.463-0.693-0.705C137.809,25.86,137.802,25.147,137.804,24.435L137.804,24.435z M138.624,27.315
		c0.251,0.211,0.498,0.426,0.749,0.638c0.115,0.069,0.058,0.212,0.074,0.321c-0.007,0.827,0.01,1.658-0.01,2.485
		c-0.187-0.423-0.468-0.817-0.863-1.068c-0.574-0.375-1.363-0.397-1.946-0.032c-0.267,0.148-0.481,0.369-0.684,0.594
		c0.29-0.565,0.758-1.012,1.198-1.459C137.644,28.309,138.147,27.826,138.624,27.315z"/>
	<path id="path26_1_" d="M35.447,23.344c-0.66,0.382-1.298,0.799-1.945,1.202c-0.548,0.286-1.104,0.555-1.656,0.833
		c0.002,1.547-0.002,3.095,0.004,4.642c-0.235,0.183-0.51,0.314-0.724,0.523c0.041,0.024,0.123,0.074,0.164,0.099
		c0.185-0.16,0.368-0.322,0.571-0.458c0.684,0.568,1.329,1.184,2.011,1.755c0.034-0.018,0.101-0.053,0.136-0.071
		c1.155-0.895,2.322-1.778,3.478-2.672l-0.143-0.126c-0.643,0.501-1.269,1.029-1.906,1.538c-0.526-0.474-1.036-0.966-1.561-1.442
		c-0.179-0.131-0.079-0.379-0.092-0.564c1.078-0.789,2.157-1.579,3.219-2.39C36.473,25.263,35.96,24.304,35.447,23.344z
		 M33.781,24.484c0.546,0.896,1.094,1.789,1.633,2.69c-0.549,0.386-1.093,0.776-1.635,1.169
		C33.774,27.057,33.771,25.77,33.781,24.484L33.781,24.484z"/>
	<path id="path28_1_" d="M53.315,23.342c-0.465,0.306-0.934,0.609-1.41,0.898c-0.696,0.436-1.451,0.763-2.18,1.138
		c0.002,1.546-0.004,3.093,0.002,4.64c-0.225,0.167-0.473,0.3-0.691,0.476c0.023,0.04,0.071,0.122,0.094,0.162
		c0.242-0.163,0.481-0.33,0.73-0.483c0.626,0.598,1.261,1.187,1.891,1.78c1.179-0.876,2.336-1.783,3.503-2.674
		c0.15-0.031,0.027-0.274-0.069-0.18c-0.633,0.491-1.247,1.006-1.87,1.509c-0.489-0.485-0.975-0.973-1.461-1.459
		c-0.157-0.138-0.064-0.369-0.073-0.55c1.038-0.77,2.043-1.584,3.083-2.351C54.385,25.262,53.824,24.313,53.315,23.342z
		 M51.767,24.515c0.535,0.871,1.025,1.771,1.519,2.667c-0.51,0.374-1.002,0.77-1.507,1.15C51.755,27.06,51.779,25.787,51.767,24.515
		z"/>
	<path id="path30_1_" d="M83.453,23.346c-0.51,0.297-1.014,0.604-1.509,0.925c-0.581,0.355-1.217,0.606-1.836,0.884
		c0.015,1.623,0.004,3.246,0.006,4.869c-0.207,0.206-0.416,0.412-0.617,0.623c0.042-0.002,0.126-0.008,0.168-0.011
		c0.147-0.157,0.3-0.309,0.451-0.462c0.695,0.568,1.379,1.149,2.069,1.723c0.114,0.11,0.243-0.054,0.353-0.094
		c1.109-0.607,2.158-1.321,3.301-1.866c0.018-1.512,0.005-3.024,0.008-4.537c0.206-0.206,0.415-0.412,0.617-0.623
		c-0.04,0.001-0.121,0.004-0.162,0.006c-0.193,0.158-0.387,0.312-0.581,0.468C84.964,24.616,84.211,23.977,83.453,23.346
		L83.453,23.346z M82.16,24.467c0.546,0.513,1.101,1.018,1.647,1.532c-0.005,1.61-0.004,3.219-0.004,4.829
		c-0.559-0.491-1.09-1.011-1.643-1.509L82.16,24.467L82.16,24.467z"/>
	<path id="path32_1_" d="M95.473,26.952c0.787-1.208,1.591-2.405,2.398-3.601c0.347,0.296,0.782,0.481,1.237,0.527
		c0.446,0.001,0.827-0.264,1.163-0.53c-0.085,0.652-0.302,1.329-0.802,1.782c-0.436,0.4-1.098,0.497-1.647,0.301
		c-0.324-0.11-0.623-0.283-0.892-0.494c-0.047,0.112-0.086,0.227-0.115,0.345c1.117,1.682,2.214,3.38,3.312,5.077
		c0.252-0.164,0.473-0.37,0.695-0.571c0.044,0.028,0.13,0.083,0.173,0.11c-0.789,0.704-1.604,1.379-2.413,2.061
		C97.542,30.292,96.525,28.611,95.473,26.952L95.473,26.952z"/>
	<path id="path34_1_" d="M133.264,23.344c-0.486,0.296-0.974,0.591-1.454,0.896c-0.664,0.462-1.425,0.749-2.13,1.138
		c0.008,1.546,0,3.094,0.004,4.64c-0.243,0.16-0.483,0.324-0.726,0.481c0.031,0.038,0.095,0.117,0.126,0.155
		c0.209-0.155,0.398-0.339,0.625-0.474c0.63,0.586,1.29,1.14,1.929,1.717c0.061,0.098,0.15-0.002,0.212-0.042
		c1.152-0.888,2.308-1.77,3.461-2.655c-0.135-0.237-0.289-0.007-0.424,0.09c-0.542,0.441-1.082,0.881-1.626,1.32
		c-0.555-0.507-1.092-1.032-1.658-1.526c-0.008-0.159-0.01-0.319-0.002-0.478c1.081-0.783,2.15-1.585,3.222-2.38
		C134.308,25.263,133.789,24.301,133.264,23.344L133.264,23.344z M131.596,24.511c0.585,0.864,1.098,1.777,1.647,2.667
		c-0.556,0.381-1.097,0.785-1.65,1.169C131.601,27.068,131.593,25.789,131.596,24.511L131.596,24.511z"/>
	<path id="path36_1_" d="M88.674,23.471c0.437,0.398,0.805,0.867,1.21,1.297c0.442-0.423,0.873-0.859,1.3-1.298
		c0.31,0.199,0.633,0.478,1.032,0.397c0.28-0.019,0.426-0.294,0.665-0.406c0.001,0.585-0.134,1.199-0.52,1.653
		c-0.443,0.53-1.281,0.685-1.874,0.322c-0.228-0.111-0.379-0.323-0.591-0.454c0.005,1.598,0.003,3.196,0.002,4.795
		c0.315,0.242,0.63,0.484,0.954,0.714c0.235-0.154,0.416-0.439,0.714-0.465c-0.698,0.665-1.43,1.297-2.159,1.931
		c-0.547-0.516-1.106-1.019-1.647-1.54c-0.211,0.189-0.406,0.396-0.607,0.595c-0.032-0.037-0.096-0.112-0.128-0.149
		c0.265-0.295,0.561-0.561,0.832-0.85c-0.01-1.368,0.005-2.735-0.007-4.102c-0.145-0.345-0.397-0.645-0.58-0.975
		c-0.25,0.147-0.432,0.455-0.743,0.465C87.232,24.746,87.971,24.128,88.674,23.471L88.674,23.471z"/>
	<path id="path38_1_" d="M117.027,25.181c0.65-0.569,1.287-1.153,1.941-1.718c0.469,0.517,0.954,1.02,1.415,1.545
		c0.691-0.499,1.354-1.035,2.038-1.545c0.479,0.513,0.949,1.035,1.433,1.545c0.678-0.513,1.347-1.038,2.029-1.544
		c0.466,0.52,0.947,1.026,1.418,1.541c0.289-0.184,0.554-0.405,0.848-0.581c0.022,0.171-0.134,0.249-0.242,0.344
		c-0.157,0.127-0.31,0.26-0.468,0.386c-0.013,1.423,0.003,2.845-0.008,4.268c0.271,0.281,0.548,0.558,0.83,0.828
		c0.149-0.155,0.302-0.307,0.447-0.466c0.044,0.028,0.131,0.082,0.175,0.109c-0.713,0.702-1.448,1.383-2.18,2.065
		c-0.516-0.609-1.057-1.198-1.56-1.818c0.122-0.112,0.241-0.229,0.359-0.347c0.002-1.227,0-2.454,0-3.681
		c-0.39-0.435-0.778-0.871-1.18-1.294c-0.116,0.118-0.232,0.236-0.347,0.355c-0.002,1.534,0.006,3.069-0.004,4.603
		c0.193,0.217,0.411,0.411,0.607,0.627c-0.528,0.468-1.037,0.959-1.562,1.432c-0.491-0.516-0.973-1.039-1.448-1.569
		c0.135-0.167,0.406-0.287,0.364-0.541c-0.006-1.197,0.006-2.394-0.006-3.59c-0.327-0.455-0.694-0.896-1.073-1.312
		c-0.111,0.118-0.223,0.233-0.336,0.348c0.003,1.486-0.008,2.973,0.005,4.459c0.16,0.274,0.4,0.497,0.599,0.744
		c-0.513,0.539-1.042,1.062-1.576,1.579c-0.51-0.608-1.039-1.2-1.553-1.805c0.16-0.125,0.322-0.248,0.484-0.372
		c-0.005-1.255-0.009-2.512,0.002-3.767c-0.301-0.373-0.631-0.721-0.947-1.081c-0.225,0.167-0.423,0.376-0.679,0.494
		C116.839,25.308,116.954,25.252,117.027,25.181z"/>
	<path id="path40_1_" d="M112.504,25.28c0.672-0.616,1.368-1.208,2.048-1.817c0.484,0.55,0.954,1.112,1.435,1.665
		c0.25-0.196,0.474-0.428,0.75-0.589c-0.021,0.088-0.044,0.179-0.126,0.228c-0.207,0.172-0.413,0.345-0.621,0.512
		c0.003,1.425-0.006,2.849,0.005,4.274c0.272,0.307,0.553,0.608,0.807,0.932c0.212-0.129,0.388-0.306,0.59-0.449
		c0.043,0.023,0.129,0.068,0.172,0.09c-0.672,0.63-1.368,1.233-2.068,1.83c-0.465-0.559-0.943-1.109-1.419-1.66
		c-0.207,0.188-0.38,0.416-0.607,0.579c-0.032-0.03-0.096-0.091-0.128-0.121c0.202-0.191,0.392-0.394,0.597-0.584
		c0.016-1.294,0.001-2.59,0.008-3.885c-0.012-0.18,0.046-0.393-0.095-0.537c-0.249-0.309-0.478-0.635-0.743-0.931
		C112.91,24.977,112.723,25.151,112.504,25.28L112.504,25.28z"/>
</g>
</svg>
