<?xml version="1.0" encoding="utf-8"?>
<!-- Generator: Adobe Illustrator 17.0.1, SVG Export Plug-In . SVG Version: 6.00 Build 0)  -->
<!DOCTYPE svg PUBLIC "-//W3C//DTD SVG 1.1//EN" "http://www.w3.org/Graphics/SVG/1.1/DTD/svg11.dtd">
<svg version="1.1" id="Capa_1" xmlns="http://www.w3.org/2000/svg" xmlns:xlink="http://www.w3.org/1999/xlink" x="0px" y="0px"
	 width="155px" height="55px" viewBox="0 0 155 55" enable-background="new 0 0 155 55" xml:space="preserve">
<g>
	<g>
		<g id="layer1_4_">
			<g id="g1945_1_">
				<path id="_81408128_1_" fill="#D91918" d="M59.609,7.923h35.782c0,15.003,0,27.355,0,39.155H59.609V7.923L59.609,7.923z"/>
				<path id="_81405672_1_" fill="#FFFFFF" d="M77.588,41.919h3.522V13.346h-3.522V41.919z M71.016,40.368
					c-0.002,0.853-0.688,1.539-1.535,1.541h-6.944l0.002-28.563h6.95c0.838,0.001,1.524,0.688,1.526,1.541v10.012
					c0,0.807-0.662,1.459-1.468,1.459l-0.154-0.001c0.892,0,1.622,0.725,1.622,1.617v0.628V40.368L71.016,40.368z M66.06,16.873
					h1.446v8.139H66.06V16.873z M66.06,28.51h1.446v9.865H66.06V28.51z M91.109,41.918V13.345h-3.523v4.973h-3.428
					c-0.839,0.001-1.52,0.688-1.522,1.541l-0.004,20.509c0.002,0.853,0.688,1.539,1.535,1.541L91.109,41.918L91.109,41.918z
					 M87.587,21.808h-1.446v16.566h1.446V21.808z M72.541,16.873h3.522v-3.527h-3.522V16.873z M72.541,41.919h3.522V18.319h-3.522
					V41.919z"/>
			</g>
		</g>
	</g>
	<rect x="66" y="17" fill="#D91918" width="1" height="9"/>
	<rect x="66" y="30" fill="#D91918" width="1" height="9"/>
	<rect x="86" y="22" fill="#D91918" width="2" height="17"/>
</g>
</svg>
