<?xml version="1.0" encoding="utf-8"?>
<!-- Generator: Adobe Illustrator 17.0.1, SVG Export Plug-In . SVG Version: 6.00 Build 0)  -->
<!DOCTYPE svg PUBLIC "-//W3C//DTD SVG 1.1//EN" "http://www.w3.org/Graphics/SVG/1.1/DTD/svg11.dtd">
<svg version="1.1" id="Capa_1" xmlns="http://www.w3.org/2000/svg" xmlns:xlink="http://www.w3.org/1999/xlink" x="0px" y="0px"
	 width="155px" height="55px" viewBox="0 0 155 55" enable-background="new 0 0 155 55" xml:space="preserve">
<g>
	<g>
		<path fill="#00A156" d="M50.607,35.456v-3.429c-2.273,0-6.255,0-6.255,0C45.653,34.007,47.973,35.304,50.607,35.456L50.607,35.456
			L50.607,35.456z"/>
		<path fill="#00A156" d="M57.874,32.027h-6.255c-0.023,0.046,0,3.429,0,3.429C54.229,35.318,56.542,33.973,57.874,32.027
			L57.874,32.027L57.874,32.027z"/>
		<path fill="#00A156" d="M51.618,19.501v3.376c-0.023,0.007,6.255,0,6.255,0C56.525,20.979,54.253,19.65,51.618,19.501
			L51.618,19.501L51.618,19.501z"/>
		<path fill="#00A156" d="M44.352,22.876h6.255c-0.025,0.007,0-3.376,0-3.376C47.949,19.689,45.684,20.961,44.352,22.876
			L44.352,22.876L44.352,22.876z"/>
		<path fill="#00A156" d="M50.607,31.189v-3.205c-0.025,0.035-7.473,0-7.473,0c0.019,1.136,0.296,2.216,0.675,3.205
			C43.762,31.245,50.607,31.189,50.607,31.189L50.607,31.189L50.607,31.189z"/>
		<path fill="#00A156" d="M59.091,27.984h-7.472c-0.023,0.035,0,3.205,0,3.205c-0.023,0.056,6.797,0,6.797,0
			C58.753,30.222,59.03,29.119,59.091,27.984L59.091,27.984L59.091,27.984z"/>
		<path fill="#00A156" d="M51.618,23.692v3.279c-0.023,0.033,7.472,0,7.472,0c-0.068-1.094-0.296-2.267-0.675-3.279
			C58.415,23.703,51.618,23.692,51.618,23.692L51.618,23.692L51.618,23.692z"/>
		<path fill="#00A156" d="M43.135,26.971h7.473c-0.025,0.033,0-3.279,0-3.279c-0.025,0.012-6.797,0-6.797,0
			C43.424,24.75,43.196,25.809,43.135,26.971L43.135,26.971L43.135,26.971z"/>
		<path fill="#232322" d="M13.607,35.268v-0.647h1.25l0.347-0.065c0.463-0.101,0.718-0.332,0.764-0.694v-0.152v-0.13v-0.434V21.42
			v-0.13v-0.152c-0.047-0.361-0.296-0.592-0.748-0.694l-0.327-0.065h-1.286v-0.647h14.03l0.344,4.639h-0.802l-0.069-0.777
			c-0.183-0.892-0.569-1.575-1.158-2.05c-0.588-0.475-1.15-0.788-1.685-0.939c-0.535-0.151-1.246-0.227-2.132-0.227h-1.708
			c-0.26,0-0.443,0.05-0.55,0.151c-0.107,0.1-0.16,0.28-0.16,0.538v5.462h0.552c2.084,0,3.21-0.849,3.38-2.546v-0.539h0.93v6.819
			h-0.953l0.023-0.604c0-1.654-1.139-2.482-3.416-2.482h-0.516v6.579c0,0.577,0.283,0.865,0.848,0.865h1.594
			c1.421,0,2.56-0.299,3.416-0.896c0.856-0.597,1.353-1.216,1.49-1.856c0.138-0.64,0.218-1.025,0.241-1.154
			c0.023-0.129,0.034-0.288,0.034-0.475h0.779l-0.413,5.028H13.607L13.607,35.268z"/>
		<path fill="#232322" d="M27.928,20.444v-0.712h7.661v0.712h-1.147l-0.319,0.065c-0.41,0.101-0.637,0.331-0.679,0.691v0.151v0.151
			v12.213c0,0.604,0.276,0.906,0.828,0.906h1.384c1.09,0,2.003-0.388,2.739-1.165c0.736-0.777,1.253-1.964,1.55-3.56l0.106-0.712
			h0.743l-0.319,6.085H27.928v-0.647h1.158l0.321-0.066c0.429-0.103,0.665-0.338,0.708-0.705v-0.132v-0.154v-0.475V21.48v-0.108
			v-0.173c-0.057-0.36-0.293-0.59-0.708-0.691l-0.257-0.065H27.928L27.928,20.444z"/>
		<path fill="#232322" d="M59.883,35.268v-0.647h1.172l0.325-0.066c0.506-0.103,0.759-0.396,0.759-0.881v-0.11v-0.475V21.48V21.35
			v-0.151c-0.045-0.36-0.283-0.59-0.715-0.691l-0.335-0.065h-1.207v-0.712H66.7l2.989,10.039l3.28-10.039h6.44v0.712h-1.16
			l-0.344,0.065c-0.444,0.101-0.688,0.331-0.731,0.691v0.108v0.194v12.062v0.132v0.154c0.043,0.367,0.289,0.602,0.738,0.705
			l0.26,0.066h1.237v0.647h-7.744v-0.647h1.183l0.329-0.065c0.467-0.115,0.701-0.352,0.701-0.712v-0.065v-0.216l0.005-12.634
			l-4.497,14.339h-1.819l-4.494-14.479v12.774v0.151v0.129c0.044,0.374,0.285,0.611,0.723,0.712l0.263,0.065h1.249v0.647H59.883
			L59.883,35.268z"/>
		<path fill="#232322" d="M80.056,20.379v-0.647h7.542v0.647h-0.99l-0.275,0.065c-0.355,0.101-0.556,0.339-0.605,0.713v0.151v0.13
			v9.444c0,1.095,0.236,1.871,0.568,2.421c0.146,0.242,0.601,0.452,1.048,0.604c0.43,0.146,0.699,0.16,1.152,0.163
			c0.205,0.001,0.321-0.006,0.525-0.028c0.312-0.034,0.492-0.055,0.788-0.156c0.59-0.201,0.924-0.344,1.321-0.898
			c0.397-0.555,0.577-1.168,0.577-2.321v-9.228l0.281-0.108l-0.281-0.173c-0.037-0.259-0.106-0.432-0.206-0.519
			c-0.1-0.086-0.225-0.151-0.374-0.195l-0.206-0.065h-1.066v-0.647h4.847v0.647h-1l-0.296,0.065
			c-0.383,0.101-0.592,0.338-0.63,0.712v0.129v0.151v9.128c0,1.554-0.281,2.697-0.844,3.431c-0.562,0.734-1.259,1.169-2.091,1.305
			c-0.831,0.137-2.837,0.205-3.203,0.205c-0.147,0-0.293,0-0.44,0c-0.134-0.029-0.572-0.086-1.311-0.173
			c-0.74-0.086-1.421-0.475-2.045-1.167c-0.624-0.692-0.935-1.7-0.935-3.025v-9.724v-0.173v-0.108
			c-0.037-0.346-0.232-0.583-0.587-0.713l-0.22-0.043h-0.055H80.056L80.056,20.379z"/>
		<path fill="#232322" d="M95.276,35.268v-0.647h1.185l0.329-0.065c0.439-0.101,0.687-0.338,0.746-0.712v-0.162v-0.14V33.11V21.501
			v-0.129c-0.059-0.475-0.307-0.762-0.746-0.863l-0.241-0.065h-1.272v-0.712h5.459l6.717,11.159v-9.39V21.35v-0.151
			c-0.059-0.36-0.303-0.59-0.731-0.691l-0.266-0.065h-1.263v-0.712h5.397v0.712h-1.207l-0.307,0.065
			c-0.468,0.115-0.702,0.345-0.702,0.691v0.281v13.789h-2.505l-7.39-11.918v10.192v0.186v0.116c0,0.355,0.244,0.592,0.731,0.71
			l0.288,0.066h1.262v0.647H95.276L95.276,35.268z"/>
		<path fill-rule="evenodd" clip-rule="evenodd" fill="#232322" d="M110.895,35.268v-0.647h1.244l0.345-0.065
			c0.461-0.101,0.714-0.338,0.76-0.712v-0.129v-0.151v-1.165V21.44v-0.13v-0.151c-0.062-0.361-0.307-0.599-0.737-0.715h-0.277
			h-1.313v-0.712h7.822c1.885,0,3.463,0.432,4.732,1.295c1.27,0.863,2.106,1.899,2.509,3.107c0.403,1.208,0.604,2.316,0.604,3.323
			c0,2.172-0.616,3.945-1.847,5.319c-1.232,1.374-2.858,2.183-4.881,2.428l-1.026,0.065H110.895L110.895,35.268z M116.82,33.631
			c0,0.387,0.065,0.649,0.194,0.785c0.129,0.136,0.369,0.204,0.718,0.204h1.076c1.429,0,2.24-0.506,3.023-1.517
			c0.783-1.011,1.175-2.614,1.175-4.808v-1.571c0-0.459-0.027-0.929-0.08-1.409c-0.053-0.48-0.186-1.115-0.399-1.904
			c-0.213-0.789-0.551-1.431-1.015-1.925c-0.464-0.495-0.858-0.709-1.517-0.925c-0.354-0.116-0.663-0.183-0.937-0.183h-1.35
			c-0.35,0-0.585,0.057-0.707,0.172c-0.122,0.115-0.182,0.351-0.182,0.71V33.631L116.82,33.631z"/>
		<path fill-rule="evenodd" clip-rule="evenodd" fill="#232322" d="M127.744,27.5c0-0.23,0-0.428,0-0.593
			c0-0.165,0.084-0.867,0.252-2.104c0.168-1.237,0.854-2.431,2.058-3.582c1.204-1.151,2.709-1.726,4.515-1.726
			c1.792,0,3.29,0.575,4.494,1.726c1.204,1.151,1.89,2.366,2.058,3.647c0.168,1.28,0.255,1.996,0.262,2.147
			c0.007,0.151,0.01,0.313,0.01,0.486c0,0.173-0.003,0.338-0.01,0.496c-0.007,0.158-0.095,0.874-0.262,2.147
			c-0.168,1.273-0.847,2.485-2.037,3.636c-1.19,1.151-2.695,1.726-4.515,1.726c-1.806,0-3.311-0.575-4.515-1.726
			c-1.204-1.151-1.883-2.298-2.037-3.442c-0.154-1.144-0.238-1.849-0.252-2.115C127.751,27.957,127.744,27.716,127.744,27.5
			L127.744,27.5z M131.499,27.618V28.7c0,0.524,0.006,0.874,0.017,1.051c0.011,0.177,0.089,0.75,0.233,1.719
			c0.144,0.969,0.446,1.748,0.905,2.335c0.46,0.587,1.088,0.881,1.886,0.881c0.775,0,1.398-0.297,1.869-0.891
			c0.471-0.594,0.767-1.291,0.889-2.091c0.122-0.799,0.197-1.38,0.224-1.74c0.028-0.361,0.042-0.782,0.042-1.263v-2.165
			c0-0.608-0.008-1.026-0.025-1.252c-0.017-0.226-0.083-0.715-0.199-1.465c-0.116-0.75-0.332-1.408-0.648-1.974
			c-0.316-0.566-0.689-0.927-1.121-1.082c-0.432-0.156-0.618-0.228-0.939-0.228c-1.462,0-2.495,0.716-2.716,2.159
			c-0.221,1.443-0.346,2.306-0.374,2.589c-0.028,0.283-0.042,0.7-0.042,1.252V27.618L131.499,27.618z"/>
	</g>
</g>
</svg>
