<?xml version="1.0" encoding="utf-8"?>
<!-- Generator: Adobe Illustrator 17.0.1, SVG Export Plug-In . SVG Version: 6.00 Build 0)  -->
<!DOCTYPE svg PUBLIC "-//W3C//DTD SVG 1.1//EN" "http://www.w3.org/Graphics/SVG/1.1/DTD/svg11.dtd">
<svg version="1.1" id="Capa_1" xmlns="http://www.w3.org/2000/svg" xmlns:xlink="http://www.w3.org/1999/xlink" x="0px" y="0px"
	 width="155px" height="55px" viewBox="0 0 155 55" enable-background="new 0 0 155 55" xml:space="preserve">
<g>
	<g>
		<g id="_x23_ed1d26ff" transform="scale(0.33287175,0.33287175)">
			<path id="path16" fill="#ED1D26" d="M335.054,58.653c2.434-2.963,4.886-5.908,7.345-8.85c2.884,2.103,5.779,4.195,8.666,6.294
				c-1.977,1.753-3.946,3.514-5.937,5.246c-2.247,1.959-4.465,3.943-6.704,5.905c-2.185-1.573-4.36-3.168-6.56-4.727
				C332.908,61.216,334.01,59.96,335.054,58.653L335.054,58.653z"/>
		</g>
		<g id="_x23_ffffffff" transform="scale(0.33287175,0.33287175)">
			<path id="path19" fill="#005C93" d="M309.988,67.575c6.423-6.603,15.943-9.822,25.067-8.922c-1.044,1.307-2.146,2.564-3.19,3.867
				c2.2,1.559,4.375,3.154,6.56,4.727c2.239-1.962,4.457-3.946,6.704-5.905c4.587,2.196,8.746,5.415,11.655,9.617
				c3.071,4.36,4.789,9.707,4.677,15.05c0.108,6.823-2.049,13.761-6.391,19.072c-3.413,4.238-8.169,7.32-13.358,8.911
				c-6.078,1.854-12.677,1.897-18.795,0.202c-6.254-1.739-11.9-5.696-15.5-11.118c-3.528-5.188-5.084-11.558-4.929-17.79
				C302.556,78.697,305.383,72.252,309.988,67.575 M330.035,72.165c-5.354,0.677-10.283,4.385-12.213,9.455
				c-2.311,6.319,0.364,14.002,5.912,17.74c3.32,2.276,7.593,3.082,11.514,2.164c3.982-0.889,7.5-3.543,9.53-7.071
				c2.005-3.518,2.772-7.845,1.717-11.788C344.509,75.795,337.092,71.125,330.035,72.165L330.035,72.165z"/>
			<path id="path21" fill="#005C93" d="M49.464,60.259c4.648-0.014,9.293,0.011,13.941-0.014
				c0.036,13.869,0.004,27.735,0.014,41.604c5.52,0,11.043-0.004,16.562,0c0.101,3.514-0.205,7.064,0.155,10.553
				c3.024-8.299,6.322-16.497,9.451-24.761c3.55-9.127,6.967-18.308,10.596-27.4c5.048,0.047,10.099-0.025,15.147,0.036
				c6.679,17.797,13.397,35.576,20.094,53.366c-4.976-0.014-9.952,0.043-14.928-0.025c-1.12-3.096-2.29-6.175-3.46-9.253
				c-6.319,0.011-12.638-0.007-18.953,0.007c-1.253,3.096-2.398,6.232-3.734,9.289c-14.964-0.036-29.927-0.004-44.887-0.018
				C49.461,95.849,49.457,78.052,49.464,60.259 M107.576,76.958c-1.905,5.556-3.701,11.154-5.653,16.692c3.777,0,7.554,0,11.334,0
				c-1.739-5.304-3.536-10.593-5.282-15.896C107.868,77.476,107.734,77.21,107.576,76.958z"/>
			<path id="path23" fill="#005C93" d="M220.663,60.262c5.051-0.032,10.103,0.022,15.154-0.029
				c6.765,17.79,13.473,35.609,20.127,53.438c-4.954-0.065-9.909,0.004-14.866-0.036c-1.149-3.089-2.344-6.164-3.453-9.268
				c-6.33,0-12.656,0.004-18.985,0c-1.228,3.1-2.445,6.204-3.701,9.289c-10.294-0.011-20.584-0.032-30.874,0.011
				c-4.49-6.751-8.677-13.707-13.171-20.454c0.018,6.809,0.007,13.621,0.004,20.429c-4.641,0.018-9.282-0.018-13.923,0.018
				c-0.076-17.801-0.022-35.602-0.025-53.402c5.181-0.011,10.362,0,15.543-0.004c3.914,0.029,7.892-0.223,11.72,0.763
				c3.863,0.886,7.543,3.093,9.667,6.506c1.969,3.125,2.535,6.935,2.308,10.567c-0.23,3.766-1.703,7.547-4.461,10.179
				c-1.926,1.872-4.461,3.046-7.082,3.55c5.311,6.902,10.614,13.808,15.896,20.728C207.27,95.129,213.952,77.692,220.663,60.262
				 M170.898,70.988c-0.011,4.389,0.04,8.785-0.025,13.174c2.589,0.014,5.314,0.011,7.701-1.131
				c4.155-1.858,4.263-8.81,0.194-10.823C176.363,70.945,173.547,70.948,170.898,70.988 M228.149,76.821
				c-1.843,5.624-3.763,11.223-5.667,16.829c3.781,0,7.557,0.004,11.334-0.004C231.908,88.047,230.143,82.391,228.149,76.821z"/>
			<path id="path25" fill="#005C93" d="M260.74,60.244c14.74,0.018,29.481,0.011,44.225,0.004
				c-8.357,13.869-16.728,27.731-25.103,41.586c7.421,0.032,14.845,0.004,22.269,0.014c0,3.932,0.004,7.867-0.004,11.799
				c-15.259,0-30.518-0.004-45.777,0.004c8.389-13.833,16.803-27.648,25.175-41.488c-6.931-0.018-13.858-0.011-20.789-0.004
				C260.722,68.187,260.712,64.216,260.74,60.244z"/>
			<path id="path27" fill="#005C93" d="M402.239,60.244c4.645,0.022,9.293,0,13.941,0.014c0.007,17.794,0.004,35.591,0,53.384
				c-4.637,0.011-9.271-0.007-13.909,0.011c-4.922-6.254-9.779-12.558-14.668-18.838c-3.597-4.547-7.043-9.224-10.74-13.682
				c-0.032,10.834,0,21.671-0.018,32.509c-4.648,0.007-9.3,0-13.948,0.004c-0.014-17.797-0.014-35.591,0-53.388
				c4.627-0.018,9.257,0.011,13.887-0.011c8.493,10.863,16.94,21.761,25.434,32.624C402.246,81.998,402.2,71.121,402.239,60.244z"/>
		</g>
	</g>
</g>
</svg>
