<?xml version="1.0" encoding="utf-8"?>
<!-- Generator: Adobe Illustrator 17.0.1, SVG Export Plug-In . SVG Version: 6.00 Build 0)  -->
<!DOCTYPE svg PUBLIC "-//W3C//DTD SVG 1.1//EN" "http://www.w3.org/Graphics/SVG/1.1/DTD/svg11.dtd">
<svg version="1.1" id="Capa_1" xmlns="http://www.w3.org/2000/svg" xmlns:xlink="http://www.w3.org/1999/xlink" x="0px" y="0px"
	 width="155px" height="55px" viewBox="0 0 155 55" enable-background="new 0 0 155 55" xml:space="preserve">
<g>
	<rect x="9.564" y="10.938" fill-rule="evenodd" clip-rule="evenodd" fill="#FEFEFE" width="135.872" height="33.124"/>
	<path d="M120.127,30.953v-3.175l-0.869,0.085c-0.866,0.083-1.576,0.657-1.576,1.734c0,1.24,0.683,1.784,1.401,1.784
		C119.499,31.382,119.921,31.178,120.127,30.953 M117.491,23.103l-0.792,2.296h-1.935v-2.951c1.049-0.324,2.529-0.854,4.504-0.854
		c2.999,0,4.594,1.18,4.594,3.704v6.115l1.327,0.551v0.985c-0.366,0.195-1.466,0.446-2.369,0.446c-1.173,0-2.087-0.374-2.261-1.585
		h-0.101c-0.5,1.006-1.829,1.607-3.226,1.607c-1.995,0-3.249-1.281-3.249-3.153c0-2.301,1.521-2.808,3.989-3.318l2.156-0.367V25.22
		c0-1.446-0.435-2.165-1.872-2.165C118.07,23.055,117.717,23.082,117.491,23.103"/>
	<path d="M79.605,30.953v-3.175l-0.87,0.085c-0.865,0.083-1.575,0.657-1.575,1.734c0,1.24,0.684,1.784,1.402,1.784
		C78.976,31.382,79.399,31.178,79.605,30.953 M76.968,23.103l-0.792,2.296h-1.935v-2.951c1.049-0.324,2.529-0.854,4.503-0.854
		c2.999,0,4.594,1.18,4.594,3.704v6.115l1.327,0.551v0.985c-0.367,0.195-1.466,0.446-2.37,0.446c-1.173,0-2.087-0.374-2.26-1.585
		h-0.102c-0.499,1.006-1.829,1.607-3.227,1.607c-1.995,0-3.247-1.281-3.247-3.153c0-2.301,1.52-2.808,3.988-3.318l2.156-0.367V25.22
		c0-1.446-0.436-2.165-1.872-2.165C77.547,23.055,77.195,23.082,76.968,23.103"/>
	<path d="M16.627,29.998v-6.227h-1.725v-1.702l1.725-0.23v-2.126l3.72-0.521v2.647h2.468v1.933h-2.468v5.901
		c0,1.1,0.31,1.669,1.399,1.669c0.391,0,0.92-0.044,1.19-0.09v1.456c-0.608,0.351-1.877,0.65-3.049,0.65
		C17.667,33.357,16.627,32.379,16.627,29.998"/>
	<path d="M42.339,22.96c0.935,0,1.439,0.4,1.439,3.336l-3.121,0.181C40.657,23.829,41.153,22.96,42.339,22.96 M40.69,27.819h6.705
		c0-4.723-1.624-6.225-4.994-6.225c-3.351,0-5.55,2.158-5.55,5.86c0,3.827,1.993,5.942,5.857,5.942c2.079,0,3.757-0.916,4.276-1.628
		v-1.098c-0.78,0.245-1.582,0.388-3.022,0.388C41.931,31.057,40.888,30.008,40.69,27.819"/>
	<path d="M53.484,36.802c-2.043,0-2.928-0.514-2.928-1.295c0-0.549,0.164-1.047,0.525-1.368h4.405c0.925,0,1.643,0.131,1.643,0.965
		C57.129,36.266,56.036,36.802,53.484,36.802 M53.584,22.961c0.813,0,1.341,0.599,1.341,2.48c0,1.878-0.535,2.358-1.341,2.358
		c-0.804,0-1.327-0.48-1.327-2.358C52.257,23.56,52.771,22.961,53.584,22.961 M55.845,30.726h-3.743c-0.566,0-0.93-0.37-0.93-0.756
		c0-0.303,0.082-0.758,0.352-0.978c0.614,0.184,1.306,0.276,2.06,0.276c2.899,0,4.882-1.27,4.882-3.713
		c0-1.104-0.387-1.724-1.107-2.365l0.037-0.094l1.949,0.599v-2.112h-0.218l-2.795,0.498h-0.159
		c-0.698-0.257-1.687-0.468-2.589-0.468c-2.897,0-4.904,1.385-4.904,3.828c0,1.488,0.611,2.583,1.849,3.212v0.117
		c-1.03,0.764-1.869,1.795-1.869,2.711c0,0.873,0.617,1.887,1.81,2.172v0.119c-1.023,0.358-2.486,0.741-2.486,1.961
		c0,1.506,1.874,2.544,5.411,2.544c4.394,0,6.363-1.786,6.363-4.463C59.757,31.617,58.328,30.726,55.845,30.726"/>
	<polygon points="107.172,22.327 107.172,23.484 108.559,24.063 108.559,31.413 107.23,31.964 107.23,33.134 113.63,33.134 
		113.63,31.964 112.3,31.413 112.3,21.581 111.985,21.581 	"/>
	<path d="M85.159,22.327v1.157l1.388,0.579v7.35l-1.33,0.551v1.169h6.875v-1.169l-1.803-0.551l-0.004-6.115
		c0.639-0.307,1.481-0.408,2.488-0.408c0.329,0,0.719,0.041,0.946,0.101v-3.277c-0.123-0.041-0.37-0.059-0.555-0.059
		c-1.234,0-2.24,0.792-2.9,2.298h-0.122v-2.372h-0.314L85.159,22.327"/>
	<path d="M110.417,16.952c1.097,0,1.985,0.886,1.985,1.982s-0.888,1.986-1.985,1.986c-1.096,0-1.984-0.889-1.984-1.986
		S109.322,16.952,110.417,16.952"/>
	<path d="M101.519,19.445L100,18.867v-1.155l4.946-0.748h0.314v14.101l1.322,0.652v1.109l-4.58,0.503l-0.318-0.002v-1.171h-0.124
		c-0.468,0.597-1.433,1.221-2.829,1.221c-2.057,0-4.502-1.304-4.502-5.619c0-4.537,2.5-6.167,5.48-6.167
		c0.615,0,1.356,0.143,1.809,0.468V19.445 M101.516,31.144v-7.6c-0.286-0.223-0.592-0.406-1.272-0.406
		c-1.173,0-2.069,1.059-2.069,4.236c0,2.781,0.712,3.989,2.191,3.989C100.94,31.364,101.264,31.249,101.516,31.144"/>
	<path d="M61.276,24.063l-1.392-0.579v-1.157l4.813-0.746h0.315v7.929c0,1.283,0.626,1.508,1.572,1.508
		c0.698,0,0.974-0.12,1.345-0.264v-6.691l-1.39-0.579v-1.157l4.816-0.746h0.314v9.62l1.382,0.652v0.974l-4.679,0.503l-0.318-0.002
		l-0.003-1.497h-0.124c-0.719,0.895-1.904,1.547-3.425,1.547c-2.261,0-3.228-1.612-3.228-3.564V24.063"/>
	<path d="M23.632,31.963l1.327-0.549V19.438l-1.388-0.579v-1.157l4.774-0.746h0.313v6.122h0.124
		c1.006-0.914,2.362-1.484,3.883-1.484c1.892,0,2.836,0.944,2.836,3.008v6.811l1.332,0.549v1.171h-6.272v-1.171l1.198-0.549v-5.841
		c0-1.139-0.503-1.568-1.517-1.568c-0.556,0-1.09,0.101-1.542,0.285v7.123l1.197,0.549v1.171h-6.266V31.963"/>
	<path d="M125.861,31.963l1.325-0.549v-7.35l-1.388-0.579v-1.157l4.775-0.746h0.314v1.497h0.122
		c1.007-0.914,2.362-1.484,3.883-1.484c1.891,0,2.834,0.944,2.834,3.008v6.811l1.335,0.549v1.171h-6.273v-1.171l1.198-0.549v-5.841
		c0-1.139-0.503-1.568-1.518-1.568c-0.556,0-1.089,0.101-1.542,0.285v7.123l1.199,0.549v1.171h-6.265V31.963"/>
</g>
</svg>
