<?xml version="1.0" encoding="utf-8"?>
<!-- Generator: Adobe Illustrator 17.0.1, SVG Export Plug-In . SVG Version: 6.00 Build 0)  -->
<!DOCTYPE svg PUBLIC "-//W3C//DTD SVG 1.1//EN" "http://www.w3.org/Graphics/SVG/1.1/DTD/svg11.dtd">
<svg version="1.1" id="Capa_1" xmlns="http://www.w3.org/2000/svg" xmlns:xlink="http://www.w3.org/1999/xlink" x="0px" y="0px"
	 width="155px" height="55px" viewBox="0 0 155 55" enable-background="new 0 0 155 55" xml:space="preserve">
<g>
	<g id="layer1_5_">
		<g id="Ebene_x0020_1_1_" transform="matrix(3.543307e-5,0,0,3.543307e-5,-2.328789e-4,1.119507e-4)">
			<path id="path11283_1_" d="M23.1,22.841c-0.311,0-0.57-0.035-0.864-0.07v5.1c0,0.121-0.017,0.156-0.087,0.208l-2.905,1.85
				c0.432,0.208,0.951,0.346,1.488,0.346c1.832,0,3.906-1.004,4.875-3.51c0.052-0.139,0.172-0.173,0.172,0.069v0.173
				c0,2.749-2.092,5.221-5.186,5.221c-3.371,0-5.394-2.542-5.394-5.186c0-1.988,1.088-3.838,3.561-4.616
				c0.104-0.035,0.122,0.016,0.052,0.069c-1.089,0.847-1.677,2.23-1.677,3.613c0,1.47,0.588,2.922,1.902,3.701l0.726-0.554
				c0.243-0.19,0.294-0.363,0.294-0.64v-6.293c-0.795-0.294-1.503-0.467-2.161-0.467c-0.899,0-1.712,0.397-2.507,1.366
				c-0.086,0.104-0.139,0.104-0.139,0c0.104-1.954,1.85-3.06,3.579-3.06c1.989,0,3.821,0.969,5.827,0.969
				c0.708,0,1.435-0.157,2.04-0.485c0.086-0.034,0.103,0.034,0.069,0.103C26.143,22.305,24.621,22.841,23.1,22.841L23.1,22.841z
				 M32.506,32.073c-0.07,0.069-0.07,0.052-0.122,0.017l-1.383-1.227c-0.139-0.122-0.208-0.225-0.208-0.45v-4.738
				c0-0.052,0-0.104-0.069-0.156l-0.467-0.415c-0.052-0.033-0.121-0.051-0.19-0.016l-0.881,0.414v4.462
				c0,0.069-0.018,0.138,0.052,0.189l0.398,0.345c0.104,0.086,0.276,0.19,0.432,0.139l0.138-0.052
				c0.173-0.069,0.209,0.034,0.104,0.121l-1.59,1.366c-0.07,0.069-0.087,0.052-0.139,0.017l-1.401-1.245
				c-0.172-0.139-0.172-0.173-0.172-0.398v-7.676c0-0.086,0-0.104-0.087-0.173l-0.173-0.156c-0.172-0.155-0.241-0.121-0.466-0.016
				l-0.346,0.155c-0.052,0.017-0.104-0.052-0.017-0.139l1.832-1.538c0.07-0.069,0.07-0.052,0.121-0.017l1.107,1.021
				c0.139,0.138,0.208,0.224,0.208,0.449v2.887l2.299-1.452c0.07-0.035,0.139-0.035,0.19,0.017l1.124,1.038
				c0.155,0.138,0.189,0.242,0.189,0.414v4.738c0,0.087,0,0.104,0.087,0.173l0.432,0.363c0.172,0.156,0.241,0.121,0.466,0.018
				l0.346-0.156c0.052-0.017,0.104,0.052,0.017,0.138L32.506,32.073z M39.871,26.351l-3.06,1.919v1.469
				c0,0.138,0.017,0.19,0.139,0.242l0.985,0.519c0.172,0.086,0.467,0.173,0.64,0.069l0.916-0.535
				c0.155-0.087,0.277-0.035,0.19,0.035l-2.507,2.022c-0.052,0.052-0.034,0.034-0.104,0l-2.231-1.176
				c-0.173-0.086-0.225-0.121-0.225-0.363v-5.464c0-0.087,0.035-0.121,0.138-0.156l3.649-1.176c0.052-0.017,0.103-0.034,0.138,0.035
				l1.366,2.42C39.94,26.264,39.94,26.316,39.871,26.351z M36.846,24.673l-0.035,0.016v3.356l1.21-1.004
				c0.07-0.051,0.07-0.087,0.035-0.138L36.846,24.673z M52.369,29.912l-2.49,2.144c-0.07,0.052-0.121,0.086-0.19,0.052
				c-1.488-0.743-2.767-1.159-4.063-1.159c-1.072,0-2.127,0.363-3.302,1.141c-0.104,0.069-0.173,0.052-0.104-0.069
				c0.623-1.004,1.453-2.057,2.49-2.542c0.017-0.069,0.035-0.294,0.035-0.606v-5.083c0-0.069,0.035-0.104,0.104-0.138l1.971-1.193
				c-0.432,0.086-0.916,0.156-1.332,0.156c-1.798,0-2.714-0.899-3.043-2.317c-0.017-0.07,0.017-0.087,0.069-0.07
				c0.917,0.45,1.678,0.606,2.421,0.606c1.245,0,3.025-0.674,4.115-0.674c2.195,0,3.407,0.917,3.407,3.908v5.653
				C52.455,29.809,52.42,29.86,52.369,29.912z M50.276,24.069c0-1.591-0.501-2.023-1.279-2.023c-0.571,0-1.297,0.225-2.075,0.397
				v5.187c0,0.087-0.034,0.156-0.086,0.191l-2.057,1.641c0.535-0.224,1.123-0.327,1.711-0.327c1.262,0,2.594,0.466,3.666,0.968
				c0.086,0.052,0.121,0,0.121-0.087V24.069z M58.647,32.073c-0.069,0.069-0.086,0.052-0.138,0.017l-1.574-1.383l-1.867,1.383
				c-0.069,0.052-0.086,0.034-0.155-0.017l-1.193-1.072c-0.19-0.155-0.208-0.19-0.208-0.398v-5.048c0-0.087,0.069-0.104,0.103-0.121
				l4.011-1.66c0.069-0.034,0.138-0.034,0.208,0.034l1.072,1.072c0.155,0.155,0.208,0.242,0.208,0.346v4.876l0.311,0.276
				c0.38,0.328,0.431,0.311,0.605,0.224l0.242-0.121c0.156-0.086,0.276-0.017,0.138,0.104L58.647,32.073z M56.935,25.641
				c0-0.104-0.018-0.156-0.103-0.242l-0.623-0.622c-0.034-0.035-0.034-0.017-0.087,0l-0.432,0.189v4.998
				c0,0.172,0.035,0.259,0.157,0.363l0.225,0.207c0.155,0.139,0.345,0.208,0.57,0.104l0.294-0.139V25.641L56.935,25.641z
				 M62.676,32.073c-0.07,0.069-0.087,0.052-0.139,0.017l-1.4-1.245c-0.173-0.139-0.173-0.173-0.173-0.398v-4.772
				c0-0.086,0-0.104-0.086-0.173l-0.173-0.155c-0.173-0.156-0.242-0.121-0.467-0.018l-0.346,0.156
				c-0.051,0.017-0.103-0.052-0.017-0.138l1.833-1.539c0.07-0.069,0.07-0.052,0.121-0.017l1.107,1.02
				c0.139,0.139,0.208,0.225,0.208,0.45v4.704c0,0.069-0.017,0.138,0.052,0.189l0.398,0.345c0.104,0.086,0.276,0.19,0.431,0.139
				l0.139-0.052c0.173-0.069,0.208,0.034,0.104,0.121L62.676,32.073z M61.794,23.377c-0.051,0.051-0.069,0.034-0.121,0l-1.315-1.159
				c-0.034-0.035-0.034-0.07,0.017-0.122l1.297-1.141c0.052-0.034,0.07-0.034,0.121,0l1.314,1.159c0.052,0.034,0.052,0.069,0,0.104
				L61.794,23.377z M66.566,32.073c-0.069,0.069-0.086,0.052-0.138,0.017l-1.402-1.245c-0.172-0.139-0.172-0.173-0.172-0.398v-7.676
				c0-0.086,0-0.104-0.086-0.173l-0.173-0.156c-0.173-0.155-0.242-0.121-0.467-0.016l-0.345,0.155
				c-0.053,0.017-0.104-0.052-0.017-0.139l1.832-1.538c0.069-0.069,0.069-0.052,0.122-0.017l1.106,1.021
				c0.139,0.138,0.208,0.224,0.208,0.449v7.608c0,0.069-0.017,0.138,0.052,0.189l0.397,0.345c0.103,0.086,0.277,0.19,0.432,0.139
				l0.139-0.052c0.172-0.069,0.207,0.034,0.103,0.121L66.566,32.073z M74.432,33.266l-1.902,1.538
				c-0.052,0.052-0.087,0.035-0.12,0.017c-1.004-0.674-1.798-0.985-2.663-0.985c-0.606,0-1.21,0.12-1.989,0.328
				c-0.069,0.018-0.086-0.034-0.052-0.086c0.812-1.227,1.816-1.607,2.75-1.607c1.382,0,2.679,0.847,3.198,1.192l0.052-0.034
				c0.138-0.311,0.19-0.606,0.19-0.882c0-0.881-0.726-1.59-1.625-2.04l-1.85,1.366c-0.086,0.052-0.103,0.052-0.155,0.017
				l-1.245-1.124c-0.173-0.156-0.173-0.156-0.173-0.398V25.71c0-0.086,0-0.103-0.086-0.173l-0.243-0.208
				c-0.172-0.155-0.241-0.121-0.466-0.017l-0.346,0.156c-0.052,0.017-0.103-0.051-0.017-0.139l1.833-1.538
				c0.069-0.069,0.069-0.052,0.121-0.017l1.176,1.072c0.138,0.138,0.208,0.225,0.208,0.45v4.719c0,0.087,0.017,0.173,0.069,0.225
				l0.415,0.38c0.12,0.121,0.345,0.07,0.484,0l0.277-0.121v-4.806c0-0.086,0-0.086-0.086-0.156l-0.243-0.208
				c-0.172-0.155-0.225-0.138-0.467-0.069l-0.138,0.035c-0.051,0.016-0.103-0.053-0.017-0.139l1.625-1.366
				c0.069-0.069,0.069-0.052,0.121-0.017l1.176,1.072c0.139,0.138,0.208,0.225,0.208,0.45v4.547
				c0.726,0.536,1.038,1.071,1.038,1.607C75.487,32.056,75.193,32.644,74.432,33.266z M86.258,22.841
				c-0.311,0-0.57-0.035-0.864-0.07v5.1c0,0.121-0.018,0.156-0.087,0.208l-2.904,1.85c0.431,0.208,0.95,0.346,1.487,0.346
				c1.832,0,3.906-1.004,4.874-3.51c0.053-0.139,0.174-0.173,0.174,0.069v0.173c0,2.749-2.092,5.221-5.187,5.221
				c-3.371,0-5.395-2.542-5.395-5.186c0-1.988,1.09-3.838,3.562-4.616c0.103-0.035,0.121,0.016,0.052,0.069
				c-1.09,0.847-1.677,2.23-1.677,3.613c0,1.47,0.587,2.922,1.902,3.701l0.726-0.52c0.259-0.172,0.295-0.363,0.295-0.639v-6.329
				c-0.796-0.294-1.505-0.467-2.161-0.467c-0.899,0-1.711,0.397-2.506,1.366c-0.087,0.104-0.14,0.104-0.14,0
				c0.104-1.954,1.85-3.06,3.58-3.06c1.988,0,3.82,0.969,5.826,0.969c0.71,0,1.435-0.157,2.04-0.485
				c0.087-0.034,0.103,0.034,0.07,0.103C89.301,22.305,87.779,22.841,86.258,22.841z M95.006,26.351l-3.06,1.919v1.469
				c0,0.138,0.017,0.19,0.138,0.242L93.07,30.5c0.173,0.086,0.468,0.173,0.64,0.069l0.917-0.535c0.156-0.087,0.276-0.035,0.19,0.035
				l-2.508,2.022c-0.052,0.052-0.034,0.034-0.103,0l-2.23-1.176c-0.173-0.086-0.225-0.121-0.225-0.363v-5.464
				c0-0.087,0.033-0.121,0.138-0.156l3.649-1.176c0.052-0.017,0.103-0.034,0.139,0.035l1.365,2.42
				C95.077,26.264,95.077,26.316,95.006,26.351z M91.981,24.673l-0.034,0.016v3.356l1.21-1.004c0.069-0.051,0.069-0.087,0.034-0.138
				L91.981,24.673z M97.427,32.073c-0.07,0.069-0.086,0.052-0.138,0.017l-1.401-1.245c-0.172-0.139-0.172-0.173-0.172-0.398v-7.676
				c0-0.086,0-0.104-0.087-0.173l-0.172-0.156c-0.173-0.155-0.243-0.121-0.467-0.016l-0.346,0.155
				c-0.052,0.017-0.104-0.052-0.017-0.139l1.832-1.538c0.069-0.069,0.069-0.052,0.121-0.017l1.107,1.021
				c0.139,0.138,0.208,0.224,0.208,0.449v7.608c0,0.069-0.018,0.138,0.051,0.189l0.399,0.345c0.103,0.086,0.276,0.19,0.431,0.139
				l0.139-0.052c0.173-0.069,0.207,0.034,0.104,0.121L97.427,32.073z M104.637,26.351l-3.06,1.919v1.469
				c0,0.138,0.016,0.19,0.138,0.242L102.7,30.5c0.172,0.086,0.467,0.173,0.639,0.069l0.917-0.535
				c0.156-0.087,0.276-0.035,0.19,0.035l-2.507,2.022c-0.051,0.052-0.034,0.034-0.103,0l-2.23-1.176
				c-0.173-0.086-0.226-0.121-0.226-0.363v-5.464c0-0.087,0.035-0.121,0.139-0.156l3.649-1.176c0.052-0.017,0.104-0.034,0.138,0.035
				l1.366,2.42C104.706,26.264,104.706,26.316,104.637,26.351z M101.61,24.673l-0.033,0.016v3.356l1.21-1.004
				c0.068-0.051,0.068-0.087,0.033-0.138L101.61,24.673z M110.93,33.266l-1.902,1.538c-0.051,0.052-0.086,0.035-0.12,0.017
				c-1.004-0.674-1.799-0.985-2.663-0.985c-0.606,0-1.211,0.12-1.989,0.328c-0.069,0.018-0.086-0.034-0.052-0.086
				c0.812-1.227,1.816-1.607,2.75-1.607c1.383,0,2.679,0.847,3.198,1.192l0.052-0.034c0.138-0.311,0.19-0.606,0.19-0.882
				c0-0.881-0.726-1.59-1.625-2.04l-1.868,1.383c-0.069,0.052-0.121,0.034-0.172-0.017l-1.176-1.072
				c-0.173-0.155-0.208-0.224-0.208-0.398v-5.048c0-0.087,0.069-0.104,0.104-0.121l3.977-1.643c0.104-0.052,0.172-0.052,0.207-0.017
				l1.108,1.107c0.138,0.138,0.207,0.242,0.207,0.363v4.6c0.726,0.536,1.038,1.071,1.038,1.607
				C111.985,32.056,111.691,32.644,110.93,33.266z M108.769,25.607c0-0.07-0.017-0.121-0.086-0.19l-0.64-0.639
				c-0.034-0.035-0.052-0.017-0.104,0l-0.415,0.189v4.962c0,0.276,0.071,0.311,0.346,0.57c0.156,0.139,0.241,0.19,0.398,0.19
				c0.139,0,0.363-0.104,0.501-0.19V25.607z M116.566,25.987c-0.086,0.07-0.172,0.104-0.258,0.104c-0.087,0-0.174-0.034-0.259-0.104
				l-1.055-0.899l-0.103,0.086v4.806c0,0.104,0,0.122,0.069,0.173l0.277,0.242c0.294,0.242,0.363,0.276,0.674,0.156l0.208-0.087
				c0.138-0.052,0.172,0.017,0.086,0.103l-1.781,1.505c-0.068,0.069-0.086,0.052-0.138,0.017l-1.366-1.227
				c-0.155-0.139-0.208-0.19-0.208-0.381v-4.927l-0.414-0.432c-0.035-0.035-0.052-0.035-0.104,0l-0.519,0.294
				c-0.155,0.086-0.208-0.035-0.103-0.121l1.78-1.505c0.069-0.052,0.104-0.052,0.139-0.017l1.21,1.193l1.193-1.176
				c0.069-0.052,0.121-0.069,0.189,0l0.917,0.848c0.173,0.155,0.276,0.242,0.381,0.242c0.069,0,0.156-0.034,0.26-0.103l0.241-0.157
				c0.156-0.103,0.225,0.052,0.139,0.139L116.566,25.987z M122.946,32.073c-0.069,0.069-0.087,0.052-0.139,0.017l-1.574-1.383
				l-1.867,1.383c-0.069,0.052-0.086,0.034-0.156-0.017l-1.192-1.072c-0.19-0.155-0.208-0.19-0.208-0.398v-5.048
				c0-0.087,0.069-0.104,0.104-0.121l4.012-1.66c0.068-0.034,0.137-0.034,0.206,0.034l1.072,1.072
				c0.156,0.155,0.208,0.242,0.208,0.346v4.876l0.311,0.276c0.381,0.328,0.433,0.311,0.606,0.224l0.242-0.121
				c0.155-0.086,0.277-0.017,0.138,0.104L122.946,32.073z M121.234,25.641c0-0.104-0.016-0.156-0.103-0.242l-0.623-0.622
				c-0.034-0.035-0.034-0.017-0.087,0l-0.431,0.189v4.998c0,0.172,0.034,0.259,0.155,0.363l0.225,0.207
				c0.155,0.139,0.346,0.208,0.571,0.104l0.293-0.139V25.641L121.234,25.641z M131.089,30.81l-1.573,1.211
				c-0.174,0.138-0.209,0.103-0.416-0.017l-1.642-1.004v2.022l0.466,0.399c0.052,0.033,0.052,0.069,0,0.121l-1.365,1.262
				c-0.034,0.017-0.069,0.052-0.139,0l-1.521-1.227c-0.052-0.034-0.033-0.069,0-0.122l0.381-0.432V25.59l-0.381-0.467
				c-0.017-0.018-0.033-0.018-0.069,0l-0.519,0.259c-0.12,0.069-0.207-0.017-0.104-0.103l1.763-1.487
				c0.052-0.052,0.121-0.052,0.156-0.017l1.279,1.262l2.317-1.245c0.07-0.035,0.121-0.017,0.138,0l1.16,1.072
				c0.086,0.086,0.19,0.225,0.19,0.38v5.291C131.211,30.655,131.211,30.724,131.089,30.81z M129.031,25.693
				c0-0.103-0.034-0.19-0.103-0.259l-0.484-0.467c-0.034-0.034-0.069-0.034-0.121-0.017l-0.864,0.329v5.48l0.484,0.156
				c0.397,0.121,0.57,0.104,0.743-0.051l0.173-0.156c0.156-0.139,0.172-0.294,0.172-0.57V25.693z M137.921,32.073
				c-0.07,0.069-0.07,0.052-0.121,0.017l-1.383-1.227c-0.138-0.122-0.207-0.225-0.207-0.45v-4.738c0-0.052,0-0.104-0.07-0.156
				l-0.467-0.415c-0.052-0.033-0.121-0.051-0.189-0.016l-0.883,0.414v4.462c0,0.069-0.017,0.138,0.052,0.189l0.397,0.345
				c0.104,0.086,0.277,0.19,0.433,0.139l0.138-0.052c0.173-0.069,0.207,0.034,0.103,0.121l-1.59,1.366
				c-0.069,0.069-0.087,0.052-0.139,0.017l-1.401-1.245c-0.172-0.139-0.172-0.173-0.172-0.398v-7.676c0-0.086,0-0.104-0.087-0.173
				l-0.173-0.156c-0.173-0.155-0.242-0.121-0.466-0.016l-0.346,0.155c-0.052,0.017-0.104-0.052-0.017-0.139l1.832-1.538
				c0.07-0.069,0.07-0.052,0.122-0.017l1.107,1.021c0.139,0.138,0.207,0.224,0.207,0.449v2.887l2.3-1.452
				c0.07-0.035,0.138-0.035,0.19,0.017l1.124,1.038c0.155,0.138,0.189,0.242,0.189,0.414v4.738c0,0.087,0,0.104,0.086,0.173
				l0.433,0.363c0.172,0.156,0.241,0.121,0.466,0.018l0.346-0.156c0.052-0.017,0.104,0.052,0.017,0.138L137.921,32.073z"/>
		</g>
	</g>
</g>
</svg>
