<?xml version="1.0" encoding="utf-8"?>
<!-- Generator: Adobe Illustrator 17.0.1, SVG Export Plug-In . SVG Version: 6.00 Build 0)  -->
<!DOCTYPE svg PUBLIC "-//W3C//DTD SVG 1.1//EN" "http://www.w3.org/Graphics/SVG/1.1/DTD/svg11.dtd">
<svg version="1.1" id="Capa_1" xmlns="http://www.w3.org/2000/svg" xmlns:xlink="http://www.w3.org/1999/xlink" x="0px" y="0px"
	 width="155px" height="55px" viewBox="0 0 155 55" enable-background="new 0 0 155 55" xml:space="preserve">
<g>
	<g id="twp_x5F_full_1_" transform="translate(-5.8200074,-0.94)">
		<g id="g12_1_">
			<path id="path14_2_" fill="#231F20" d="M26.228,24.657v6.964c0.941-0.508,1.6-1.393,1.92-2.391l0.075,0.038
				c-0.207,2.485-1.901,4.969-4.536,4.969c-2.654,0-4.612-1.976-4.612-5.139c0-2.371,1.543-3.859,3.52-5.195
				c-0.282-0.075-0.584-0.113-0.885-0.113c-1.355,0-2.146,0.922-2.146,1.864h-0.113c-0.019-0.132-0.019-0.263-0.019-0.395
				c0-1.675,0.885-3.708,3.031-3.708c1.374,0,2.428,1.261,4.028,1.261c0.64,0,1.43-0.301,1.75-0.998h0.056
				C28.279,23.038,27.903,24.299,26.228,24.657z M27.244,31.791c-0.941,0.997-1.958,1.845-3.275,1.845
				c-2.447,0-4.329-1.92-4.329-4.706c0-1.637,0.678-2.522,1.43-3.557h-0.075c-0.471,0.471-1.713,1.656-1.713,3.67
				c0,3.087,1.939,4.988,4.48,4.988c1.769,0,2.974-1.223,3.52-2.221L27.244,31.791z M27.997,22.662
				c-0.32,0.602-0.997,1.374-2.371,1.374c-1.374,0-2.635-0.941-3.746-0.941c-1.017,0-1.713,0.678-1.976,1.186l0.019,0.038
				c0.358-0.358,0.903-0.715,1.788-0.715c1.468,0,2.409,0.904,3.896,0.904c1.581,0,2.296-1.036,2.428-1.826L27.997,22.662z
				 M22.764,23.961c-0.96,0.998-1.845,2.089-1.845,4.216c0,1.167,0.395,2.371,1.28,3.124l0.546-0.283v-5.044l-0.508,0.263
				l-0.094-0.188l2.635-1.431C24.063,24.469,23.423,24.149,22.764,23.961z M26.02,24.695c-0.132,0.019-0.263,0.019-0.414,0.019
				c-0.263,0-0.508-0.019-0.753-0.075v5.496l-2.466,1.337c0.508,0.376,1.129,0.602,1.92,0.602c0.64,0,1.205-0.132,1.713-0.358
				L26.02,24.695L26.02,24.695z M23.31,25.655l-0.358,0.207v5.045l0.358-0.188V25.655z M34.133,26.37v6.513
				c0,1.807-1.6,3.031-3.388,3.388l-0.038-0.075c0.885-0.433,1.393-1.318,1.393-2.259v-6.739l-1.016-0.922l-0.395,0.433v5.252
				l0.565,0.508v0.038l-1.524,1.656l-1.75-1.6v-0.075l0.678-0.715v-8.319l1.995-2.127l0.038,0.019v5.044l1.638-1.769l1.713,1.544
				l0.32-0.339l0.151,0.132L34.133,26.37z M28.863,32.525v-0.038l0.395-0.396v-8.959l-0.395,0.414v8.357l-0.602,0.602v0.038
				l1.468,1.318l0.263-0.301C29.992,33.56,28.863,32.525,28.863,32.525z M32.703,26.897l-1.224-1.054l-0.263,0.282l1.092,0.979
				v6.776c0,0.452-0.094,0.922-0.263,1.186l0.019,0.019c0.471-0.339,0.64-0.847,0.64-1.506L32.703,26.897L32.703,26.897z
				 M37.126,30.153v0.96l1.826,1.43l1.054-1.129l0.151,0.15l-2.447,2.616l-2.485-1.995l-0.376,0.395l-0.151-0.15l0.433-0.452v-4.762
				l3.557-2.598l1.864,3.012L37.126,30.153z M35.733,31.81v-4.781l-0.395,0.283v4.687l2.334,1.901l0.301-0.32L35.733,31.81z
				 M37.164,26.012l-0.038,0.019v3.859l1.675-1.224L37.164,26.012z M37.653,25.636l-0.339,0.244l1.657,2.654l0.339-0.245
				L37.653,25.636z"/>
			<path id="path16_3_" fill="#231F20" d="M52.821,34.162l-2.616-2.259l-1.995,2.259l-2.71-2.334v-3.689h-0.527
				c-0.471,0-0.715,0.301-0.828,0.659h-0.056c-0.038-0.15-0.094-0.414-0.094-0.715c0-0.49,0.132-1.769,1.506-1.769v-3.238
				c0-0.621-0.734-0.866-0.734-1.694c0-1.073,1.016-2.127,2.88-2.786l0.075,0.056c-0.678,0.396-1.035,0.772-1.035,1.581
				c0,1.242,1.205,0.922,1.205,2.88v0.753l2.202-2.315l2.315,2.277l2.183-2.277l2.108,2.07v6.964L52.821,34.162z M46.101,31.527
				v-3.971h-1.054c-0.546,0-0.79,0.357-0.828,0.678l0.019,0.019c0.188-0.207,0.377-0.32,0.809-0.32h0.659v3.802l2.485,2.146
				l0.282-0.339L46.101,31.527z M46.101,22.888c0-0.772-0.678-1.035-0.678-1.524c0-0.678,0.263-1.242,0.678-1.769l-0.038-0.019
				c-0.565,0.433-1.092,1.13-1.092,1.807c0,0.678,0.734,0.998,0.734,1.6v3.332h0.395V22.888z M50.073,24.77l-1.43-1.393
				l-0.753,0.772v6.663l1.713,1.449l0.471-0.527V24.77z M50.675,31.49v-6.983l-1.6-1.581l-0.301,0.301l1.506,1.449v7.021
				l2.541,2.202l0.301-0.283L50.675,31.49z M54.327,24.525l-1.186-1.13l-0.678,0.696v6.701l1.845,1.619l0.019-0.019V24.525z
				 M54.929,24.262l-1.374-1.336l-0.282,0.301l1.261,1.205v7.868l0.395-0.377V24.262z"/>
			<path id="path18_2_" fill="#231F20" d="M62.927,34.162l-1.788-1.619l-1.6,1.619l-1.958-1.732l-0.264,0.282l-0.15-0.15
				l0.339-0.358v-5.044l3.539-2.56l2.033,1.581l0.358-0.377l0.151,0.151l-0.414,0.433v5.214l0.997,0.922l0.32-0.339l0.15,0.132
				L62.927,34.162L62.927,34.162z M58.109,32.073v-5.082l-0.395,0.282v4.988l1.807,1.619l0.301-0.301L58.109,32.073L58.109,32.073z
				 M61.139,27.123l-1.543-1.205l-0.056,0.038v5.477l1.28,1.11l0.32-0.32V27.123z M61.741,32.243v-5.402l-1.6-1.299l-0.376,0.263
				l1.581,1.242v5.383l1.581,1.43l0.282-0.301L61.741,32.243z M68.405,28.026h1.939v4.028l-2.993,2.108
				c-0.395-0.452-0.96-0.772-1.656-0.772c-0.565,0-1.017,0.188-1.619,0.696l-0.094-0.038l2.56-3.727H64.96v-3.501l3.144-2.183
				c0.376,0.301,0.659,0.47,1.148,0.47c0.377,0,0.922-0.075,1.336-0.414l0.075,0.038L68.405,28.026z M66.296,32.845
				c-0.546,0-0.979,0.188-1.355,0.452v0.038c0.301-0.132,0.602-0.169,0.885-0.169c0.433,0,1.111,0.207,1.562,0.734l0.433-0.32
				C67.463,33.165,67.031,32.845,66.296,32.845L66.296,32.845z M68.31,29.683h-1.054l-2.202,3.181l0.019,0.038
				c0.546-0.395,1.073-0.659,1.713-0.659c0.565,0,1.148,0.263,1.506,0.715l0.019-0.019V29.683z M65.562,29.683v-3.03l-0.395,0.282
				v3.162h1.524l0.301-0.414L65.562,29.683L65.562,29.683z M69.496,25.993c-0.395,0.283-0.621,0.433-1.28,0.433
				c-0.377,0-0.828-0.169-1.186-0.546l-0.038,0.019v2.748h0.715l1.807-2.635L69.496,25.993z M68.593,25.824
				c-0.339,0-0.772-0.169-1.054-0.546l-0.471,0.32c0.358,0.433,0.696,0.621,1.223,0.621c0.339,0,0.828-0.094,1.336-0.527
				l0.019-0.056C69.327,25.768,68.932,25.824,68.593,25.824z M68.913,29.062h-1.224l-0.282,0.395h1.111v3.651l0.395-0.282V29.062z
				 M76.837,26.37v6.513c0,1.807-1.6,3.031-3.388,3.388l-0.038-0.075c0.885-0.433,1.393-1.318,1.393-2.259v-6.739l-1.016-0.922
				l-0.395,0.433v5.252l0.565,0.508v0.038l-1.524,1.656l-1.75-1.6v-0.075l0.678-0.715v-8.319l1.995-2.127l0.038,0.019v5.044
				l1.638-1.769l1.713,1.544l0.32-0.339l0.151,0.132L76.837,26.37z M71.567,32.525v-0.038l0.395-0.396v-8.96l-0.395,0.414v8.357
				l-0.602,0.602v0.038l1.468,1.318l0.263-0.301L71.567,32.525z M75.406,26.897l-1.224-1.054l-0.263,0.282l1.092,0.979v6.776
				c0,0.452-0.094,0.922-0.263,1.186l0.019,0.019c0.471-0.339,0.64-0.847,0.64-1.506L75.406,26.897L75.406,26.897z M80.263,34.162
				l-1.619-1.487l-0.377,0.395l-0.151-0.151l0.433-0.47v-5.44l-0.79-0.753l-0.301,0.339l-0.151-0.151l1.694-1.845l1.506,1.355
				l0.377-0.414l0.169,0.132l-0.471,0.508v5.496l0.904,0.847l0.414-0.433l0.15,0.151L80.263,34.162L80.263,34.162z M79.152,32.318
				v-5.609l-0.979-0.903l-0.263,0.301l0.847,0.809v5.59l1.506,1.355l0.282-0.301L79.152,32.318z M79.717,24.45l-1.543-1.412
				l1.412-1.506l1.543,1.412L79.717,24.45z M78.757,22.737l-0.282,0.282l1.223,1.148l0.282-0.32L78.757,22.737z"/>
			<path id="path20_1_" fill="#231F20" d="M88.222,34.162l-1.638-1.487v-5.496l-0.998-0.903l-0.527,0.565v5.082l0.584,0.546v0.075
				L84.1,34.162l-1.751-1.6v-0.056l0.678-0.715v-4.743l-0.885-0.809l-0.358,0.395l-0.15-0.15l1.713-1.864l1.713,1.525v0.376
				l1.788-1.901l1.675,1.506l0.377-0.395l0.169,0.15l-0.452,0.471v5.383l0.847,0.79l0.414-0.452l0.15,0.15L88.222,34.162
				L88.222,34.162z M83.253,32.525v-0.038c0,0.038,0.377-0.377,0.377-0.377v-5.346l-1.073-0.979l-0.264,0.282l0.941,0.866v4.969
				l-0.584,0.602v0.038l1.449,1.318l0.301-0.32L83.253,32.525z M87.186,32.374v-5.515l-1.167-1.054l-0.301,0.32l1.073,0.96v5.477
				l1.412,1.318l0.301-0.32L87.186,32.374L87.186,32.374z M93.53,37.55c-0.621-0.678-1.054-0.96-1.637-0.96
				c-0.621,0-1.336,0.245-2.07,0.64l-0.056-0.056l2.598-3.012l-1.845-1.468l-0.358,0.377l-0.15-0.132l0.414-0.452v-5.327L94,24.601
				l1.995,1.581l0.339-0.377l0.15,0.151l-0.395,0.433v6.438c0,0.979,0.546,0.941,0.546,1.675
				C96.635,35.348,95.412,36.139,93.53,37.55L93.53,37.55z M91.026,32.337V27.01l-0.395,0.283v5.214l1.863,1.506l0.283-0.339
				L91.026,32.337z M92.344,36.101c-0.621,0-1.186,0.188-1.713,0.546v0.038c0.339-0.132,0.715-0.301,1.355-0.301
				c0.584,0,1.073,0.32,1.562,0.885l0.377-0.301C93.454,36.421,92.89,36.101,92.344,36.101L92.344,36.101z M94.64,34.294
				c-0.47-0.301-0.584-0.621-0.584-1.43v-0.339l-3.125,3.614l0.019,0.019c0.602-0.357,1.148-0.621,2.033-0.621
				c0.753,0,1.261,0.301,1.845,0.79c0.358-0.301,0.602-0.602,0.602-1.073C95.431,34.878,95.111,34.595,94.64,34.294L94.64,34.294z
				 M94.057,27.123L92.494,25.9l-0.038,0.038v5.778l1.205,0.941l0.395-0.452V27.123z M95.205,34.031
				c-0.49-0.377-0.546-0.696-0.546-1.506v-5.722l-1.581-1.28l-0.357,0.245l1.543,1.223v5.797c0,0.809,0.038,1.036,0.546,1.374
				c0.452,0.301,0.809,0.621,0.809,1.054c0,0.113-0.019,0.301-0.019,0.301l0.019,0.019c0.094-0.094,0.207-0.245,0.207-0.49
				C95.826,34.633,95.619,34.351,95.205,34.031z M99.722,34.162l-1.732-1.355l-0.358,0.395l-0.15-0.151l0.414-0.452v-6.588h-1.092
				l-0.038-0.038l0.659-0.979h0.47v-1.261l1.995-2.127l0.038,0.038v3.35h1.506l0.038,0.038l-0.659,0.979h-0.885v5.703l1.036,0.791
				l0.395-0.433l0.15,0.15L99.722,34.162z M98.499,23.415l-0.395,0.433v1.148h0.395V23.415z M98.499,32.412v-6.4h-0.395v6.626
				l1.6,1.242l0.282-0.301L98.499,32.412L98.499,32.412z M107.665,26.558v5.27l-3.181,2.353l-2.391-1.807l-0.282,0.32l-0.15-0.151
				L102,32.167V27.01l3.332-2.391l2.221,1.732l0.357-0.377l0.151,0.15L107.665,26.558L107.665,26.558z M102.602,31.979v-5.139
				l-0.396,0.282v5.063l2.259,1.732l0.358-0.263L102.602,31.979L102.602,31.979z M105.633,27.179l-1.581-1.242l-0.019,0.019v5.609
				l1.6,1.205L105.633,27.179L105.633,27.179z M106.235,26.841l-1.751-1.355l-0.357,0.263l1.713,1.318v5.854l0.395-0.301
				L106.235,26.841L106.235,26.841z M114.856,34.162l-1.638-1.487v-5.496l-0.998-0.903l-0.527,0.565v5.082l0.584,0.546v0.075
				l-1.543,1.619l-1.751-1.6v-0.056l0.678-0.715v-4.743l-0.885-0.809l-0.358,0.395l-0.15-0.15l1.713-1.864l1.713,1.525v0.376
				l1.788-1.901l1.675,1.506l0.376-0.395l0.169,0.15l-0.452,0.471v5.383l0.847,0.79l0.414-0.452l0.15,0.15L114.856,34.162z
				 M109.886,32.525v-0.038c0,0.038,0.377-0.377,0.377-0.377v-5.346l-1.073-0.979l-0.263,0.282l0.941,0.866v4.969l-0.584,0.602
				v0.038l1.449,1.318l0.301-0.32L109.886,32.525L109.886,32.525z M113.82,32.374v-5.515l-1.167-1.054l-0.301,0.32l1.073,0.96v5.477
				l1.412,1.318l0.301-0.32L113.82,32.374z"/>
			<path id="path22_2_" fill="#231F20" d="M126.484,34.162c-0.527-0.565-0.715-0.753-1.336-0.922v0.414v3.275l-0.038,0.019
				l-0.753-0.678l-2.183,2.014l-0.038-0.019v-5.063c-0.659,0.15-1.355,0.49-2.033,1.167l-0.038-0.019
				c0.132-1.449,0.847-2.522,2.07-2.936v-3.67h-0.395c-0.546,0-0.847,0.282-1.11,0.79h-0.056c-0.056-0.169-0.094-0.433-0.094-0.866
				c0-0.791,0.584-1.619,1.544-1.619h0.113v-2.033l-0.772-0.696l-0.377,0.377l-0.132-0.132l1.901-2.014l1.769,1.619v1.713
				l0.414-0.452v-2.165h0.207v1.976l2.503-2.692l2.127,1.939v8.188L126.484,34.162L126.484,34.162z M122.136,32.506
				c-0.772,0.15-1.317,0.621-1.675,1.242l0.019,0.038c0.527-0.452,1.016-0.659,1.656-0.809L122.136,32.506L122.136,32.506z
				 M122.738,27.104h-1.035c-0.715,0-0.998,0.452-1.016,0.979l0.019,0.019c0.226-0.377,0.452-0.508,0.903-0.564h0.734v10.258
				l0.395-0.377V27.104z M122.738,23.716l-0.941-0.866l-0.301,0.32l0.847,0.753v2.127h0.395L122.738,23.716L122.738,23.716z
				 M124.941,24.789l-0.414,0.433V36.12l0.414,0.377V24.789z M127.406,24.356l-1.111-1.016l-1.148,1.242v6.625
				c0.979,0.094,1.656,0.377,2.24,1.016l0.019-0.019V24.356z M125.148,32.506v0.49c0.64,0.15,0.903,0.339,1.355,0.866l0.433-0.339
				C126.484,32.958,126.032,32.619,125.148,32.506L125.148,32.506z M128.009,24.055l-1.28-1.186l-0.301,0.32l1.186,1.092v8.753
				l0.395-0.301V24.055z M136.347,26.558v5.27l-3.181,2.353l-2.39-1.807l-0.283,0.32l-0.15-0.151l0.339-0.376V27.01l3.332-2.391
				l2.221,1.732l0.357-0.377l0.151,0.15L136.347,26.558z M131.284,31.979v-5.139l-0.396,0.282v5.063l2.259,1.732l0.358-0.263
				L131.284,31.979L131.284,31.979z M134.314,27.179l-1.581-1.242l-0.019,0.019v5.609l1.6,1.205L134.314,27.179L134.314,27.179z
				 M134.917,26.841l-1.751-1.355l-0.357,0.263l1.713,1.318v5.854l0.395-0.301V26.841L134.917,26.841z M140.714,28.026h1.939v4.028
				l-2.993,2.108c-0.395-0.452-0.96-0.772-1.656-0.772c-0.565,0-1.016,0.188-1.619,0.696l-0.094-0.038l2.56-3.727h-1.581v-3.501
				l3.144-2.183c0.377,0.301,0.659,0.47,1.148,0.47c0.377,0,0.922-0.075,1.336-0.414l0.075,0.038L140.714,28.026L140.714,28.026z
				 M138.606,32.845c-0.546,0-0.979,0.188-1.355,0.452v0.038c0.301-0.132,0.602-0.169,0.885-0.169c0.433,0,1.11,0.207,1.562,0.734
				l0.433-0.32C139.773,33.165,139.34,32.845,138.606,32.845z M140.62,29.683h-1.054l-2.202,3.181l0.019,0.038
				c0.546-0.395,1.073-0.659,1.713-0.659c0.565,0,1.148,0.263,1.506,0.715l0.019-0.019L140.62,29.683L140.62,29.683z
				 M137.872,29.683v-3.03l-0.396,0.282v3.162h1.524l0.301-0.414L137.872,29.683L137.872,29.683z M141.806,25.993
				c-0.396,0.283-0.621,0.433-1.28,0.433c-0.377,0-0.828-0.169-1.186-0.546l-0.038,0.019v2.748h0.715l1.807-2.635L141.806,25.993
				L141.806,25.993z M140.902,25.824c-0.339,0-0.772-0.169-1.054-0.546l-0.471,0.32c0.358,0.433,0.696,0.621,1.224,0.621
				c0.339,0,0.828-0.094,1.336-0.527l0.019-0.056C141.636,25.768,141.241,25.824,140.902,25.824L140.902,25.824z M141.222,29.062
				h-1.223l-0.282,0.395h1.11v3.651l0.395-0.282L141.222,29.062L141.222,29.062z M145.777,34.162l-1.732-1.355l-0.358,0.395
				l-0.15-0.151l0.414-0.452v-6.588h-1.092l-0.038-0.038l0.659-0.979h0.47v-1.261l1.995-2.127l0.038,0.038v3.35h1.506l0.038,0.038
				l-0.659,0.979h-0.884v5.703l1.035,0.791l0.395-0.433l0.15,0.15L145.777,34.162L145.777,34.162z M144.554,23.415l-0.395,0.433
				v1.148h0.395V23.415z M144.554,32.412v-6.4h-0.395v6.626l1.6,1.242l0.282-0.301L144.554,32.412L144.554,32.412z"/>
		</g>
	</g>
</g>
</svg>
