<?xml version="1.0" encoding="utf-8"?>
<!-- Generator: Adobe Illustrator 17.0.1, SVG Export Plug-In . SVG Version: 6.00 Build 0)  -->
<!DOCTYPE svg PUBLIC "-//W3C//DTD SVG 1.1//EN" "http://www.w3.org/Graphics/SVG/1.1/DTD/svg11.dtd">
<svg version="1.1" id="Capa_1" xmlns="http://www.w3.org/2000/svg" xmlns:xlink="http://www.w3.org/1999/xlink" x="0px" y="0px"
	 width="155px" height="55px" viewBox="0 0 155 55" enable-background="new 0 0 155 55" xml:space="preserve">
<g>
	<g>
		<g>
			<g>
				<g id="g61944" transform="translate(-94.426 245.48)">
					<g id="g61946">
						<g id="g61952">
							<g id="g61958" transform="translate(365.04 321.59)">
								<path id="path61960" d="M-54.403-51.554l1.009-0.428v0.856L-54.403-51.554z M-52.296-50.666l-0.691-0.292v-1.193
									l0.691-0.292v-0.531l-3.059,1.391v0.073l3.059,1.388V-50.666"/>
							</g>
						</g>
					</g>
				</g>
				<g id="g61736" transform="matrix(0 1.25 1.25 0 -723.65 -191.62)">
					<g id="g62870" transform="matrix(.39478 0 0 .39478 92.776 443.11)">
						<defs>
							<polygon id="SVGID_1_" points="351.412,-77.538 444.347,-77.538 444.347,101.697 351.412,101.697 351.412,-77.538 							"/>
						</defs>
						<clipPath id="SVGID_2_">
							<use xlink:href="#SVGID_1_"  overflow="visible"/>
						</clipPath>
						<g id="g61962" transform="translate(-94.426 245.48)" clip-path="url(#SVGID_2_)">
							<g>
								<defs>
									<rect id="SVGID_3_" x="280.426" y="69.332" width="278.913" height="180.473"/>
								</defs>
								<clipPath id="SVGID_4_">
									<use xlink:href="#SVGID_3_"  overflow="visible"/>
								</clipPath>
								<g id="g61964" clip-path="url(#SVGID_4_)">
									<g id="g61970">
										<defs>
											<rect id="SVGID_5_" x="280.426" y="69.332" width="278.913" height="180.473"/>
										</defs>
										<clipPath id="SVGID_6_">
											<use xlink:href="#SVGID_5_"  overflow="visible"/>
										</clipPath>
										<g id="g61976" clip-path="url(#SVGID_6_)">
											<g id="g61982" transform="translate(370.05 389.83)">
												<path id="path61984" d="M37.169-335.906c0-0.954-0.658-1.625-1.555-1.625c-0.894,0-1.56,0.681-1.56,1.625
													c0,0.374,0.12,0.717,0.275,0.972l0.437-0.178c-0.136-0.239-0.231-0.535-0.231-0.803c0-0.662,0.441-1.065,1.079-1.065
													c0.634,0,1.074,0.415,1.074,1.078c0,0.267-0.094,0.58-0.239,0.822l0.437,0.156
													C37.046-335.173,37.169-335.532,37.169-335.906"/>
											</g>
											<g id="g61986" transform="translate(363.88 396.98)">
												<path id="path61988" d="M40.683-339.979c0-0.576,0.468-0.975,1.098-0.975c0.626,0,1.099,0.399,1.099,0.975
													c0,0.572-0.473,0.971-1.099,0.971C41.152-339.008,40.683-339.407,40.683-339.979 M43.337-339.995
													c0-0.873-0.662-1.512-1.556-1.512c-0.896,0-1.559,0.667-1.559,1.54c0,0.873,0.663,1.511,1.559,1.511
													C42.675-338.456,43.337-339.123,43.337-339.995"/>
											</g>
											<g id="g61990" transform="translate(369.94 408.03)">
												<path id="path61992" d="M37.231-346.273l-1.808-0.041l1.441-0.951v-0.062l-1.444-0.959l1.811-0.033v-0.506l-3.054,0.128
													l-0.008,0.077l2,1.338l-2,1.306l0.008,0.082l3.054,0.129V-346.273"/>
											</g>
											<g id="g61994" transform="translate(363.98 413.51)">
												<path id="path61996" d="M40.626-349.395c0-0.115,0.009-0.23,0.025-0.337h1.104c0.007,0.102,0.015,0.198,0.015,0.287
													c0,0.464-0.242,0.679-0.584,0.679C40.889-348.765,40.626-348.975,40.626-349.395 M42.22-349.432
													c0-0.099-0.009-0.202-0.013-0.3h0.984v-0.516h-2.988c-0.034,0.267-0.049,0.519-0.049,0.766
													c0,0.828,0.452,1.251,1.016,1.251C41.782-348.23,42.22-348.662,42.22-349.432"/>
											</g>
											<g id="g61998" transform="translate(366.99 436.19)">
												<path id="path62000" d="M38.912-362.314h1.267v-0.514h-1.271l-1.745-1.063v0.59l1.276,0.74l-1.276,0.733v0.575
													L38.912-362.314"/>
											</g>
											<g id="g62002" transform="translate(365.04 419.99)">
												<path id="path62004" d="M40.023-353.086l1.009-0.427v0.856L40.023-353.086z M42.13-352.197l-0.691-0.293v-1.193
													l0.691-0.293v-0.531l-3.058,1.39v0.073l3.058,1.388V-352.197"/>
											</g>
											<g id="g62006" transform="translate(370.07 430.71)">
												<path id="path62008" d="M37.157-359.193l-1.99-1.889H37.1v-0.515h-3.059l-0.016,0.082l1.964,1.866h-1.905v0.513h3.062
													L37.157-359.193"/>
											</g>
											<g id="g62010" transform="translate(366.23 335.84)">
												<path id="path62012" d="M39.345-305.151h1.316c0.21-0.321,0.33-0.672,0.33-1.124c0-0.86-0.626-1.601-1.555-1.601
													c-0.939,0-1.56,0.753-1.56,1.601c0,0.445,0.122,0.762,0.312,1.07l0.411-0.235c-0.156-0.243-0.25-0.531-0.25-0.81
													c0-0.688,0.485-1.075,1.086-1.075c0.642,0,1.099,0.475,1.099,1.071c0,0.259-0.045,0.432-0.144,0.61h-0.594v-0.704
													h-0.451V-305.151"/>
											</g>
											<g id="g62014" transform="translate(365.04 340.5)">
												<path id="path62016" d="M40.023-307.806l1.009-0.428v0.856L40.023-307.806z M42.13-306.916l-0.691-0.293v-1.193
													l0.691-0.294v-0.53l-3.058,1.391v0.073l3.058,1.387V-306.916"/>
											</g>
											<g id="g62018" transform="translate(370.07 351.23)">
												<path id="path62020" d="M37.157-313.918l-1.99-1.889H37.1v-0.516h-3.059l-0.016,0.083l1.964,1.863h-1.905v0.515h3.062
													L37.157-313.918"/>
											</g>
											<g id="g62022" transform="translate(370.07 359.33)">
												<path id="path62024" d="M37.157-318.532l-1.99-1.889H37.1v-0.514h-3.059l-0.016,0.082l1.964,1.863h-1.905v0.515h3.062
													L37.157-318.532"/>
											</g>
											<g id="g62026" transform="translate(369.94 361.85)">
												<path id="path62028" d="M37.231-319.967h-3.016v1.839h0.469v-1.324h0.79v1.198h0.453v-1.198h0.836v1.324h0.469V-319.967
													"/>
											</g>
											<g id="g62030" transform="translate(364.02 371.39)">
												<path id="path62032" d="M40.604-325.402h2.547v-0.515h-2.547v-0.959h-0.469v2.428h0.469V-325.402"/>
											</g>
											<g id="g62034" transform="translate(364.02 378.47)">
												<path id="path62036" d="M40.604-329.435h2.547v-0.515h-2.547v-0.96h-0.469v2.429h0.469V-329.435"/>
											</g>
											<g id="g62038" transform="translate(348.29 478.75)">
												<path id="path62040" d="M49.564-386.558h-1.772v-0.662h-0.237v1.593h0.237v-0.665h1.772V-386.558"/>
											</g>
											<g id="g62042" transform="translate(348.29 481.52)">
												<path id="path62044" d="M49.564-388.136h-2.009v0.4l1.423,0.476c0.132,0.043,0.231,0.075,0.297,0.095
													c-0.072,0.023-0.18,0.059-0.321,0.107l-1.398,0.482v0.358h2.009v-0.256h-1.682l1.682-0.584v-0.24l-1.711-0.581h1.711
													V-388.136"/>
											</g>
											<g id="g62046" transform="translate(348.35 299.78)">
												<path id="path62048" fill="#009BFF" d="M49.53-284.61c23.917,0,43.307-19.389,43.307-43.307
													c0-23.916-19.389-43.307-43.307-43.307c-23.918,0-43.307,19.39-43.307,43.307C6.223-303.999,25.612-284.61,49.53-284.61
													"/>
											</g>
											<g id="g62050" transform="translate(292.14 314.03)">
												<path id="path62052" d="M81.549-292.727h-9.857v4.432h8.578c1.698,0,3.352,0.177,3.352,2.404
													c0,2.228-1.654,2.404-3.352,2.404h-8.578v4.432h9.857c3.815,0,5.932-2.448,5.932-6.837
													C87.481-290.412,85.364-292.727,81.549-292.727"/>
											</g>
											<g id="g62054" transform="translate(300.7 348.57)">
												<path id="path62056" d="M76.673-312.403l-2.955,2.139c0.948,0.794,1.808,2.117,1.808,3.639
													c0,1.146-0.485,1.83-1.389,1.83c-1.081,0-1.39-0.993-1.897-2.669c-0.684-2.25-1.852-4.233-4.521-4.233
													c-2.933,0-4.896,2.404-4.896,5.8c0,2.359,0.728,4.146,1.786,5.27l2.955-2.007c-0.728-0.639-1.345-1.72-1.345-3.043
													c0-1.146,0.463-1.632,1.08-1.632c0.97,0,1.235,1.17,1.632,2.449c0.794,2.513,1.94,4.453,4.785,4.453
													c2.977,0,5.204-2.138,5.204-5.997C78.922-309.25,77.709-311.454,76.673-312.403"/>
											</g>
											<g id="g62058" transform="translate(291.84 399.97)">
												<path id="path62060" d="M81.72-341.682l-3.726-1.192c-0.728-0.242-1.654-0.44-2.316-0.529v-0.133
													c0.661-0.088,1.588-0.287,2.316-0.528l3.726-1.191V-341.682z M71.996-345.851v4.874l15.48,5.754v-4.608l-2.227-0.727
													v-5.845l2.227-0.705v-4.498L71.996-345.851"/>
											</g>
											<g id="g62062" transform="translate(320.73 323.05)">
												<path id="path62064" d="M65.263-297.865v-3.815h-3.594v12.062h3.594v-3.814h11.886v-4.432H65.263"/>
											</g>
											<g id="g62066" transform="translate(330.42 371.83)">
												<path id="path62068" d="M59.743-325.652c-2.778,0-4.212-1.807-4.212-3.969c0-2.117,1.434-3.926,4.212-3.926
													c2.756,0,4.168,1.808,4.168,3.926C63.912-327.46,62.5-325.652,59.743-325.652 M59.743-338.089
													c-3.815,0-8.071,2.734-8.071,8.489c0,5.778,4.256,8.513,8.071,8.513c3.793,0,8.027-2.734,8.027-8.513
													C67.771-335.355,63.536-338.089,59.743-338.089"/>
											</g>
											<g id="g62070" transform="translate(340.05 396.43)">
												<path id="path62072" d="M54.258-339.666v0.949c0,2.844-1.367,4.366-4.168,4.366c-2.8,0-4.167-1.522-4.167-4.366v-0.949
													H54.258z M42.35-344.098v5.71c0,5.469,2.911,8.601,7.739,8.601c4.742,0,7.74-3.22,7.74-8.601v-5.71H42.35"/>
											</g>
											<g id="g62074" transform="translate(334.98 441.02)">
												<path id="path62076" d="M57.146-365.066l-3.727-1.192c-0.727-0.242-1.654-0.441-2.315-0.529v-0.133
													c0.661-0.088,1.588-0.287,2.315-0.529l3.727-1.191V-365.066z M47.421-369.234v4.874l15.48,5.754v-4.608l-2.227-0.727
													v-5.845l2.227-0.705v-4.499L47.421-369.234"/>
											</g>
											<g id="g62078" transform="translate(335.54 462.39)">
												<path id="path62080" d="M56.827-377.239l-9.967-5.778v4.851l3.814,2.095c0.816,0.441,2.051,1.059,2.867,1.191v0.088
													c-0.816,0.133-2.051,0.751-2.867,1.191l-3.814,2.095v4.718l9.967-5.778h5.513v-4.675H56.827"/>
											</g>
										</g>
									</g>
								</g>
							</g>
						</g>
					</g>
				</g>
			</g>
		</g>
	</g>
</g>
</svg>
