<?xml version="1.0" encoding="utf-8"?>
<!-- Generator: Adobe Illustrator 17.0.1, SVG Export Plug-In . SVG Version: 6.00 Build 0)  -->
<!DOCTYPE svg PUBLIC "-//W3C//DTD SVG 1.1//EN" "http://www.w3.org/Graphics/SVG/1.1/DTD/svg11.dtd">
<svg version="1.1" id="Capa_1" xmlns="http://www.w3.org/2000/svg" xmlns:xlink="http://www.w3.org/1999/xlink" x="0px" y="0px"
	 width="32px" height="32px" viewBox="0 0 32 32" enable-background="new 0 0 32 32" xml:space="preserve">
<path d="M0,12.005c0,6.627,5.373,12,12,12c2.031,0,3.941-0.509,5.617-1.4l8.341,8.34l-0.002,0.002
	c0.641,0.653,1.53,1.059,2.515,1.059c1.949,0,3.529-1.58,3.529-3.529c0-0.987-0.406-1.875-1.058-2.516l0.007-0.006l-8.344-8.342
	C23.493,15.938,24,14.031,24,12.005c0-6.627-5.373-12-12-12C5.373,0.005,0,5.378,0,12.005z M19.142,21.634
	c0.949-0.707,1.789-1.547,2.494-2.498l8.066,8.066l-0.009,0.008c0.333,0.323,0.543,0.768,0.543,1.266
	c0,0.975-0.79,1.764-1.765,1.764c-0.498,0-0.944-0.209-1.266-0.543C27.205,29.697,19.142,21.634,19.142,21.634z M2,12.006
	c0-5.522,4.479-10,10-10c5.522,0,10,4.479,10,10s-4.478,10-10,10C6.479,22.006,2,17.528,2,12.006z M19,12.005
	c0,0.276-0.224,0.5-0.5,0.5c-0.276,0-0.5-0.224-0.5-0.5c0-3.313-2.686-6-6-6c-0.275,0-0.5-0.224-0.5-0.5s0.225-0.5,0.5-0.5
	C15.867,5.005,19,8.139,19,12.005z"/>
</svg>
