<?xml version="1.0" encoding="utf-8"?>
<!-- Generator: Adobe Illustrator 17.0.1, SVG Export Plug-In . SVG Version: 6.00 Build 0)  -->
<!DOCTYPE svg PUBLIC "-//W3C//DTD SVG 1.1//EN" "http://www.w3.org/Graphics/SVG/1.1/DTD/svg11.dtd">
<svg version="1.1" id="Capa_1" xmlns="http://www.w3.org/2000/svg" xmlns:xlink="http://www.w3.org/1999/xlink" x="0px" y="0px"
	 width="264.333px" height="123.333px" viewBox="0 0 264.333 123.333" enable-background="new 0 0 264.333 123.333"
	 xml:space="preserve">
<path fill="#FFFFFF" d="M0.914,1.442h10.031L5.929,6.458L0.914,1.442z"/>
<path fill="#7ACE7A" d="M12.947,1.442h10.031l-5.016,5.016L12.947,1.442z"/>
<g>
	<path fill="#222222" d="M44.335,2.692c-7.733,0-14,6.267-14,14s6.267,14,14,14s14-6.267,14-14S52.068,2.692,44.335,2.692z
		 M44.335,28.067c-6.282,0-11.375-5.092-11.375-11.375S38.053,5.316,44.335,5.316s11.376,5.093,11.376,11.376
		S50.617,28.067,44.335,28.067z"/>
	<path fill="#222222" d="M48.711,9.692l-4.375,4.375l-4.375-4.375l-2.625,2.625l4.375,4.375l-4.375,4.375l2.625,2.625l4.375-4.375
		l4.375,4.375l2.625-2.625l-4.375-4.375l4.375-4.375L48.711,9.692z"/>
</g>
<path fill="#7B8085" d="M104.053,12.222l-2.47-2.47v-3.31h1.5v2.69l2.03,2.03L104.053,12.222z M102.333,3.442c-3.314,0-6,2.686-6,6
	s2.686,6,6,6s6-2.686,6-6S105.647,3.442,102.333,3.442z M102.333,13.942c-2.485,0-4.5-2.015-4.5-4.5s2.015-4.5,4.5-4.5
	s4.5,2.015,4.5,4.5S104.818,13.942,102.333,13.942z"/>
<path fill="#E13C42" d="M0.914,7.441h10.031l-5.016,5.016L0.914,7.441z"/>
<g>
	<path fill="#222222" d="M92,7.5c0,1.381-1.119,2.5-2.5,2.5h-22C66.119,10,65,8.881,65,7.5l0,0C65,6.119,66.119,5,67.5,5h22
		C90.881,5,92,6.119,92,7.5L92,7.5z"/>
	<path fill="#222222" d="M92,16.5c0,1.381-1.119,2.5-2.5,2.5h-22c-1.381,0-2.5-1.119-2.5-2.5l0,0c0-1.381,1.119-2.5,2.5-2.5h22
		C90.881,14,92,15.119,92,16.5L92,16.5z"/>
	<path fill="#222222" d="M92,25.5c0,1.381-1.119,2.5-2.5,2.5h-22c-1.381,0-2.5-1.119-2.5-2.5l0,0c0-1.381,1.119-2.5,2.5-2.5h22
		C90.881,23,92,24.119,92,25.5L92,25.5z"/>
</g>
<path fill="#222222" d="M3.833,31.373c0-0.342-0.283-0.625-0.625-0.625c-0.351,0-0.625,0.283-0.625,0.625
	c0,0.351,0.274,0.625,0.625,0.625C3.549,31.998,3.833,31.724,3.833,31.373z M5.395,26.373v6.25c0,0.342-0.283,0.625-0.625,0.625
	H1.958c-0.342,0-0.625-0.283-0.625-0.625v-6.25c0-0.342,0.283-0.625,0.625-0.625H4.77C5.112,25.748,5.395,26.032,5.395,26.373z
	 M16.957,26.373c0,0.517-0.205,1.074-0.537,1.455c0.107,0.312,0.146,0.606,0.146,0.742c0.019,0.488-0.127,0.947-0.42,1.338
	c0.107,0.361,0.107,0.752,0,1.142c-0.097,0.361-0.283,0.684-0.527,0.918c0.059,0.732-0.107,1.328-0.479,1.767
	c-0.42,0.498-1.064,0.752-1.924,0.762h-1.26c-1.396,0-2.715-0.459-3.769-0.821c-0.615-0.215-1.201-0.42-1.543-0.43
	c-0.332-0.01-0.625-0.283-0.625-0.625v-6.26c0-0.322,0.274-0.596,0.596-0.625c0.361-0.029,1.299-1.191,1.729-1.757
	c0.351-0.449,0.684-0.869,0.986-1.172c0.381-0.381,0.488-0.967,0.606-1.533c0.107-0.576,0.224-1.182,0.644-1.592
	c0.117-0.117,0.274-0.186,0.439-0.186c2.187,0,2.187,1.748,2.187,2.5c0,0.801-0.283,1.367-0.547,1.875
	c-0.107,0.215-0.205,0.312-0.283,0.625h2.705C16.097,24.499,16.956,25.358,16.957,26.373L16.957,26.373z"/>
<path fill="#222222" d="M4.64,51.944c0-0.316-0.261-0.577-0.577-0.577s-0.577,0.261-0.577,0.577s0.261,0.577,0.577,0.577
	S4.64,52.259,4.64,51.944z M15.025,46.751c0-0.613-0.55-1.154-1.154-1.154h-3.173c0-1.055,0.865-1.821,0.865-2.885
	c0-1.055-0.207-1.731-1.442-1.731c-0.577,0.586-0.279,1.965-1.154,2.885c-0.253,0.261-0.468,0.541-0.694,0.82
	c-0.406,0.523-1.478,2.064-2.191,2.064H5.794v5.769h0.288c0.505,0,1.334,0.324,1.821,0.496c0.992,0.343,2.019,0.658,3.083,0.658
	h1.091c1.019,0,1.731-0.406,1.731-1.505c0-0.171-0.018-0.343-0.045-0.505c0.378-0.207,0.586-0.721,0.586-1.136
	c0-0.216-0.054-0.433-0.162-0.622c0.306-0.288,0.478-0.649,0.478-1.073c0-0.288-0.126-0.712-0.316-0.928
	C14.772,47.897,15.025,47.085,15.025,46.751L15.025,46.751z M16.178,46.742c0,0.523-0.153,1.037-0.442,1.469
	c0.054,0.198,0.081,0.415,0.081,0.622c0,0.451-0.117,0.902-0.343,1.298c0.018,0.126,0.027,0.261,0.027,0.388
	c0,0.577-0.189,1.154-0.541,1.604c0.018,1.704-1.145,2.705-2.813,2.705h-1.163c-1.28,0-2.47-0.378-3.66-0.793
	c-0.261-0.09-0.992-0.361-1.244-0.361H3.486c-0.64,0-1.154-0.514-1.154-1.154v-5.769c0-0.64,0.514-1.154,1.154-1.154h2.47
	c0.351-0.234,0.965-1.046,1.235-1.397c0.306-0.397,0.622-0.784,0.965-1.154c0.541-0.577,0.253-2.001,1.154-2.885
	c0.216-0.207,0.505-0.333,0.811-0.333c0.938,0,1.839,0.333,2.281,1.208c0.279,0.55,0.316,1.072,0.316,1.677
	c0,0.631-0.162,1.172-0.433,1.731h1.587C15.114,44.444,16.178,45.498,16.178,46.742L16.178,46.742z"/>
<path fill="#E13C42" d="M37.667,42.167c0-0.547-0.453-1-1-1s-1,0.453-1,1s0.453,1,1,1S37.667,42.714,37.667,42.167z M55.667,51.167
	c0-0.578-0.438-1.984-1.172-2c0.328-0.375,0.547-1.109,0.547-1.609c0-0.734-0.297-1.359-0.828-1.859
	c0.187-0.328,0.281-0.703,0.281-1.078c0-0.719-0.359-1.609-1.016-1.969c0.047-0.281,0.078-0.578,0.078-0.875
	c0-1.828-1.156-2.609-2.891-2.609h-2c-1.844,0-3.625,0.547-5.344,1.141c-0.844,0.297-2.281,0.859-3.156,0.859h-0.5v10h0.5
	c1.234,0,3.094,2.672,3.797,3.578c0.391,0.484,0.766,0.969,1.203,1.422c1.516,1.594,1,3.984,2,5c2.141,0,2.5-1.172,2.5-3
	c0-1.844-1.5-3.172-1.5-5h5.5C54.713,53.168,55.666,52.23,55.667,51.167L55.667,51.167z M57.667,51.183c0,2.156-1.844,3.984-4,3.984
	h-2.75c0.469,0.969,0.75,1.906,0.75,3c0,1.031-0.063,1.969-0.547,2.906c-0.766,1.516-2.328,2.094-3.953,2.094
	c-0.531,0-1.031-0.219-1.406-0.578c-1.563-1.531-1.078-4-2-5.016c-0.594-0.625-1.141-1.297-1.672-1.984
	c-0.469-0.609-1.531-2.016-2.141-2.422h-4.281c-1.109,0-2-0.891-2-2v-10c0-1.109,0.891-2,2-2h4.5c0.438,0,1.703-0.469,2.156-0.625
	c2.25-0.781,4.203-1.375,6.609-1.375h1.75c2.844,0,4.891,1.687,4.875,4.609v0.078c0.609,0.781,0.938,1.781,0.938,2.781
	c0,0.219-0.016,0.453-0.047,0.672c0.391,0.688,0.594,1.469,0.594,2.25c0,0.359-0.047,0.734-0.141,1.078
	C57.401,49.385,57.667,50.276,57.667,51.183L57.667,51.183z"/>
<path fill="#E13C42" d="M103.499,43.167c0,0.547-0.453,1-1,1c-0.562,0-1-0.453-1-1c0-0.562,0.438-1,1-1
	C103.046,42.167,103.499,42.605,103.499,43.167z M105.999,51.167v-10c0-0.547-0.453-1-1-1h-4.5c-0.547,0-1,0.453-1,1v10
	c0,0.547,0.453,1,1,1h4.5C105.546,52.167,105.999,51.714,105.999,51.167z M123.64,48.839c0.531,0.594,0.859,1.5,0.859,2.328
	c-0.016,1.625-1.375,3-3,3h-4.328c0.125,0.5,0.281,0.656,0.453,1c0.406,0.812,0.875,1.719,0.875,3c0,1.203,0,4-3.5,4
	c-0.266,0-0.516-0.109-0.703-0.297c-0.672-0.656-0.859-1.625-1.031-2.547c-0.187-0.906-0.359-1.844-0.969-2.453
	c-0.484-0.484-1.016-1.156-1.578-1.875c-0.688-0.906-2.188-2.766-2.766-2.812c-0.516-0.047-0.953-0.484-0.953-1V41.167
	c0-0.547,0.469-0.984,1-1c0.547-0.016,1.484-0.344,2.469-0.688c1.687-0.578,3.797-1.313,6.031-1.313h2.016
	c1.375,0.016,2.406,0.422,3.078,1.219c0.594,0.703,0.859,1.656,0.766,2.828c0.391,0.375,0.688,0.891,0.844,1.469
	c0.172,0.625,0.172,1.25,0,1.828c0.469,0.625,0.703,1.359,0.672,2.141C123.875,47.87,123.812,48.339,123.64,48.839L123.64,48.839z"
	/>
<g>
	<path fill="#7B8085" d="M125.941,4.661h-3.657c-0.251,0-0.602,0.145-0.78,0.323l-4.534,4.534c-0.178,0.178-0.178,0.469,0,0.646
		l3.925,3.925c0.178,0.178,0.469,0.178,0.646,0l4.534-4.534c0.178-0.178,0.323-0.529,0.323-0.78V5.118
		C126.398,4.867,126.192,4.661,125.941,4.661z M123.655,8.318c-0.505,0-0.914-0.409-0.914-0.914s0.409-0.914,0.914-0.914
		c0.505,0,0.914,0.409,0.914,0.914S124.16,8.318,123.655,8.318z"/>
	<path fill="#7B8085" d="M115.427,9.841l5.181-5.181h-0.762c-0.251,0-0.602,0.145-0.78,0.323l-4.534,4.534
		c-0.178,0.178-0.178,0.469,0,0.646l3.925,3.925c0.178,0.178,0.469,0.178,0.646,0l0.286-0.286L115.427,9.841L115.427,9.841z"/>
</g>
<g>
	<path fill="#222222" d="M2.072,109.231v-0.894c0-2.684,2.045-4.984,4.984-4.984c1.022,0,2.269,0.671,2.62,1.693l-0.064-1.342
		c0-1.342-1.118-2.46-2.492-2.46c-0.639,0-1.565,0.383-2.428,1.214l-1.405-2.141c1.086-0.99,2.588-1.693,3.834-1.693
		c2.715,0,5.08,2.268,5.08,5.08v10.447h-2.077l-0.256-1.629c-0.32,1.342-1.949,1.821-2.747,1.821
		C4.372,114.343,2.072,111.979,2.072,109.231z M7.12,111.755c1.214,0,2.492-0.99,2.492-2.141v-1.565
		c0-1.278-1.118-2.173-2.492-2.173c-1.342,0-2.46,1.086-2.46,2.46v0.894C4.659,110.605,5.778,111.755,7.12,111.755z"/>
	<path fill="#222222" d="M16.226,114.151H13.67V98.784h2.013l0.32,1.501c0.639-1.246,1.821-1.661,2.747-1.693
		c1.278-0.032,2.971,0.575,3.77,2.556c0.767-1.981,2.332-2.556,3.802-2.556c2.747,0,4.984,2.237,4.984,5.08v10.479H28.75v-10.479
		c0.032-3.482-4.984-3.323-4.984,0v10.479H21.21v-10.479c0-1.342-1.118-2.492-2.524-2.492c-1.374,0-2.46,1.15-2.46,2.492
		L16.226,114.151L16.226,114.151z"/>
	<path fill="#222222" d="M32.934,109.231v-0.894c0-2.684,2.045-4.984,4.984-4.984c1.022,0,2.269,0.671,2.62,1.693l-0.064-1.342
		c0-1.342-1.118-2.46-2.492-2.46c-0.639,0-1.565,0.383-2.428,1.214l-1.405-2.141c1.086-0.99,2.588-1.693,3.834-1.693
		c2.715,0,5.08,2.268,5.08,5.08v10.447h-2.077l-0.256-1.629c-0.32,1.342-1.949,1.821-2.747,1.821
		C35.235,114.343,32.934,111.979,32.934,109.231z M37.982,111.755c1.214,0,2.492-0.99,2.492-2.141v-1.565
		c0-1.278-1.118-2.173-2.492-2.173c-1.342,0-2.46,1.086-2.46,2.46v0.894C35.522,110.605,36.64,111.755,37.982,111.755z"/>
	<path fill="#222222" d="M48.851,111.317l0.01,2.681c-3.291,0-4.329-1.987-4.329-5.022V92.49h2.556v16.485
		C47.088,110.445,47.877,111.317,48.851,111.317z"/>
	<path fill="#222222" d="M54.689,120.445c-1.118,0-2.811-0.607-4.057-1.725l1.47-2.045c0.927,0.766,1.981,1.15,2.588,1.15
		c1.406,0,2.556-1.086,2.556-2.428v-2.715c-0.447,1.246-1.725,1.565-2.492,1.565c-2.684,0-5.144-1.757-5.144-4.76v-6.134
		c0-2.556,2.492-4.984,5.144-4.76c1.022,0.096,2.301,0.479,2.715,1.949l0.256-1.789h2.109v16.645
		C59.832,118.305,57.436,120.445,54.689,120.445z M52.196,109.486c-0.096,1.502,1.278,2.173,2.62,2.173
		c1.214,0,2.428-0.83,2.428-2.141v-6.262c0-1.15-1.342-2.045-2.492-2.077c-1.31,0-2.556,0.895-2.556,2.173V109.486z"/>
	<path fill="#222222" d="M61.467,109.231v-0.894c0-2.684,2.045-4.984,4.984-4.984c1.022,0,2.269,0.671,2.62,1.693l-0.064-1.342
		c0-1.342-1.118-2.46-2.492-2.46c-0.639,0-1.565,0.383-2.428,1.214l-1.405-2.141c1.086-0.99,2.588-1.693,3.834-1.693
		c2.715,0,5.08,2.268,5.08,5.08v10.447h-2.077l-0.256-1.629c-0.32,1.342-1.949,1.821-2.747,1.821
		C63.767,114.343,61.467,111.979,61.467,109.231z M66.515,111.755c1.214,0,2.492-0.99,2.492-2.141v-1.565
		c0-1.278-1.118-2.173-2.492-2.173c-1.342,0-2.46,1.086-2.46,2.46v0.894C64.054,110.605,65.173,111.755,66.515,111.755z"/>
	<path fill="#222222" d="M75.621,114.151h-2.556V98.784h2.013l0.32,1.501c0.639-1.246,1.821-1.661,2.748-1.693
		c1.278-0.032,2.971,0.575,3.77,2.556c0.767-1.981,2.332-2.556,3.802-2.556c2.748,0,4.984,2.237,4.984,5.08v10.479h-2.556v-10.479
		c0.032-3.482-4.984-3.323-4.984,0v10.479h-2.555v-10.479c0-1.342-1.118-2.492-2.524-2.492c-1.374,0-2.46,1.15-2.46,2.492
		L75.621,114.151L75.621,114.151z"/>
	<path fill="#222222" d="M91.944,109.231v-0.894c0-2.684,2.045-4.984,4.984-4.984c1.022,0,2.269,0.671,2.62,1.693l-0.064-1.342
		c0-1.342-1.118-2.46-2.492-2.46c-0.639,0-1.565,0.383-2.428,1.214l-1.405-2.141c1.086-0.99,2.588-1.693,3.834-1.693
		c2.715,0,5.08,2.268,5.08,5.08v10.447h-2.077l-0.256-1.629c-0.319,1.342-1.949,1.821-2.747,1.821
		C94.245,114.343,91.944,111.979,91.944,109.231z M96.992,111.755c1.214,0,2.492-0.99,2.492-2.141v-1.565
		c0-1.278-1.118-2.173-2.492-2.173c-1.342,0-2.46,1.086-2.46,2.46v0.894C94.532,110.605,95.65,111.755,96.992,111.755z"/>
</g>
<path fill="#7ACE7A" d="M69.512,85.332c0-0.547-0.453-1-1-1c-0.562,0-1,0.453-1,1c0,0.562,0.438,1,1,1
	C69.059,86.332,69.512,85.894,69.512,85.332z M72.012,77.332v10c0,0.547-0.453,1-1,1h-4.5c-0.547,0-1-0.453-1-1v-10
	c0-0.547,0.453-1,1-1h4.5C71.559,76.332,72.012,76.785,72.012,77.332z M90.512,77.332c0,0.828-0.328,1.719-0.859,2.328
	c0.172,0.5,0.234,0.969,0.234,1.188c0.031,0.781-0.203,1.516-0.672,2.141c0.172,0.578,0.172,1.203,0,1.828
	c-0.156,0.578-0.453,1.094-0.844,1.469c0.094,1.172-0.172,2.125-0.766,2.828c-0.672,0.797-1.703,1.203-3.078,1.219h-2.016
	c-2.234,0-4.344-0.734-6.031-1.313c-0.984-0.344-1.922-0.672-2.469-0.688c-0.531-0.016-1-0.453-1-1V77.316
	c0-0.516,0.438-0.953,0.953-1c0.578-0.047,2.078-1.906,2.766-2.812c0.562-0.719,1.094-1.391,1.578-1.875
	c0.609-0.609,0.781-1.547,0.969-2.453c0.172-0.922,0.359-1.891,1.031-2.547c0.187-0.187,0.438-0.297,0.703-0.297
	c3.5,0,3.5,2.797,3.5,4c0,1.281-0.453,2.188-0.875,3c-0.172,0.344-0.328,0.5-0.453,1h4.328
	C89.136,74.332,90.511,75.707,90.512,77.332L90.512,77.332z"/>
<path fill="#7ACE7A" d="M71.242,55.689c0-0.547-0.453-1-1-1s-1,0.453-1,1s0.453,1,1,1C70.789,56.689,71.242,56.236,71.242,55.689z
	 M89.242,46.689c0-1.062-0.953-2-2-2h-5.5c0-1.828,1.5-3.156,1.5-5c0-1.828-0.359-3-2.5-3c-1,1.016-0.484,3.406-2,5
	c-0.438,0.453-0.812,0.938-1.203,1.422c-0.703,0.906-2.562,3.578-3.797,3.578h-0.5v10h0.5c0.875,0,2.312,0.562,3.156,0.859
	c1.719,0.594,3.5,1.141,5.344,1.141h1.891c1.766,0,3-0.703,3-2.609c0-0.297-0.031-0.594-0.078-0.875
	c0.656-0.359,1.016-1.25,1.016-1.969c0-0.375-0.094-0.75-0.281-1.078c0.531-0.5,0.828-1.125,0.828-1.859
	c0-0.5-0.219-1.234-0.547-1.609C88.805,48.674,89.243,47.268,89.242,46.689L89.242,46.689z M91.242,46.673
	c0,0.906-0.266,1.797-0.766,2.547c0.094,0.344,0.141,0.719,0.141,1.078c0,0.781-0.203,1.563-0.594,2.25
	c0.031,0.219,0.047,0.453,0.047,0.672c0,1-0.328,2-0.938,2.781c0.031,2.953-1.984,4.688-4.875,4.688h-2.016
	c-2.219,0-4.281-0.656-6.344-1.375c-0.453-0.156-1.719-0.625-2.156-0.625h-4.5c-1.109,0-2-0.891-2-2v-10c0-1.109,0.891-2,2-2h4.281
	c0.609-0.406,1.672-1.813,2.141-2.422c0.531-0.688,1.078-1.359,1.672-2c0.938-1,0.438-3.469,2-5
	c0.375-0.359,0.875-0.578,1.406-0.578c1.625,0,3.187,0.578,3.953,2.094c0.484,0.953,0.547,1.859,0.547,2.906
	c0,1.094-0.281,2.031-0.75,3h2.75C89.397,42.689,91.241,44.517,91.242,46.673L91.242,46.673z"/>
<path fill="#E13C42" d="M135.09,44.321c0-0.4-0.331-0.731-0.731-0.731c-0.4,0-0.731,0.331-0.731,0.731s0.331,0.731,0.731,0.731
	C134.759,45.052,135.09,44.721,135.09,44.321z M148.243,50.898c0-0.422-0.32-1.45-0.856-1.462c0.24-0.274,0.4-0.81,0.4-1.176
	c0-0.536-0.217-0.993-0.605-1.359c0.137-0.24,0.205-0.514,0.205-0.788c0-0.525-0.262-1.176-0.742-1.439
	c0.034-0.205,0.057-0.422,0.057-0.639c0-1.336-0.845-1.907-2.113-1.907h-1.462c-1.348,0-2.649,0.4-3.905,0.834
	c-0.617,0.217-1.667,0.628-2.306,0.628h-0.365v7.308h0.365c0.902,0,2.261,1.953,2.775,2.615c0.286,0.354,0.56,0.708,0.879,1.039
	c1.108,1.165,0.731,2.911,1.462,3.654c1.565,0,1.827-0.856,1.827-2.192c0-1.348-1.096-2.318-1.096-3.654h4.019
	C147.546,52.36,148.243,51.675,148.243,50.898L148.243,50.898z M149.705,50.909c0,1.576-1.348,2.911-2.923,2.911h-2.01
	c0.343,0.708,0.548,1.393,0.548,2.192c0,0.753-0.046,1.439-0.4,2.124c-0.56,1.108-1.701,1.53-2.889,1.53
	c-0.388,0-0.753-0.16-1.027-0.422c-1.142-1.119-0.788-2.923-1.462-3.666c-0.434-0.457-0.834-0.948-1.222-1.45
	c-0.343-0.445-1.119-1.473-1.565-1.77h-3.128c-0.81,0-1.462-0.651-1.462-1.462V43.59c0-0.81,0.651-1.462,1.462-1.462h3.288
	c0.32,0,1.244-0.343,1.576-0.457c1.644-0.571,3.071-1.005,4.83-1.005h1.279c2.078,0,3.574,1.233,3.563,3.368v0.057
	c0.445,0.571,0.685,1.301,0.685,2.032c0,0.16-0.012,0.331-0.034,0.491c0.286,0.503,0.434,1.074,0.434,1.644
	c0,0.262-0.034,0.536-0.103,0.788C149.511,49.596,149.705,50.247,149.705,50.909L149.705,50.909z"/>
<path fill="#7ACE7A" d="M158.664,53.535c0-0.4-0.331-0.731-0.731-0.731c-0.4,0-0.731,0.331-0.731,0.731s0.331,0.731,0.731,0.731
	S158.664,53.935,158.664,53.535z M171.818,46.958c0-0.776-0.696-1.462-1.462-1.462h-4.019c0-1.336,1.096-2.306,1.096-3.654
	c0-1.336-0.262-2.192-1.827-2.192c-0.731,0.742-0.354,2.489-1.462,3.654c-0.32,0.331-0.593,0.685-0.879,1.039
	c-0.514,0.662-1.872,2.615-2.775,2.615h-0.365v7.308h0.365c0.639,0,1.69,0.411,2.306,0.628c1.256,0.434,2.558,0.834,3.905,0.834
	h1.382c1.291,0,2.192-0.514,2.192-1.907c0-0.217-0.023-0.434-0.057-0.639c0.479-0.262,0.742-0.913,0.742-1.439
	c0-0.274-0.069-0.548-0.205-0.788c0.388-0.365,0.605-0.822,0.605-1.358c0-0.365-0.16-0.902-0.4-1.176
	C171.499,48.409,171.819,47.381,171.818,46.958L171.818,46.958z M173.28,46.947c0,0.662-0.194,1.313-0.56,1.861
	c0.069,0.251,0.103,0.525,0.103,0.788c0,0.571-0.148,1.142-0.434,1.644c0.023,0.16,0.034,0.331,0.034,0.491
	c0,0.731-0.24,1.462-0.685,2.032c0.023,2.158-1.45,3.426-3.563,3.426h-1.473c-1.622,0-3.128-0.479-4.636-1.005
	c-0.331-0.114-1.256-0.457-1.576-0.457h-3.288c-0.81,0-1.462-0.651-1.462-1.462v-7.308c0-0.81,0.651-1.462,1.462-1.462h3.128
	c0.445-0.297,1.222-1.325,1.565-1.77c0.388-0.503,0.788-0.993,1.222-1.462c0.685-0.731,0.32-2.535,1.462-3.654
	c0.274-0.262,0.639-0.422,1.027-0.422c1.188,0,2.329,0.422,2.889,1.53c0.354,0.696,0.4,1.359,0.4,2.124
	c0,0.799-0.205,1.484-0.548,2.192h2.01C171.931,44.035,173.279,45.371,173.28,46.947L173.28,46.947z"/>
<path fill="#222222" d="M156.81,23.54c-1.927,1.373-4.285,2.181-6.832,2.181c-6.509,0-11.786-5.278-11.786-11.786
	s5.277-11.786,11.786-11.786s11.786,5.278,11.786,11.786c0,2.547-0.808,4.905-2.181,6.832l7.744,7.744
	c0.763,0.763,0.757,1.984,0,2.74l-0.032,0.032c-0.754,0.754-1.984,0.757-2.74,0l-7.744-7.744L156.81,23.54z M149.978,22.948
	c4.978,0,9.013-4.035,9.013-9.013s-4.035-9.013-9.013-9.013s-9.013,4.035-9.013,9.013S145,22.948,149.978,22.948L149.978,22.948z"/>
</svg>
