<?xml version="1.0" encoding="utf-8"?>
<!-- Generator: Adobe Illustrator 17.0.1, SVG Export Plug-In . SVG Version: 6.00 Build 0)  -->
<!DOCTYPE svg PUBLIC "-//W3C//DTD SVG 1.1//EN" "http://www.w3.org/Graphics/SVG/1.1/DTD/svg11.dtd">
<svg version="1.1" id="Capa_1" xmlns="http://www.w3.org/2000/svg" xmlns:xlink="http://www.w3.org/1999/xlink" x="0px" y="0px"
	 width="25px" height="28px" viewBox="0 0 25 28" enable-background="new 0 0 25 28" xml:space="preserve">
<path fill="#7ACE7A" d="M4,21c0-0.547-0.453-1-1-1c-0.562,0-1,0.453-1,1c0,0.562,0.438,1,1,1C3.547,22,4,21.562,4,21z M6.5,13v10
	c0,0.547-0.453,1-1,1H1c-0.547,0-1-0.453-1-1V13c0-0.547,0.453-1,1-1h4.5C6.047,12,6.5,12.453,6.5,13z M25,13
	c0,0.828-0.328,1.719-0.859,2.328c0.172,0.5,0.234,0.969,0.234,1.188c0.031,0.781-0.203,1.516-0.672,2.141
	c0.172,0.578,0.172,1.203,0,1.828c-0.156,0.578-0.453,1.094-0.844,1.469c0.094,1.172-0.172,2.125-0.766,2.828
	c-0.672,0.797-1.703,1.203-3.078,1.219h-2.016c-2.234,0-4.344-0.734-6.031-1.313C9.984,24.344,9.046,24.016,8.499,24
	c-0.531-0.016-1-0.453-1-1V12.984c0-0.516,0.438-0.953,0.953-1c0.578-0.047,2.078-1.906,2.766-2.812
	c0.562-0.719,1.094-1.391,1.578-1.875c0.609-0.609,0.781-1.547,0.969-2.453c0.172-0.922,0.359-1.891,1.031-2.547
	C14.983,2.11,15.234,2,15.499,2c3.5,0,3.5,2.797,3.5,4c0,1.281-0.453,2.188-0.875,3c-0.172,0.344-0.328,0.5-0.453,1h4.328
	C23.624,10,24.999,11.375,25,13L25,13z"/>
</svg>
