<?xml version="1.0" encoding="utf-8"?>
<!-- Generator: Adobe Illustrator 17.0.1, SVG Export Plug-In . SVG Version: 6.00 Build 0)  -->
<!DOCTYPE svg PUBLIC "-//W3C//DTD SVG 1.1//EN" "http://www.w3.org/Graphics/SVG/1.1/DTD/svg11.dtd">
<svg version="1.1" id="Capa_1" xmlns="http://www.w3.org/2000/svg" xmlns:xlink="http://www.w3.org/1999/xlink" x="0px" y="0px"
	 width="155px" height="55px" viewBox="0 0 155 55" enable-background="new 0 0 155 55" xml:space="preserve">
<g>
	<g id="_x23_231f20ff" transform="matrix(0.12785782,0,0,0.12785782,-2.6633021,-2.1720239)">
		<path id="path15" fill="#231F20" d="M856.986,116.323c30.714-11.939,66.225-10.765,96.071,3.233
			c10.538,4.832,20.225,11.352,29.086,18.806c-0.269-3.137-0.599-6.269-0.701-9.418c5.305-0.389,10.609-0.76,15.92-1.108
			c1.581,18.159,2.67,36.36,4.227,54.526c-5.389,0.186-10.741,0.766-16.118,1.012c-0.323-3.101-0.353-6.221-0.718-9.316
			c-0.371-4.293-0.078-8.885-2.383-12.723c-4.323-7.562-11.07-13.375-18.04-18.423c-11.621-8.185-24.973-14.076-39.013-16.489
			c-17.465-2.826-35.726,0.521-51.305,8.825c-16.854,8.891-30.547,23.189-39.743,39.791c-19.429,34.846-19.333,79.702,0.227,114.476
			c7.526,13.417,17.956,25.284,30.673,33.996c10.777,7.442,23.242,12.483,36.217,14.351c13.896,1.988,28.296,0.473,41.408-4.568
			c19.303-7.286,35.528-21.62,46.437-39.001c4.113,3.311,8.202,6.652,12.31,9.975c-14.166,19.973-34.457,35.522-57.424,44.036
			c-27.35,10.244-58.352,10.256-85.713,0.042c-32.145-11.759-58.723-37.618-71.494-69.356c-9.298-22.626-11.501-48.018-6.646-71.961
			c4.443-21.865,14.962-42.443,30.068-58.866C823.134,134.129,839.251,123.143,856.986,116.323L856.986,116.323z"/>
		<path id="path17" fill="#231F20" d="M341.066,108.647c21.183,0.042,42.366-0.072,63.542,0.06c0.802,1.347,1.245,2.868,1.832,4.317
			c29.056,74.9,58.16,149.777,87.198,224.683c6.448-0.012,12.902,0,19.357-0.006c0.006,3.712,0,7.424,0.006,11.136
			c-21.901-0.024-43.803,0.048-65.704-0.036c-11.501-30.236-23.099-60.429-34.702-90.623c-30.481,0.024-60.956,0.006-91.437,0.006
			c-12.262,30.224-24.536,60.441-36.822,90.659c-10.657-0.012-21.321-0.006-31.984-0.006c0-3.712,0-7.424,0.006-11.136
			c6.478,0.006,12.95-0.006,19.429,0.006c29.511-72.691,59.082-145.358,88.563-218.061c-6.43-0.042-12.855-0.006-19.285-0.018
			C341.066,115.97,341.066,112.306,341.066,108.647 M327.948,241.54c25.943,0.054,51.885,0.018,77.828,0.018
			c-12.543-32.906-25.128-65.8-37.696-98.699C354.621,175.716,341.354,208.658,327.948,241.54z"/>
		<path id="path19_1_" fill="#231F20" d="M534.352,108.647c44.934,0.006,89.862,0,134.797,0.006
			c11.909,0.503,23.685,4.55,33.271,11.657c14.465,10.472,23.811,27.571,25.087,45.353c0.886,9.891-0.347,20.309-5.305,29.062
			c-4.544,8.167-11.531,14.609-18.89,20.207c18.279,10.094,33.576,26.727,39.402,47.054c6.041,20.243,1.449,43.072-11.406,59.747
			c-9.921,13.148-24.721,22.53-40.905,25.685c-5.999,1.209-12.148,1.503-18.249,1.419c-45.934,0-91.868,0-137.802,0
			c0-3.712,0.012-7.418-0.006-11.13c6.299-0.018,12.603,0.006,18.908-0.006c0.006-72.691,0.006-145.382-0.006-218.073
			c-6.299,0-12.597-0.006-18.896,0C534.352,115.97,534.352,112.306,534.352,108.647 M600.409,119.891
			c0.018,32.181-0.018,64.363,0.024,96.544c8.364,2.569,16.998,4.281,25.715,5.095c11.256,0.904,22.967,0.12,33.385-4.556
			c7.017-3.089,12.861-8.646,16.249-15.525c4.904-9.951,5.856-21.291,5.856-32.229c-0.132-12.184-3.335-24.721-11.076-34.343
			c-6.502-8.059-15.992-14.292-26.517-14.974C629.501,119.862,614.958,119.891,600.409,119.891 M642.248,233.984
			c-14.112,0.275-28.164-1.952-41.821-5.389c-0.03,36.42-0.012,72.835-0.006,109.255c17.722-0.006,35.444-0.012,53.167,0
			c4.904,0.06,9.837-0.623,14.489-2.191c12.645-4.269,22.584-15.309,25.895-28.194c4.155-15.621,4.419-32.11,2.287-48.059
			c-1.575-12.441-7.676-24.242-17.106-32.541C667.4,231.392,654.845,233.828,642.248,233.984z"/>
	</g>
</g>
</svg>
