<?xml version="1.0" encoding="utf-8"?>
<!-- Generator: Adobe Illustrator 17.0.1, SVG Export Plug-In . SVG Version: 6.00 Build 0)  -->
<!DOCTYPE svg PUBLIC "-//W3C//DTD SVG 1.1//EN" "http://www.w3.org/Graphics/SVG/1.1/DTD/svg11.dtd">
<svg version="1.1" id="Capa_1" xmlns="http://www.w3.org/2000/svg" xmlns:xlink="http://www.w3.org/1999/xlink" x="0px" y="0px"
	 width="155px" height="55px" viewBox="0 0 155 55" enable-background="new 0 0 155 55" xml:space="preserve">
<g>
	<g id="layer1_1_" transform="translate(-95.68554,250.0545)" inkscape:label="Calque 1" inkscape:groupmode="layer">
		<g id="g20342" transform="matrix(0.99402655,0,0,0.99402655,2.2264937,-1.140134)">
			<path id="path3396" inkscape:connector-curvature="0" d="M124.093-210.846c-0.594-1.22-2.014-2.045-3.73-2.045
				c-2.113,0-4.522,0.692-6.866,2.244l-0.297-0.395c1.716-2.114,5.479-4.557,8.549-4.522c2.905,0,4.126,1.087,4.885,2.013
				l0.792-0.496l0.396,0.793L124.093-210.846L124.093-210.846z M118.613-216.623l-0.066,0.066c0.033-0.297,0.066-0.724,0.099-1.154
				c0.132-2.841-1.221-6.504-1.122-9.31c0.033-1.154,0.429-2.244,1.056-3.201c-0.363,0.793-0.528,1.65-0.561,2.541
				c-0.033,1.454,0.231,3.103,0.528,4.721c0.297,1.583,0.594,3.236,0.528,4.589C119.042-217.546,118.877-216.984,118.613-216.623
				 M126.634-228.638v-1.021l0.924-0.629c0.33-0.231,0.396-0.395,0.33-0.759c-0.165-0.759-1.221-2.114-2.542-2.114
				c-1.947,0-2.806,1.684-2.806,3.928c0,2.61,1.023,6.008,1.056,8.22c0.033,1.782-0.594,2.806-1.716,3.631l-2.311,1.684
				l-0.396-0.462c0.396-0.528,0.594-1.223,0.66-2.18c0.132-2.838-1.221-6.501-1.122-9.342c0.132-3.565,3.433-6.501,7.196-6.469
				c3.136,0,4.72,1.716,5.314,2.642L126.634-228.638z M122.904-210.186c-0.429-0.958-1.585-1.716-2.938-1.947
				c0.132,0,0.264,0,0.396-0.034c1.386,0,2.574,0.629,3.07,1.652L122.904-210.186L122.904-210.186z M127.162-230.914v0.032
				l-0.495,0.297c-0.198-0.594-0.858-1.451-1.716-1.782c0.132-0.032,0.264-0.066,0.462-0.066c0.891,0,1.683,1.056,1.782,1.52
				H127.162z M133.038-218.801v2.971c0,0.43,0.033,0.629,0.33,0.825l2.443,1.684l2.706-1.454l0.429,0.926l-5.182,3.002l-3.664-2.377
				c-0.33-0.231-0.528-0.56-0.528-1.087v-9.145l-1.42,0.793v-0.923l6.899-4.029l4.423,4.886L133.038-218.801L133.038-218.801z
				 M132.576-210.186l-3.334-2.212c-0.495-0.329-0.858-1.021-0.858-1.682v-7.856l0.132-0.066l0.33-0.199v7.891
				c0,0.923,0.462,1.419,0.858,1.682l3.301,2.18L132.576-210.186L132.576-210.186z M133.302-225.137l-0.264,0.164v4.819l2.971-1.849
				L133.302-225.137z M134.391-221.87l-0.594-0.727l-0.033-0.859l1.122,1.289"/>
			<path id="path3398" inkscape:connector-curvature="0" d="M151.06-210.878c-0.33-0.926-1.287-1.883-3.004-1.947
				c-1.617-0.034-3.928,0.594-5.843,2.045l-0.363-0.462c1.386-1.52,4.621-3.96,8.021-3.994c1.782,0,3.037,0.594,3.928,1.552
				l1.485-0.825l0.429,0.857L151.06-210.878z M144.128-232.895c-0.264,0.759-0.231,1.485,0.099,2.079
				c0.297,0.528,0.825,0.891,1.453,1.056C143.732-229.593,142.874-231.145,144.128-232.895 M171.426-231.113
				c-1.287,0.759-1.716,1.782-1.716,3.366v12.644c0,0.793,0.099,1.154,0.528,1.387l0.429,0.231l1.188-0.695l0.396,0.793
				l-4.126,2.475l-1.419-0.955c-0.627-0.43-0.891-0.958-0.891-1.981v-11.289c0-2.114,0.66-3.236,1.584-3.928l0.528-0.398
				l-3.895-2.276l-1.75,1.056v16.437c0,1.387-0.198,1.586-1.42,2.212c0,0-0.957,0.462-2.277,1.156h-0.264V-229.1
				c0-0.891-0.099-1.087-0.594-1.485l-1.386-1.122l-1.683,0.958v9.44c0,1.652-0.264,2.841-1.584,3.666l-3.301,2.079l-0.33-0.562
				c1.023-0.793,1.255-1.915,1.255-3.236v-9.636c0-1.422-0.198-1.981-1.684-1.719c-0.561,0.101-1.419,0.233-1.947,0.297
				c-2.179,0.297-3.103-1.252-1.617-3.201c0,0,0.363-0.493,1.287-1.682l0.726,0.493l-0.528,0.759
				c-0.693,0.992-0.132,1.52,0.99,1.125c0.528-0.199,1.551-0.594,2.277-0.891c3.136-1.223,4.291,0.79,4.456,1.979l3.895-2.342
				l3.367,2.573l4.159-2.573l3.202,1.814c1.089,0.629,1.617,0.363,2.377-0.032l0.627-0.332l0.495,0.825L171.426-231.113
				L171.426-231.113z M149.871-210.252c-0.264-0.857-1.056-1.583-2.443-1.782c0.198-0.032,0.396-0.032,0.594-0.032
				c1.717,0.032,2.212,1.087,2.311,1.419l0.033,0.098L149.871-210.252z M149.277-217.018c0.165-0.528,0.231-1.122,0.231-1.748
				v-9.607c0-1.156-0.066-1.286-0.462-1.65h0.066c0.561-0.101,0.858,0,0.858,0.989v9.639
				C149.97-218.273,149.772-217.546,149.277-217.018 M157.562-210.35c0,0-0.099,0.066-0.165,0.098h-0.264v-18.418
				c0-0.891-0.066-0.891-0.594-1.286l-0.759-0.594l0.495-0.265c0.396,0.332,0.99,0.793,0.99,0.825
				c0.231,0.231,0.297,0.363,0.297,0.891v18.782V-210.35L157.562-210.35z M166.277-229.065l-2.641-1.552l0.396-0.265l2.542,1.485
				C166.475-229.296,166.376-229.198,166.277-229.065 M166.937-210.252l-1.155-0.79c-0.759-0.53-1.155-1.419-1.155-2.411v-11.023
				c0-1.52,0.33-2.575,0.858-3.302c-0.297,0.727-0.429,1.618-0.429,2.642l0.033,11.289c0,1.22,0.363,2.013,1.221,2.607l1.056,0.727"
				/>
			<path id="path3400" inkscape:connector-curvature="0" d="M180.073-210.846l-4.192-2.475c-0.495-0.297-0.693-0.594-0.693-1.387
				v-8.748l-1.42,0.825v-0.955l6.899-4.029l4.258,2.541c0.462,0.265,0.627,0.629,0.627,1.09v8.946l1.155-0.594l0.297,0.727
				L180.073-210.846L180.073-210.846z M178.885-210.186l-3.796-2.212c-0.693-0.395-1.089-1.056-1.089-1.947v-7.591l0.132-0.066
				l0.33-0.164v7.458c0,0.992,0.297,1.552,1.056,2.013l3.796,2.278L178.885-210.186z M182.086-222.334
				c0-0.56-0.099-0.825-0.627-1.122l-2.608-1.517l-0.198,0.066l-0.033,8.681c0,0.594,0.099,0.891,0.561,1.154l2.706,1.586
				l0.198-0.034V-222.334z M180.898-214.904l0.033-6.769c0-0.692,0-0.759-0.66-1.122l-0.891-0.493v-0.496l1.552,0.923
				c0.297,0.167,0.429,0.297,0.429,0.695v7.525L180.898-214.904z M200.175-210.913l-1.387-0.825
				c-0.66-0.395-0.957-0.958-0.957-1.947l-0.033-8.978c0-0.562-0.066-0.859-0.495-1.22l-1.584-1.255l-1.354,0.79v10.96
				c0,0.926-0.231,1.188-1.023,1.517c0,0-0.528,0.233-2.178,0.958H190.9v-13.137l-1.023-1.154l-1.42,0.857l-0.561-0.66l4.159-2.541
				l2.079,2.244l3.928-2.244l2.542,1.915c0.462,0.329,0.627,0.66,0.627,1.419v9.474c0,0.79,0.099,1.122,0.561,1.385l0.429,0.265
				l1.221-0.692l0.33,0.759L200.175-210.913z M190.141-210.318c0,0-0.099,0.034-0.165,0.066h-0.264v-13.137l-0.495-0.56l0.528-0.297
				l0.429,0.493v13.434H190.141z M198.987-210.252l-1.188-0.66c-0.693-0.395-1.189-1.22-1.189-2.408v-8.681
				c0-0.793,0.066-0.825-0.462-1.223l-0.957-0.724l0.495-0.265c0.462,0.363,1.155,0.926,1.155,0.926
				c0.198,0.164,0.231,0.13,0.231,0.658v8.946c0,1.255,0.462,2.079,1.354,2.607l0.99,0.594"/>
			<path id="path3402" inkscape:connector-curvature="0" d="M210.968-210.846l-3.961-2.475c-0.462-0.297-0.66-0.594-0.66-1.321
				v-8.384l-1.354,0.727v-0.891l7.988-4.62v-0.53c0-1.22-0.693-2.408-1.75-3.003l-0.99-0.562l-1.518,0.825l-0.924-0.427l4.654-2.708
				l1.486,0.926c1.518,0.923,2.443,2.244,2.443,4.292v13.994l1.188-0.626l0.297,0.759L210.968-210.846L210.968-210.846z
				 M209.779-210.186l-3.697-2.342c-0.561-0.363-0.924-0.859-0.924-1.981v-7.031l0.198-0.098l0.264-0.133v7.098
				c0,0.958,0.165,1.451,1.023,1.979l3.565,2.247L209.779-210.186z M211.793-227.978c0-1.286-0.627-2.079-1.75-2.705l-0.231-0.133
				l0.396-0.265c0,0,0.297,0.167,0.627,0.363c0.858,0.496,1.42,1.454,1.42,2.377v0.101L211.793-227.978z M212.981-226.196
				l-0.231-0.13l-2.938,1.782v8.416c0,0.594,0.165,0.825,0.628,1.122l2.344,1.52l0.198-0.034V-226.196L212.981-226.196z
				 M211.793-215.005v-9.87l0.462-0.297v10.464L211.793-215.005L211.793-215.005z M224.303-218.801v2.971
				c0,0.43,0.033,0.594,0.363,0.825l2.443,1.684l2.707-1.454l0.396,0.926l-5.182,3.002l-3.664-2.377
				c-0.33-0.231-0.528-0.56-0.528-1.087v-9.145l-1.42,0.793v-0.923l6.899-4.029l4.456,4.886L224.303-218.801L224.303-218.801z
				 M223.841-210.186l-3.301-2.178c-0.561-0.363-0.891-0.958-0.891-1.817v-7.756l0.132-0.066l0.33-0.199v7.891
				c0,0.923,0.462,1.419,0.858,1.682l3.334,2.18L223.841-210.186L223.841-210.186z M224.6-225.137l-0.297,0.164v4.819l2.971-1.849
				L224.6-225.137z M225.656-221.87l-0.594-0.727l-0.033-0.859l1.122,1.289"/>
		</g>
	</g>
</g>
</svg>
