<?xml version="1.0" encoding="utf-8"?>
<!-- Generator: Adobe Illustrator 17.0.1, SVG Export Plug-In . SVG Version: 6.00 Build 0)  -->
<!DOCTYPE svg PUBLIC "-//W3C//DTD SVG 1.1//EN" "http://www.w3.org/Graphics/SVG/1.1/DTD/svg11.dtd">
<svg version="1.1" id="Capa_1" xmlns="http://www.w3.org/2000/svg" xmlns:xlink="http://www.w3.org/1999/xlink" x="0px" y="0px"
	 width="266.02px" height="75.773px" viewBox="0 0 266.02 75.773" enable-background="new 0 0 266.02 75.773" xml:space="preserve">
<g>
	<path fill="#222222" d="M2.994,44.975v-2.323c0-6.972,5.312-12.947,12.947-12.947c2.656,0,5.893,1.743,6.806,4.398l-0.166-3.485
		c0-3.485-2.905-6.391-6.474-6.391c-1.66,0-4.066,0.996-6.308,3.154l-3.651-5.561c2.822-2.573,6.722-4.398,9.959-4.398
		c7.054,0,13.196,5.892,13.196,13.195v27.139h-5.395l-0.664-4.232c-0.83,3.485-5.063,4.73-7.137,4.73
		C8.969,58.255,2.994,52.113,2.994,44.975z M16.107,51.532c3.154,0,6.474-2.572,6.474-5.561v-4.066c0-3.319-2.905-5.644-6.474-5.644
		c-3.486,0-6.391,2.822-6.391,6.391v2.323C9.716,48.545,12.621,51.532,16.107,51.532z"/>
	<path fill="#222222" d="M39.762,57.757h-6.64V17.838h5.229l0.83,3.9c1.66-3.237,4.73-4.315,7.137-4.398
		c3.32-0.083,7.718,1.493,9.793,6.639c1.992-5.146,6.059-6.639,9.876-6.639c7.137,0,12.947,5.81,12.947,13.195v27.222h-6.64V30.535
		c0.083-9.046-12.947-8.631-12.947,0v27.222h-6.639V30.535c0-3.485-2.905-6.474-6.557-6.474c-3.569,0-6.39,2.988-6.39,6.474V57.757z
		"/>
	<path fill="#222222" d="M83.166,44.975v-2.323c0-6.972,5.312-12.947,12.947-12.947c2.656,0,5.893,1.743,6.806,4.398l-0.166-3.485
		c0-3.485-2.905-6.391-6.474-6.391c-1.66,0-4.066,0.996-6.308,3.154l-3.651-5.561c2.822-2.573,6.722-4.398,9.959-4.398
		c7.054,0,13.196,5.892,13.196,13.195v27.139h-5.395l-0.664-4.232c-0.83,3.485-5.063,4.73-7.137,4.73
		C89.142,58.255,83.166,52.113,83.166,44.975z M96.279,51.532c3.154,0,6.474-2.572,6.474-5.561v-4.066
		c0-3.319-2.905-5.644-6.474-5.644c-3.486,0-6.391,2.822-6.391,6.391v2.323C89.888,48.545,92.793,51.532,96.279,51.532z"/>
	<path fill="#222222" d="M124.513,50.395l0.026,6.964c-8.548,0-11.245-5.162-11.245-13.046V1.488h6.64v42.824
		C119.934,48.13,121.983,50.395,124.513,50.395z"/>
	<path fill="#222222" d="M139.677,74.106c-2.905,0-7.303-1.577-10.54-4.481l3.818-5.312c2.407,1.991,5.146,2.987,6.722,2.987
		c3.652,0,6.64-2.821,6.64-6.308v-7.054c-1.162,3.236-4.482,4.066-6.474,4.066c-6.971,0-13.362-4.564-13.362-12.366V29.705
		c0-6.639,6.474-12.946,13.362-12.365c2.656,0.249,5.976,1.244,7.054,5.063l0.664-4.647h5.478v43.238
		C153.039,68.546,146.814,74.106,139.677,74.106z M133.203,45.639c-0.249,3.901,3.32,5.644,6.806,5.644
		c3.154,0,6.308-2.157,6.308-5.561V29.456c0-2.987-3.486-5.312-6.474-5.395c-3.403,0-6.64,2.324-6.64,5.644V45.639z"/>
	<path fill="#222222" d="M157.284,44.975v-2.323c0-6.972,5.312-12.947,12.947-12.947c2.656,0,5.893,1.743,6.806,4.398l-0.166-3.485
		c0-3.485-2.905-6.391-6.474-6.391c-1.66,0-4.066,0.996-6.308,3.154l-3.651-5.561c2.822-2.573,6.722-4.398,9.959-4.398
		c7.054,0,13.196,5.892,13.196,13.195v27.139h-5.395l-0.664-4.232c-0.83,3.485-5.063,4.73-7.137,4.73
		C163.259,58.255,157.284,52.113,157.284,44.975z M170.397,51.532c3.154,0,6.474-2.572,6.474-5.561v-4.066
		c0-3.319-2.905-5.644-6.474-5.644c-3.486,0-6.391,2.822-6.391,6.391v2.323C164.006,48.545,166.911,51.532,170.397,51.532z"/>
	<path fill="#222222" d="M194.052,57.757h-6.64V17.838h5.229l0.83,3.9c1.66-3.237,4.73-4.315,7.138-4.398
		c3.319-0.083,7.718,1.493,9.793,6.639c1.992-5.146,6.059-6.639,9.876-6.639c7.138,0,12.947,5.81,12.947,13.195v27.222h-6.64V30.535
		c0.083-9.046-12.947-8.631-12.947,0v27.222H207V30.535c0-3.485-2.905-6.474-6.557-6.474c-3.569,0-6.391,2.988-6.391,6.474V57.757z"
		/>
	<path fill="#222222" d="M236.455,44.975v-2.323c0-6.972,5.312-12.947,12.947-12.947c2.655,0,5.893,1.743,6.806,4.398l-0.166-3.485
		c0-3.485-2.905-6.391-6.474-6.391c-1.66,0-4.066,0.996-6.308,3.154l-3.651-5.561c2.821-2.573,6.722-4.398,9.959-4.398
		c7.054,0,13.195,5.892,13.195,13.195v27.139h-5.395l-0.664-4.232c-0.829,3.485-5.063,4.73-7.137,4.73
		C242.431,58.255,236.455,52.113,236.455,44.975z M249.569,51.532c3.153,0,6.474-2.572,6.474-5.561v-4.066
		c0-3.319-2.905-5.644-6.474-5.644c-3.486,0-6.391,2.822-6.391,6.391v2.323C243.178,48.545,246.082,51.532,249.569,51.532z"/>
</g>
</svg>
