<?xml version="1.0" encoding="utf-8"?>
<!-- Generator: Adobe Illustrator 17.0.1, SVG Export Plug-In . SVG Version: 6.00 Build 0)  -->
<!DOCTYPE svg PUBLIC "-//W3C//DTD SVG 1.1//EN" "http://www.w3.org/Graphics/SVG/1.1/DTD/svg11.dtd">
<svg version="1.1" id="Capa_1" xmlns="http://www.w3.org/2000/svg" xmlns:xlink="http://www.w3.org/1999/xlink" x="0px" y="0px"
	 width="264.333px" height="123.333px" viewBox="0 0 264.333 123.333" enable-background="new 0 0 264.333 123.333"
	 xml:space="preserve">
<path fill="#FFFFFF" d="M0.914,1.442h10.031L5.929,6.458L0.914,1.442z"/>
<path fill="#7ACE7A" d="M12.947,1.442h10.031l-5.016,5.016L12.947,1.442z"/>
<g>
	<path fill="#222222" d="M45.085,2.692c-8.147,0-14.75,6.603-14.75,14.75s6.603,14.75,14.75,14.75s14.75-6.603,14.75-14.75
		S53.232,2.692,45.085,2.692z M45.085,29.426c-6.619,0-11.984-5.365-11.984-11.984S38.466,5.457,45.085,5.457
		S57.07,10.823,57.07,17.442S51.704,29.426,45.085,29.426z"/>
	<path fill="#222222" d="M49.695,10.067l-4.609,4.609l-4.609-4.609l-2.766,2.766l4.609,4.609l-4.609,4.609l2.766,2.766l4.609-4.609
		l4.609,4.609l2.766-2.766l-4.609-4.609l4.609-4.609L49.695,10.067z"/>
</g>
<path fill="#7B8085" d="M104.053,12.222l-2.47-2.47v-3.31h1.5v2.69l2.03,2.03L104.053,12.222z M102.333,3.442c-3.314,0-6,2.686-6,6
	s2.686,6,6,6s6-2.686,6-6S105.647,3.442,102.333,3.442z M102.333,13.942c-2.485,0-4.5-2.015-4.5-4.5s2.015-4.5,4.5-4.5
	c2.485,0,4.5,2.015,4.5,4.5S104.818,13.942,102.333,13.942z"/>
<path fill="#E13C42" d="M0.914,7.441h10.031l-5.016,5.016L0.914,7.441z"/>
<g>
	<path fill="#222222" d="M92,7.5c0,1.381-1.119,2.5-2.5,2.5h-22C66.119,10,65,8.881,65,7.5l0,0C65,6.119,66.119,5,67.5,5h22
		C90.881,5,92,6.119,92,7.5L92,7.5z"/>
	<path fill="#222222" d="M92,16.5c0,1.381-1.119,2.5-2.5,2.5h-22c-1.381,0-2.5-1.119-2.5-2.5l0,0c0-1.381,1.119-2.5,2.5-2.5h22
		C90.881,14,92,15.119,92,16.5L92,16.5z"/>
	<path fill="#222222" d="M92,25.5c0,1.381-1.119,2.5-2.5,2.5h-22c-1.381,0-2.5-1.119-2.5-2.5l0,0c0-1.381,1.119-2.5,2.5-2.5h22
		C90.881,23,92,24.119,92,25.5L92,25.5z"/>
</g>
<path fill="#222222" d="M5.333,36c0-0.547-0.453-1-1-1c-0.562,0-1,0.453-1,1c0,0.562,0.438,1,1,1C4.88,37,5.333,36.562,5.333,36z
	 M7.833,28v10c0,0.547-0.453,1-1,1h-4.5c-0.547,0-1-0.453-1-1V28c0-0.547,0.453-1,1-1h4.5C7.38,27,7.833,27.452,7.833,28z
	 M26.333,28c0,0.828-0.328,1.719-0.859,2.328c0.172,0.5,0.234,0.969,0.234,1.188c0.031,0.781-0.203,1.516-0.672,2.141
	c0.172,0.578,0.172,1.203,0,1.828c-0.156,0.578-0.453,1.094-0.844,1.469c0.094,1.172-0.172,2.125-0.766,2.828
	c-0.672,0.797-1.703,1.203-3.078,1.219h-2.016c-2.234,0-4.344-0.734-6.031-1.313c-0.984-0.344-1.922-0.672-2.469-0.688
	c-0.531-0.016-1-0.453-1-1V27.984c0-0.516,0.438-0.953,0.953-1c0.578-0.047,2.078-1.906,2.766-2.812
	c0.562-0.719,1.094-1.391,1.578-1.875c0.609-0.609,0.781-1.547,0.969-2.453c0.172-0.922,0.359-1.891,1.031-2.547
	C16.316,17.11,16.567,17,16.832,17c3.5,0,3.5,2.797,3.5,4c0,1.281-0.453,2.188-0.875,3c-0.172,0.344-0.328,0.5-0.453,1h4.328
	C24.957,25,26.332,26.375,26.333,28L26.333,28z"/>
<path fill="#222222" d="M6.333,63.333c0-0.547-0.453-1-1-1s-1,0.453-1,1s0.453,1,1,1S6.333,63.88,6.333,63.333z M24.333,54.333
	c0-1.062-0.953-2-2-2h-5.5c0-1.828,1.5-3.156,1.5-5c0-1.828-0.359-3-2.5-3c-1,1.016-0.484,3.406-2,5
	c-0.438,0.453-0.812,0.938-1.203,1.422c-0.703,0.906-2.562,3.578-3.797,3.578h-0.5v10h0.5c0.875,0,2.312,0.562,3.156,0.859
	c1.719,0.594,3.5,1.141,5.344,1.141h1.891c1.766,0,3-0.703,3-2.609c0-0.297-0.031-0.594-0.078-0.875
	c0.656-0.359,1.016-1.25,1.016-1.969c0-0.375-0.094-0.75-0.281-1.078c0.531-0.5,0.828-1.125,0.828-1.859
	c0-0.5-0.219-1.234-0.547-1.609c0.734-0.016,1.172-1.422,1.172-2L24.333,54.333z M26.333,54.317c0,0.906-0.266,1.797-0.766,2.547
	c0.094,0.344,0.141,0.719,0.141,1.078c0,0.781-0.203,1.563-0.594,2.25c0.031,0.219,0.047,0.453,0.047,0.672c0,1-0.328,2-0.938,2.781
	c0.031,2.953-1.984,4.688-4.875,4.688h-2.016c-2.219,0-4.281-0.656-6.344-1.375c-0.453-0.156-1.719-0.625-2.156-0.625h-4.5
	c-1.109,0-2-0.891-2-2v-10c0-1.109,0.891-2,2-2h4.281c0.609-0.406,1.672-1.813,2.141-2.422c0.531-0.688,1.078-1.359,1.672-2
	c0.938-1,0.438-3.469,2-5c0.375-0.359,0.875-0.578,1.406-0.578c1.625,0,3.187,0.578,3.953,2.094
	c0.484,0.953,0.547,1.859,0.547,2.906c0,1.094-0.281,2.031-0.75,3h2.75C24.488,50.333,26.332,52.161,26.333,54.317L26.333,54.317z"
	/>
<path fill="#E13C42" d="M37.667,42.167c0-0.547-0.453-1-1-1s-1,0.453-1,1c0,0.547,0.453,1,1,1S37.667,42.714,37.667,42.167z
	 M55.667,51.167c0-0.578-0.438-1.984-1.172-2c0.328-0.375,0.547-1.109,0.547-1.609c0-0.734-0.297-1.359-0.828-1.859
	c0.187-0.328,0.281-0.703,0.281-1.078c0-0.719-0.359-1.609-1.016-1.969c0.047-0.281,0.078-0.578,0.078-0.875
	c0-1.828-1.156-2.609-2.891-2.609h-2c-1.844,0-3.625,0.547-5.344,1.141c-0.844,0.297-2.281,0.859-3.156,0.859h-0.5v10h0.5
	c1.234,0,3.094,2.672,3.797,3.578c0.391,0.484,0.766,0.969,1.203,1.422c1.516,1.594,1,3.984,2,5c2.141,0,2.5-1.172,2.5-3
	c0-1.844-1.5-3.172-1.5-5h5.5c1.047,0,2-0.938,2-2L55.667,51.167z M57.667,51.183c0,2.156-1.844,3.984-4,3.984h-2.75
	c0.469,0.969,0.75,1.906,0.75,3c0,1.031-0.063,1.969-0.547,2.906c-0.766,1.516-2.328,2.094-3.953,2.094
	c-0.531,0-1.031-0.219-1.406-0.578c-1.563-1.531-1.078-4-2-5.016c-0.594-0.625-1.141-1.297-1.672-1.984
	c-0.469-0.609-1.531-2.016-2.141-2.422h-4.281c-1.109,0-2-0.891-2-2v-10c0-1.109,0.891-2,2-2h4.5c0.438,0,1.703-0.469,2.156-0.625
	c2.25-0.781,4.203-1.375,6.609-1.375h1.75c2.844,0,4.891,1.687,4.875,4.609v0.078c0.609,0.781,0.938,1.781,0.938,2.781
	c0,0.219-0.016,0.453-0.047,0.672c0.391,0.688,0.594,1.469,0.594,2.25c0,0.359-0.047,0.734-0.141,1.078
	C57.401,49.385,57.667,50.276,57.667,51.183L57.667,51.183z"/>
<path fill="#E13C42" d="M103.499,43.167c0,0.547-0.453,1-1,1c-0.562,0-1-0.453-1-1c0-0.562,0.438-1,1-1
	C103.046,42.167,103.499,42.605,103.499,43.167z M105.999,51.167v-10c0-0.547-0.453-1-1-1h-4.5c-0.547,0-1,0.453-1,1v10
	c0,0.547,0.453,1,1,1h4.5C105.546,52.167,105.999,51.714,105.999,51.167z M123.64,48.839c0.531,0.594,0.859,1.5,0.859,2.328
	c-0.016,1.625-1.375,3-3,3h-4.328c0.125,0.5,0.281,0.656,0.453,1c0.406,0.812,0.875,1.719,0.875,3c0,1.203,0,4-3.5,4
	c-0.266,0-0.516-0.109-0.703-0.297c-0.672-0.656-0.859-1.625-1.031-2.547c-0.187-0.906-0.359-1.844-0.969-2.453
	c-0.484-0.484-1.016-1.156-1.578-1.875c-0.688-0.906-2.188-2.766-2.766-2.812c-0.516-0.047-0.953-0.484-0.953-1V41.167
	c0-0.547,0.469-0.984,1-1c0.547-0.016,1.484-0.344,2.469-0.688c1.687-0.578,3.797-1.313,6.031-1.313h2.016
	c1.375,0.016,2.406,0.422,3.078,1.219c0.594,0.703,0.859,1.656,0.766,2.828c0.391,0.375,0.688,0.891,0.844,1.469
	c0.172,0.625,0.172,1.25,0,1.828c0.469,0.625,0.703,1.359,0.672,2.141C123.875,47.87,123.812,48.339,123.64,48.839L123.64,48.839z"
	/>
<g>
	<path fill="#7B8085" d="M125.941,4.661h-3.657c-0.251,0-0.602,0.145-0.78,0.323l-4.534,4.534c-0.178,0.178-0.178,0.469,0,0.646
		l3.925,3.925c0.178,0.178,0.469,0.178,0.646,0l4.534-4.534c0.178-0.178,0.323-0.529,0.323-0.78V5.118
		C126.398,4.867,126.192,4.661,125.941,4.661z M123.655,8.318c-0.505,0-0.914-0.409-0.914-0.914s0.409-0.914,0.914-0.914
		c0.505,0,0.914,0.409,0.914,0.914S124.16,8.318,123.655,8.318z"/>
	<path fill="#7B8085" d="M115.427,9.841l5.181-5.181h-0.762c-0.251,0-0.602,0.145-0.78,0.323l-4.534,4.534
		c-0.178,0.178-0.178,0.469,0,0.646l3.925,3.925c0.178,0.178,0.469,0.178,0.646,0l0.286-0.286L115.427,9.841L115.427,9.841z"/>
</g>
<g>
	<path fill="#222222" d="M2.072,109.231v-0.894c0-2.684,2.045-4.984,4.984-4.984c1.022,0,2.269,0.671,2.62,1.693l-0.064-1.342
		c0-1.342-1.118-2.46-2.492-2.46c-0.639,0-1.565,0.383-2.428,1.214l-1.405-2.141c1.086-0.99,2.588-1.693,3.834-1.693
		c2.715,0,5.08,2.268,5.08,5.08v10.447h-2.077l-0.256-1.629c-0.32,1.342-1.949,1.821-2.747,1.821
		C4.372,114.343,2.072,111.979,2.072,109.231z M7.12,111.755c1.214,0,2.492-0.99,2.492-2.141v-1.565
		c0-1.278-1.118-2.173-2.492-2.173c-1.342,0-2.46,1.086-2.46,2.46v0.894C4.659,110.605,5.778,111.755,7.12,111.755z"/>
	<path fill="#222222" d="M16.226,114.151H13.67V98.784h2.013l0.32,1.501c0.639-1.246,1.821-1.661,2.747-1.693
		c1.278-0.032,2.971,0.575,3.77,2.556c0.767-1.981,2.332-2.556,3.802-2.556c2.747,0,4.984,2.237,4.984,5.08v10.479h-2.556v-10.479
		c0.032-3.482-4.984-3.323-4.984,0v10.479h-2.556v-10.479c0-1.342-1.118-2.492-2.524-2.492c-1.374,0-2.46,1.15-2.46,2.492
		L16.226,114.151L16.226,114.151z"/>
	<path fill="#222222" d="M32.934,109.231v-0.894c0-2.684,2.045-4.984,4.984-4.984c1.022,0,2.269,0.671,2.62,1.693l-0.064-1.342
		c0-1.342-1.118-2.46-2.492-2.46c-0.639,0-1.565,0.383-2.428,1.214l-1.405-2.141c1.086-0.99,2.588-1.693,3.834-1.693
		c2.715,0,5.08,2.268,5.08,5.08v10.447h-2.077l-0.256-1.629c-0.32,1.342-1.949,1.821-2.747,1.821
		C35.235,114.343,32.934,111.979,32.934,109.231z M37.982,111.755c1.214,0,2.492-0.99,2.492-2.141v-1.565
		c0-1.278-1.118-2.173-2.492-2.173c-1.342,0-2.46,1.086-2.46,2.46v0.894C35.522,110.605,36.64,111.755,37.982,111.755z"/>
	<path fill="#222222" d="M48.851,111.317l0.01,2.681c-3.291,0-4.329-1.987-4.329-5.022V92.49h2.556v16.485
		C47.088,110.445,47.877,111.317,48.851,111.317z"/>
	<path fill="#222222" d="M54.689,120.445c-1.118,0-2.811-0.607-4.057-1.725l1.47-2.045c0.927,0.766,1.981,1.15,2.588,1.15
		c1.406,0,2.556-1.086,2.556-2.428v-2.715c-0.447,1.246-1.725,1.565-2.492,1.565c-2.684,0-5.144-1.757-5.144-4.76v-6.134
		c0-2.556,2.492-4.984,5.144-4.76c1.022,0.096,2.301,0.479,2.715,1.949l0.256-1.789h2.109v16.645
		C59.832,118.305,57.436,120.445,54.689,120.445z M52.196,109.486c-0.096,1.502,1.278,2.173,2.62,2.173
		c1.214,0,2.428-0.83,2.428-2.141v-6.262c0-1.15-1.342-2.045-2.492-2.077c-1.31,0-2.556,0.895-2.556,2.173V109.486z"/>
	<path fill="#222222" d="M61.467,109.231v-0.894c0-2.684,2.045-4.984,4.984-4.984c1.022,0,2.269,0.671,2.62,1.693l-0.064-1.342
		c0-1.342-1.118-2.46-2.492-2.46c-0.639,0-1.565,0.383-2.428,1.214l-1.405-2.141c1.086-0.99,2.588-1.693,3.834-1.693
		c2.715,0,5.08,2.268,5.08,5.08v10.447h-2.077l-0.256-1.629c-0.32,1.342-1.949,1.821-2.747,1.821
		C63.767,114.343,61.467,111.979,61.467,109.231z M66.515,111.755c1.214,0,2.492-0.99,2.492-2.141v-1.565
		c0-1.278-1.118-2.173-2.492-2.173c-1.342,0-2.46,1.086-2.46,2.46v0.894C64.054,110.605,65.173,111.755,66.515,111.755z"/>
	<path fill="#222222" d="M75.621,114.151h-2.556V98.784h2.013l0.32,1.501c0.639-1.246,1.821-1.661,2.748-1.693
		c1.278-0.032,2.971,0.575,3.77,2.556c0.767-1.981,2.332-2.556,3.802-2.556c2.748,0,4.984,2.237,4.984,5.08v10.479h-2.556v-10.479
		c0.032-3.482-4.984-3.323-4.984,0v10.479h-2.555v-10.479c0-1.342-1.118-2.492-2.524-2.492c-1.374,0-2.46,1.15-2.46,2.492
		L75.621,114.151L75.621,114.151z"/>
	<path fill="#222222" d="M91.944,109.231v-0.894c0-2.684,2.045-4.984,4.984-4.984c1.022,0,2.269,0.671,2.62,1.693l-0.064-1.342
		c0-1.342-1.118-2.46-2.492-2.46c-0.639,0-1.565,0.383-2.428,1.214l-1.405-2.141c1.086-0.99,2.588-1.693,3.834-1.693
		c2.715,0,5.08,2.268,5.08,5.08v10.447h-2.077l-0.256-1.629c-0.319,1.342-1.949,1.821-2.747,1.821
		C94.245,114.343,91.944,111.979,91.944,109.231z M96.992,111.755c1.214,0,2.492-0.99,2.492-2.141v-1.565
		c0-1.278-1.118-2.173-2.492-2.173c-1.342,0-2.46,1.086-2.46,2.46v0.894C94.532,110.605,95.65,111.755,96.992,111.755z"/>
</g>
<path fill="#7ACE7A" d="M69.512,85.332c0-0.547-0.453-1-1-1c-0.562,0-1,0.453-1,1c0,0.562,0.438,1,1,1
	C69.059,86.332,69.512,85.894,69.512,85.332z M72.012,77.332v10c0,0.547-0.453,1-1,1h-4.5c-0.547,0-1-0.453-1-1v-10
	c0-0.547,0.453-1,1-1h4.5C71.559,76.332,72.012,76.785,72.012,77.332z M90.512,77.332c0,0.828-0.328,1.719-0.859,2.328
	c0.172,0.5,0.234,0.969,0.234,1.188c0.031,0.781-0.203,1.516-0.672,2.141c0.172,0.578,0.172,1.203,0,1.828
	c-0.156,0.578-0.453,1.094-0.844,1.469c0.094,1.172-0.172,2.125-0.766,2.828c-0.672,0.797-1.703,1.203-3.078,1.219h-2.016
	c-2.234,0-4.344-0.734-6.031-1.313c-0.984-0.344-1.922-0.672-2.469-0.688c-0.531-0.016-1-0.453-1-1V77.316
	c0-0.516,0.438-0.953,0.953-1c0.578-0.047,2.078-1.906,2.766-2.812c0.562-0.719,1.094-1.391,1.578-1.875
	c0.609-0.609,0.781-1.547,0.969-2.453c0.172-0.922,0.359-1.891,1.031-2.547c0.187-0.187,0.438-0.297,0.703-0.297
	c3.5,0,3.5,2.797,3.5,4c0,1.281-0.453,2.188-0.875,3c-0.172,0.344-0.328,0.5-0.453,1h4.328
	C89.136,74.332,90.511,75.707,90.512,77.332L90.512,77.332z"/>
<path fill="#7ACE7A" d="M71.242,55.689c0-0.547-0.453-1-1-1c-0.547,0-1,0.453-1,1s0.453,1,1,1
	C70.789,56.689,71.242,56.236,71.242,55.689z M89.242,46.689c0-1.062-0.953-2-2-2h-5.5c0-1.828,1.5-3.156,1.5-5
	c0-1.828-0.359-3-2.5-3c-1,1.016-0.484,3.406-2,5c-0.438,0.453-0.812,0.938-1.203,1.422c-0.703,0.906-2.562,3.578-3.797,3.578h-0.5
	v10h0.5c0.875,0,2.312,0.562,3.156,0.859c1.719,0.594,3.5,1.141,5.344,1.141h1.891c1.766,0,3-0.703,3-2.609
	c0-0.297-0.031-0.594-0.078-0.875c0.656-0.359,1.016-1.25,1.016-1.969c0-0.375-0.094-0.75-0.281-1.078
	c0.531-0.5,0.828-1.125,0.828-1.859c0-0.5-0.219-1.234-0.547-1.609c0.734-0.016,1.172-1.422,1.172-2L89.242,46.689z M91.242,46.673
	c0,0.906-0.266,1.797-0.766,2.547c0.094,0.344,0.141,0.719,0.141,1.078c0,0.781-0.203,1.563-0.594,2.25
	c0.031,0.219,0.047,0.453,0.047,0.672c0,1-0.328,2-0.938,2.781c0.031,2.953-1.984,4.688-4.875,4.688h-2.016
	c-2.219,0-4.281-0.656-6.344-1.375c-0.453-0.156-1.719-0.625-2.156-0.625h-4.5c-1.109,0-2-0.891-2-2v-10c0-1.109,0.891-2,2-2h4.281
	c0.609-0.406,1.672-1.813,2.141-2.422c0.531-0.688,1.078-1.359,1.672-2c0.938-1,0.438-3.469,2-5
	c0.375-0.359,0.875-0.578,1.406-0.578c1.625,0,3.187,0.578,3.953,2.094c0.484,0.953,0.547,1.859,0.547,2.906
	c0,1.094-0.281,2.031-0.75,3h2.75C89.397,42.689,91.241,44.517,91.242,46.673L91.242,46.673z"/>
<path fill="#222222" d="M156.81,23.54c-1.927,1.373-4.285,2.181-6.832,2.181c-6.509,0-11.786-5.278-11.786-11.786
	s5.277-11.786,11.786-11.786s11.786,5.278,11.786,11.786c0,2.547-0.808,4.905-2.181,6.832l7.744,7.744
	c0.763,0.763,0.757,1.984,0,2.74l-0.032,0.032c-0.754,0.754-1.984,0.757-2.74,0l-7.744-7.744L156.81,23.54z M149.978,22.948
	c4.978,0,9.013-4.035,9.013-9.013s-4.035-9.013-9.013-9.013s-9.013,4.035-9.013,9.013S145,22.948,149.978,22.948L149.978,22.948z"/>
</svg>
