<?xml version="1.0" encoding="utf-8"?>
<!-- Generator: Adobe Illustrator 17.0.1, SVG Export Plug-In . SVG Version: 6.00 Build 0)  -->
<!DOCTYPE svg PUBLIC "-//W3C//DTD SVG 1.1//EN" "http://www.w3.org/Graphics/SVG/1.1/DTD/svg11.dtd">
<svg version="1.1" id="Capa_1" xmlns="http://www.w3.org/2000/svg" xmlns:xlink="http://www.w3.org/1999/xlink" x="0px" y="0px"
	 width="25px" height="28px" viewBox="0 0 25 28" enable-background="new 0 0 25 28" xml:space="preserve">
<path fill="#E13C42" d="M4,9c0,0.547-0.453,1-1,1c-0.562,0-1-0.453-1-1c0-0.562,0.438-1,1-1C3.547,8,4,8.438,4,9z M6.5,17V7
	c0-0.547-0.453-1-1-1H1C0.453,6,0,6.453,0,7v10c0,0.547,0.453,1,1,1h4.5C6.047,18,6.5,17.547,6.5,17z M24.141,14.672
	C24.672,15.266,25,16.172,25,17c-0.016,1.625-1.375,3-3,3h-4.328c0.125,0.5,0.281,0.656,0.453,1C18.531,21.812,19,22.719,19,24
	c0,1.203,0,4-3.5,4c-0.266,0-0.516-0.109-0.703-0.297c-0.672-0.656-0.859-1.625-1.031-2.547c-0.187-0.906-0.359-1.844-0.969-2.453
	c-0.484-0.484-1.016-1.156-1.578-1.875c-0.688-0.906-2.188-2.766-2.766-2.812c-0.516-0.047-0.953-0.484-0.953-1V7
	c0-0.547,0.469-0.984,1-1c0.547-0.016,1.484-0.344,2.469-0.688C12.656,4.734,14.766,3.999,17,3.999h2.016
	c1.375,0.016,2.406,0.422,3.078,1.219c0.594,0.703,0.859,1.656,0.766,2.828c0.391,0.375,0.688,0.891,0.844,1.469
	c0.172,0.625,0.172,1.25,0,1.828c0.469,0.625,0.703,1.359,0.672,2.141c0,0.219-0.063,0.688-0.234,1.188L24.141,14.672z"/>
</svg>
